<svg xmlns="http://www.w3.org/2000/svg" xmlns:xlink="http://www.w3.org/1999/xlink" width="300" zoomAndPan="magnify" viewBox="0 0 224.87999 225" height="300" preserveAspectRatio="xMidYMid meet" version="1.0"><defs><g/></defs><g fill="#100a09" fill-opacity="1"><g transform="translate(53.100336, 122.415881)"><g><path d="M 36.640625 -6.109375 C 36.722656 -5.265625 36.710938 -4.421875 36.609375 -3.578125 C 36.515625 -2.742188 36.25 -1.953125 35.8125 -1.203125 C 35.363281 -0.441406 34.671875 0.101562 33.734375 0.4375 C 32.796875 0.78125 31.945312 0.578125 31.1875 -0.171875 C 30.507812 -0.335938 29.929688 -0.6875 29.453125 -1.21875 C 28.972656 -1.757812 28.734375 -2.390625 28.734375 -3.109375 C 28.617188 -8.222656 27.921875 -13.3125 26.640625 -18.375 C 26.359375 -19.65625 26.078125 -20.921875 25.796875 -22.171875 C 25.523438 -23.429688 25.25 -24.679688 24.96875 -25.921875 C 24.25 -23.847656 23.550781 -21.625 22.875 -19.25 C 22.195312 -16.875 21.640625 -14.847656 21.203125 -13.171875 C 20.796875 -11.535156 20.398438 -9.859375 20.015625 -8.140625 C 19.640625 -6.421875 19.332031 -4.925781 19.09375 -3.65625 C 19.0625 -3.53125 19.015625 -3.476562 18.953125 -3.5 C 18.890625 -3.519531 18.859375 -3.550781 18.859375 -3.59375 C 18.816406 -3.3125 18.753906 -3.03125 18.671875 -2.75 C 18.597656 -2.46875 18.519531 -2.171875 18.4375 -1.859375 C 18.28125 -1.453125 18.09375 -1.085938 17.875 -0.765625 C 17.65625 -0.453125 17.304688 -0.238281 16.828125 -0.125 C 16.460938 -0.0390625 16.203125 -0.0546875 16.046875 -0.171875 C 15.679688 -0.171875 15.398438 -0.253906 15.203125 -0.421875 C 14.960938 -0.253906 14.785156 -0.3125 14.671875 -0.59375 C 14.390625 -1.03125 14.175781 -1.46875 14.03125 -1.90625 C 13.894531 -2.351562 13.769531 -2.816406 13.65625 -3.296875 L 11.078125 -12.453125 C 10.796875 -13.453125 10.523438 -14.445312 10.265625 -15.4375 C 10.003906 -16.4375 9.753906 -17.4375 9.515625 -18.4375 C 9.441406 -18.675781 9.363281 -18.914062 9.28125 -19.15625 C 9.195312 -19.394531 9.117188 -19.65625 9.046875 -19.9375 C 9.160156 -17.425781 9.265625 -14.867188 9.359375 -12.265625 C 9.460938 -9.671875 9.535156 -7.117188 9.578125 -4.609375 C 9.617188 -3.734375 9.585938 -2.828125 9.484375 -1.890625 C 9.390625 -0.953125 8.863281 -0.265625 7.90625 0.171875 C 7.46875 0.378906 7.128906 0.34375 6.890625 0.0625 C 6.804688 -0.0195312 6.742188 -0.0976562 6.703125 -0.171875 C 5.867188 0.0976562 5.171875 -0.0390625 4.609375 -0.59375 C 4.085938 -1.15625 3.75 -1.832031 3.59375 -2.625 C 3.4375 -3.425781 3.316406 -4.1875 3.234375 -4.90625 C 2.992188 -6.664062 2.8125 -8.394531 2.6875 -10.09375 C 2.570312 -11.789062 2.492188 -13.492188 2.453125 -15.203125 C 2.335938 -18.753906 2.28125 -22.304688 2.28125 -25.859375 C 2.238281 -27.578125 2.207031 -29.3125 2.1875 -31.0625 C 2.164062 -32.820312 2.316406 -34.5625 2.640625 -36.28125 C 2.671875 -36.445312 2.785156 -36.53125 2.984375 -36.53125 C 3.191406 -36.53125 3.316406 -36.445312 3.359375 -36.28125 C 3.554688 -35.082031 3.671875 -33.8125 3.703125 -32.46875 C 3.742188 -31.132812 3.785156 -29.832031 3.828125 -28.5625 C 3.910156 -28.5625 3.972656 -28.34375 4.015625 -27.90625 C 4.054688 -27.46875 4.09375 -27.25 4.125 -27.25 L 4.125 -28.625 C 4.125 -29.34375 4.113281 -30.050781 4.09375 -30.75 C 4.082031 -31.445312 4.078125 -32.15625 4.078125 -32.875 C 4.035156 -33.46875 4.023438 -34.082031 4.046875 -34.71875 C 4.066406 -35.363281 4.210938 -35.96875 4.484375 -36.53125 C 4.484375 -37.207031 4.828125 -37.742188 5.515625 -38.140625 C 6.472656 -38.734375 7.46875 -38.875 8.5 -38.5625 C 9.695312 -38.320312 10.515625 -37.625 10.953125 -36.46875 C 11.316406 -36.03125 11.535156 -35.488281 11.609375 -34.84375 C 11.691406 -34.125 11.789062 -33.394531 11.90625 -32.65625 C 12.03125 -31.914062 12.15625 -31.171875 12.28125 -30.421875 C 12.789062 -27.347656 13.363281 -24.132812 14 -20.78125 C 14.644531 -17.425781 15.304688 -14.234375 15.984375 -11.203125 C 16.378906 -12.878906 16.753906 -14.550781 17.109375 -16.21875 C 17.472656 -17.894531 17.859375 -19.570312 18.265625 -21.25 C 18.816406 -23.84375 19.390625 -26.425781 19.984375 -29 C 20.585938 -31.582031 21.070312 -34.171875 21.4375 -36.765625 C 21.519531 -37.085938 21.695312 -37.375 21.96875 -37.625 C 22.25 -37.882812 22.550781 -38.035156 22.875 -38.078125 C 23.875 -38.359375 24.75 -38.28125 25.5 -37.84375 C 25.945312 -38.15625 26.445312 -38.3125 27 -38.3125 C 27.5625 -38.3125 28.019531 -38.113281 28.375 -37.71875 C 29.300781 -36.800781 30.039062 -35.765625 30.59375 -34.609375 C 31.15625 -33.453125 31.578125 -32.253906 31.859375 -31.015625 C 32.171875 -29.660156 32.457031 -28.3125 32.71875 -26.96875 C 32.976562 -25.632812 33.226562 -24.289062 33.46875 -22.9375 C 33.550781 -22.414062 33.640625 -21.894531 33.734375 -21.375 C 33.835938 -20.851562 33.910156 -20.332031 33.953125 -19.8125 C 34.066406 -19.375 34.171875 -18.9375 34.265625 -18.5 C 34.367188 -18.0625 34.460938 -17.625 34.546875 -17.1875 C 34.742188 -16.1875 34.929688 -15.207031 35.109375 -14.25 C 35.296875 -13.289062 35.488281 -12.3125 35.6875 -11.3125 C 35.882812 -10.4375 36.070312 -9.566406 36.25 -8.703125 C 36.4375 -7.847656 36.566406 -6.984375 36.640625 -6.109375 Z M 11.796875 -22.390625 C 11.910156 -22.109375 12.007812 -21.859375 12.09375 -21.640625 C 12.175781 -21.421875 12.296875 -21.210938 12.453125 -21.015625 C 12.171875 -22.535156 11.847656 -24.28125 11.484375 -26.25 C 11.128906 -28.226562 10.8125 -29.976562 10.53125 -31.5 C 10.5 -31.9375 10.441406 -32.382812 10.359375 -32.84375 C 10.273438 -33.300781 10.175781 -33.769531 10.0625 -34.25 C 9.820312 -34.09375 9.539062 -33.972656 9.21875 -33.890625 C 9.21875 -33.804688 9.195312 -33.726562 9.15625 -33.65625 C 9.59375 -31.8125 10.019531 -29.988281 10.4375 -28.1875 C 10.863281 -26.394531 11.273438 -24.5625 11.671875 -22.6875 C 11.753906 -22.613281 11.796875 -22.515625 11.796875 -22.390625 Z M 20.890625 -13.296875 C 21.453125 -15.566406 22.050781 -17.835938 22.6875 -20.109375 C 23.332031 -22.390625 24.03125 -24.648438 24.78125 -26.890625 C 24.75 -27.085938 24.710938 -27.285156 24.671875 -27.484375 C 24.628906 -27.679688 24.566406 -27.878906 24.484375 -28.078125 C 23.847656 -26.117188 23.25 -24.128906 22.6875 -22.109375 C 22.132812 -20.097656 21.617188 -18.078125 21.140625 -16.046875 C 21.097656 -15.609375 21.023438 -15.160156 20.921875 -14.703125 C 20.828125 -14.242188 20.738281 -13.796875 20.65625 -13.359375 C 20.695312 -13.316406 20.757812 -13.296875 20.84375 -13.296875 Z M 20.890625 -13.296875 "/></g></g></g><g fill="#100a09" fill-opacity="1"><g transform="translate(86.44328, 122.415881)"><g><path d="M 1.375 -31.609375 C 3.375 -32.648438 5.453125 -33.53125 7.609375 -34.25 C 9.765625 -34.96875 11.921875 -35.609375 14.078125 -36.171875 L 15.453125 -36.53125 C 16.679688 -36.769531 17.914062 -37 19.15625 -37.21875 C 20.394531 -37.4375 21.65625 -37.582031 22.9375 -37.65625 C 23.207031 -37.695312 23.472656 -37.71875 23.734375 -37.71875 C 23.992188 -37.71875 24.265625 -37.71875 24.546875 -37.71875 C 23.390625 -37.4375 22.210938 -37.144531 21.015625 -36.84375 C 19.816406 -36.550781 18.640625 -36.265625 17.484375 -35.984375 C 15.453125 -35.546875 13.425781 -35.078125 11.40625 -34.578125 C 9.382812 -34.078125 7.378906 -33.488281 5.390625 -32.8125 C 4.710938 -32.613281 4.039062 -32.382812 3.375 -32.125 C 2.71875 -31.863281 2.050781 -31.570312 1.375 -31.25 C 1.21875 -31.332031 1.21875 -31.453125 1.375 -31.609375 Z M 34.96875 -7.25 C 34.882812 -6.882812 34.6875 -6.679688 34.375 -6.640625 C 32.175781 -6.242188 29.96875 -5.753906 27.75 -5.171875 C 25.53125 -4.597656 23.363281 -3.929688 21.25 -3.171875 C 20.257812 -2.816406 19.253906 -2.457031 18.234375 -2.09375 C 17.210938 -1.738281 16.203125 -1.335938 15.203125 -0.890625 L 15.140625 -0.890625 C 15.109375 -0.859375 15.050781 -0.832031 14.96875 -0.8125 C 14.882812 -0.789062 14.804688 -0.757812 14.734375 -0.71875 C 14.410156 -0.5625 14.078125 -0.421875 13.734375 -0.296875 C 13.398438 -0.179688 13.070312 -0.0390625 12.75 0.125 L 12.6875 0.171875 C 12.445312 0.335938 12 0.539062 11.34375 0.78125 C 10.6875 1.019531 10.066406 1.21875 9.484375 1.375 C 8.910156 1.53125 8.625 1.609375 8.625 1.609375 C 8.625 1.609375 8.550781 1.617188 8.40625 1.640625 C 8.269531 1.660156 8.140625 1.671875 8.015625 1.671875 C 7.546875 1.753906 7.070312 1.753906 6.59375 1.671875 C 6.113281 1.597656 5.753906 1.300781 5.515625 0.78125 C 5.390625 0.539062 5.367188 0.257812 5.453125 -0.0625 C 4.691406 -0.375 4.097656 -0.921875 3.671875 -1.703125 C 3.253906 -2.484375 3.1875 -3.253906 3.46875 -4.015625 C 3.3125 -5.046875 3.179688 -6.085938 3.078125 -7.140625 C 2.984375 -8.203125 2.894531 -9.253906 2.8125 -10.296875 L 2.09375 -17.484375 L 1.375 -24.3125 C 0.613281 -25.144531 0.296875 -26.125 0.421875 -27.25 C 0.535156 -28.363281 1.035156 -29.300781 1.921875 -30.0625 C 1.953125 -30.132812 1.988281 -30.210938 2.03125 -30.296875 C 2.070312 -30.378906 2.113281 -30.457031 2.15625 -30.53125 C 2.789062 -30.8125 3.425781 -31.070312 4.0625 -31.3125 C 4.707031 -31.550781 5.347656 -31.769531 5.984375 -31.96875 C 7.984375 -32.644531 9.988281 -33.234375 12 -33.734375 C 14.019531 -34.234375 16.046875 -34.6875 18.078125 -35.09375 C 19.679688 -35.445312 21.257812 -35.832031 22.8125 -36.25 C 24.363281 -36.675781 25.921875 -37.085938 27.484375 -37.484375 C 27.679688 -37.441406 27.890625 -37.410156 28.109375 -37.390625 C 28.328125 -37.367188 28.519531 -37.320312 28.6875 -37.25 L 29.640625 -36.890625 C 29.796875 -36.765625 29.953125 -36.628906 30.109375 -36.484375 C 30.273438 -36.347656 30.4375 -36.222656 30.59375 -36.109375 C 30.789062 -35.460938 30.929688 -34.832031 31.015625 -34.21875 C 31.097656 -33.601562 31.078125 -32.992188 30.953125 -32.390625 L 27.96875 -31.5 C 27.320312 -31.289062 26.648438 -31.085938 25.953125 -30.890625 C 25.253906 -30.691406 24.566406 -30.492188 23.890625 -30.296875 C 23.734375 -30.210938 23.613281 -30.171875 23.53125 -30.171875 C 22.769531 -29.972656 21.878906 -29.722656 20.859375 -29.421875 C 19.847656 -29.128906 18.832031 -28.832031 17.8125 -28.53125 C 16.789062 -28.226562 15.921875 -27.957031 15.203125 -27.71875 C 14.484375 -27.476562 14.046875 -27.320312 13.890625 -27.25 C 12.929688 -26.925781 11.972656 -26.582031 11.015625 -26.21875 C 10.054688 -25.863281 9.117188 -25.488281 8.203125 -25.09375 L 8.078125 -24.96875 C 8.117188 -24.769531 8.171875 -24.441406 8.234375 -23.984375 C 8.296875 -23.523438 8.351562 -23.09375 8.40625 -22.6875 C 8.46875 -22.289062 8.5 -22.035156 8.5 -21.921875 C 10.175781 -22.628906 11.84375 -23.332031 13.5 -24.03125 C 15.15625 -24.738281 16.84375 -25.410156 18.5625 -26.046875 C 19.519531 -26.285156 20.488281 -26.535156 21.46875 -26.796875 C 22.445312 -27.054688 23.414062 -27.328125 24.375 -27.609375 L 25.140625 -27.78125 C 25.503906 -27.863281 25.851562 -27.914062 26.1875 -27.9375 C 26.53125 -27.957031 26.882812 -27.984375 27.25 -28.015625 C 28 -28.054688 28.710938 -28.003906 29.390625 -27.859375 C 30.078125 -27.722656 30.617188 -27.296875 31.015625 -26.578125 C 31.097656 -26.503906 31.144531 -26.425781 31.15625 -26.34375 C 31.175781 -26.257812 31.207031 -26.179688 31.25 -26.109375 C 31.332031 -25.984375 31.394531 -25.859375 31.4375 -25.734375 C 31.476562 -25.617188 31.515625 -25.503906 31.546875 -25.390625 C 31.585938 -25.347656 31.628906 -25.328125 31.671875 -25.328125 C 32.234375 -25.046875 32.570312 -24.546875 32.6875 -23.828125 C 32.8125 -23.265625 32.722656 -22.691406 32.421875 -22.109375 C 32.117188 -21.535156 31.691406 -21.113281 31.140625 -20.84375 C 30.492188 -20.5625 29.84375 -20.390625 29.1875 -20.328125 C 28.53125 -20.265625 27.863281 -20.15625 27.1875 -20 C 26.46875 -19.875 25.738281 -19.742188 25 -19.609375 C 24.257812 -19.472656 23.53125 -19.300781 22.8125 -19.09375 C 21.375 -18.695312 19.945312 -18.269531 18.53125 -17.8125 C 17.113281 -17.351562 15.707031 -16.820312 14.3125 -16.21875 C 13.4375 -15.863281 12.585938 -15.484375 11.765625 -15.078125 C 10.941406 -14.679688 10.113281 -14.265625 9.28125 -13.828125 L 9.640625 -9.9375 C 9.640625 -9.894531 9.640625 -9.863281 9.640625 -9.84375 C 9.640625 -9.820312 9.640625 -9.773438 9.640625 -9.703125 L 9.8125 -9.8125 C 10.5 -10.132812 11.171875 -10.425781 11.828125 -10.6875 C 12.484375 -10.945312 13.128906 -11.21875 13.765625 -11.5 L 18.859375 -13.46875 C 19.296875 -13.664062 19.742188 -13.84375 20.203125 -14 C 20.660156 -14.164062 21.113281 -14.328125 21.5625 -14.484375 C 22.269531 -14.765625 22.984375 -15.035156 23.703125 -15.296875 C 24.421875 -15.554688 25.140625 -15.804688 25.859375 -16.046875 L 28.203125 -16.765625 C 28.523438 -16.847656 28.84375 -16.957031 29.15625 -17.09375 C 29.476562 -17.226562 29.796875 -17.335938 30.109375 -17.421875 C 31.273438 -17.660156 32.222656 -17.5625 32.953125 -17.125 C 33.691406 -16.6875 34.28125 -16.046875 34.71875 -15.203125 C 35.164062 -14.367188 35.5 -13.453125 35.71875 -12.453125 C 35.9375 -11.453125 36.066406 -10.535156 36.109375 -9.703125 C 36.148438 -9.179688 36.054688 -8.707031 35.828125 -8.28125 C 35.609375 -7.863281 35.320312 -7.519531 34.96875 -7.25 Z M 20.484375 -19.9375 C 19.554688 -19.65625 18.625 -19.375 17.6875 -19.09375 C 16.75 -18.820312 15.820312 -18.523438 14.90625 -18.203125 C 14.3125 -18.046875 13.722656 -17.875 13.140625 -17.6875 C 12.566406 -17.507812 12 -17.34375 11.4375 -17.1875 C 11.3125 -16.507812 10.992188 -15.945312 10.484375 -15.5 C 11.953125 -16.257812 13.453125 -16.9375 14.984375 -17.53125 C 16.523438 -18.132812 18.035156 -18.738281 19.515625 -19.34375 C 19.835938 -19.5 20.175781 -19.640625 20.53125 -19.765625 Z M 7.25 0.78125 C 7.6875 0.820312 8.179688 0.832031 8.734375 0.8125 C 9.296875 0.789062 9.617188 0.757812 9.703125 0.71875 C 9.773438 0.71875 9.832031 0.695312 9.875 0.65625 C 10.113281 0.539062 10.351562 0.421875 10.59375 0.296875 C 10.832031 0.179688 11.050781 0.0625 11.25 -0.0625 C 11.726562 -0.300781 12.195312 -0.539062 12.65625 -0.78125 C 13.125 -1.019531 13.578125 -1.257812 14.015625 -1.5 L 14.015625 -1.609375 C 13.492188 -1.410156 12.953125 -1.210938 12.390625 -1.015625 C 11.835938 -0.816406 11.28125 -0.617188 10.71875 -0.421875 C 10.15625 -0.222656 9.582031 -0.015625 9 0.203125 C 8.425781 0.421875 7.84375 0.613281 7.25 0.78125 Z M 7.25 0.78125 "/></g></g></g><g fill="#100a09" fill-opacity="1"><g transform="translate(119.786224, 122.415881)"><g><path d="M 25.984375 0.171875 C 25.628906 0.410156 25.226562 0.410156 24.78125 0.171875 C 23.988281 -0.179688 23.453125 -0.765625 23.171875 -1.578125 C 22.890625 -2.398438 22.671875 -3.191406 22.515625 -3.953125 L 22.15625 -5.984375 L 11.734375 -24.609375 C 11.578125 -24.804688 11.414062 -25.023438 11.25 -25.265625 C 11.09375 -25.503906 10.9375 -25.722656 10.78125 -25.921875 C 10.820312 -23.890625 10.832031 -21.851562 10.8125 -19.8125 C 10.789062 -17.78125 10.78125 -15.75 10.78125 -13.71875 C 10.851562 -12.519531 10.898438 -11.320312 10.921875 -10.125 C 10.941406 -8.925781 10.972656 -7.726562 11.015625 -6.53125 C 11.054688 -5.925781 11.097656 -5.191406 11.140625 -4.328125 C 11.179688 -3.472656 11.085938 -2.707031 10.859375 -2.03125 C 10.640625 -1.351562 10.113281 -0.957031 9.28125 -0.84375 C 8.914062 -0.238281 8.425781 0.171875 7.8125 0.390625 C 7.195312 0.609375 6.550781 0.617188 5.875 0.421875 C 5.226562 0.253906 4.664062 -0.125 4.1875 -0.71875 C 4.03125 -3.226562 3.898438 -5.738281 3.796875 -8.25 C 3.703125 -10.769531 3.613281 -13.289062 3.53125 -15.8125 C 3.445312 -17.84375 3.382812 -19.882812 3.34375 -21.9375 C 3.3125 -24 3.253906 -26.046875 3.171875 -28.078125 C 3.128906 -29.398438 3.097656 -30.71875 3.078125 -32.03125 C 3.054688 -33.351562 3.085938 -34.648438 3.171875 -35.921875 C 3.566406 -36.242188 3.945312 -36.425781 4.3125 -36.46875 C 4.3125 -36.945312 4.472656 -37.40625 4.796875 -37.84375 C 5.273438 -38.4375 5.8125 -38.722656 6.40625 -38.703125 C 7.007812 -38.679688 7.628906 -38.460938 8.265625 -38.046875 C 8.898438 -37.628906 9.476562 -37.148438 10 -36.609375 C 10.519531 -36.078125 10.921875 -35.628906 11.203125 -35.265625 C 12.234375 -33.910156 13.175781 -32.523438 14.03125 -31.109375 C 14.894531 -29.691406 15.726562 -28.242188 16.53125 -26.765625 C 17.207031 -25.609375 17.863281 -24.429688 18.5 -23.234375 C 19.132812 -22.035156 19.753906 -20.816406 20.359375 -19.578125 C 20.441406 -19.421875 20.484375 -19.222656 20.484375 -18.984375 L 21.4375 -17.125 C 21.28125 -18.644531 21.0625 -20.179688 20.78125 -21.734375 C 20.5 -23.285156 20.21875 -24.820312 19.9375 -26.34375 C 19.738281 -27.425781 19.539062 -28.503906 19.34375 -29.578125 C 19.144531 -30.648438 18.882812 -31.726562 18.5625 -32.8125 C 18.40625 -33.375 18.253906 -33.941406 18.109375 -34.515625 C 17.972656 -35.097656 18.0625 -35.6875 18.375 -36.28125 C 18.65625 -36.757812 19 -37.117188 19.40625 -37.359375 C 19.40625 -37.398438 19.410156 -37.421875 19.421875 -37.421875 C 19.441406 -37.421875 19.453125 -37.441406 19.453125 -37.484375 C 19.816406 -38.160156 20.367188 -38.5 21.109375 -38.5 C 21.847656 -38.5 22.472656 -38.316406 22.984375 -37.953125 C 23.109375 -37.921875 23.25 -37.820312 23.40625 -37.65625 C 23.53125 -37.101562 23.671875 -36.535156 23.828125 -35.953125 C 23.984375 -35.378906 24.144531 -34.8125 24.3125 -34.25 C 24.789062 -32.53125 25.1875 -30.757812 25.5 -28.9375 C 25.820312 -27.125 26.125 -25.320312 26.40625 -23.53125 C 27 -19.894531 27.472656 -16.222656 27.828125 -12.515625 C 28.191406 -8.804688 28.492188 -5.113281 28.734375 -1.4375 C 28.421875 -1 28.023438 -0.617188 27.546875 -0.296875 C 27.066406 0.015625 26.546875 0.171875 25.984375 0.171875 Z M 29.34375 -2.03125 C 29.257812 -2.03125 29.175781 -1.972656 29.09375 -1.859375 C 28.695312 -7.566406 28.148438 -13.265625 27.453125 -18.953125 C 26.753906 -24.640625 25.785156 -30.257812 24.546875 -35.8125 C 24.460938 -36.050781 24.523438 -36.269531 24.734375 -36.46875 C 24.890625 -36.664062 25.109375 -36.753906 25.390625 -36.734375 C 25.671875 -36.710938 25.828125 -36.539062 25.859375 -36.21875 C 26.941406 -31.03125 27.789062 -25.789062 28.40625 -20.5 C 29.03125 -15.21875 29.320312 -9.921875 29.28125 -4.609375 C 29.320312 -4.410156 29.351562 -4.039062 29.375 -3.5 C 29.394531 -2.957031 29.382812 -2.46875 29.34375 -2.03125 Z M 3.109375 -6.40625 C 2.953125 -8.519531 2.832031 -10.722656 2.75 -13.015625 C 2.675781 -15.316406 2.597656 -17.546875 2.515625 -19.703125 C 2.429688 -21.816406 2.367188 -23.953125 2.328125 -26.109375 C 2.296875 -28.265625 2.257812 -30.421875 2.21875 -32.578125 C 2.175781 -33.085938 2.191406 -33.613281 2.265625 -34.15625 C 2.347656 -34.695312 2.488281 -35.207031 2.6875 -35.6875 C 2.65625 -34.726562 2.644531 -33.769531 2.65625 -32.8125 C 2.675781 -31.851562 2.707031 -30.894531 2.75 -29.9375 C 2.789062 -27.863281 2.84375 -25.785156 2.90625 -23.703125 C 2.96875 -21.628906 3.015625 -19.535156 3.046875 -17.421875 L 3.59375 -3.953125 C 3.59375 -3.953125 3.539062 -4.039062 3.4375 -4.21875 C 3.34375 -4.394531 3.234375 -5.125 3.109375 -6.40625 Z M 9.8125 -9.34375 L 9.640625 -9.15625 C 9.640625 -9.15625 9.628906 -9.15625 9.609375 -9.15625 C 9.585938 -9.15625 9.554688 -9.132812 9.515625 -9.09375 L 9.453125 -5.515625 C 9.453125 -5.035156 9.539062 -4.460938 9.71875 -3.796875 C 9.90625 -3.140625 9.898438 -2.429688 9.703125 -1.671875 C 10.097656 -2.347656 10.253906 -3.03125 10.171875 -3.71875 C 10.140625 -4.269531 10.113281 -4.84375 10.09375 -5.4375 C 10.070312 -6.039062 10.019531 -6.644531 9.9375 -7.25 C 9.9375 -7.601562 9.925781 -7.945312 9.90625 -8.28125 C 9.882812 -8.625 9.851562 -8.976562 9.8125 -9.34375 Z M 9.8125 -9.34375 "/></g></g></g><g fill="#100a09" fill-opacity="1"><g transform="translate(147.741548, 122.415881)"><g><path d="M 28.859375 -11.5625 C 28.421875 -10.082031 27.84375 -8.644531 27.125 -7.25 C 26.40625 -5.851562 25.46875 -4.632812 24.3125 -3.59375 C 24.1875 -3.507812 24.046875 -3.390625 23.890625 -3.234375 C 23.609375 -2.953125 23.226562 -2.601562 22.75 -2.1875 C 22.269531 -1.769531 21.769531 -1.441406 21.25 -1.203125 C 19.894531 -0.316406 18.421875 0.078125 16.828125 -0.015625 C 15.234375 -0.117188 13.707031 -0.5625 12.25 -1.34375 C 10.789062 -2.125 9.5625 -3.09375 8.5625 -4.25 C 7.5625 -5.40625 6.722656 -6.703125 6.046875 -8.140625 C 5.691406 -8.097656 5.332031 -8.164062 4.96875 -8.34375 C 4.613281 -8.53125 4.332031 -8.84375 4.125 -9.28125 C 2.65625 -12.988281 1.828125 -16.867188 1.640625 -20.921875 C 1.460938 -24.972656 1.8125 -28.9375 2.6875 -32.8125 C 2.925781 -33.8125 3.296875 -34.816406 3.796875 -35.828125 C 4.296875 -36.847656 4.953125 -37.664062 5.765625 -38.28125 C 6.585938 -38.90625 7.597656 -39.117188 8.796875 -38.921875 C 9.515625 -38.835938 10.160156 -38.566406 10.734375 -38.109375 C 11.316406 -37.648438 11.75 -37.082031 12.03125 -36.40625 C 12.351562 -35.53125 12.382812 -34.5625 12.125 -33.5 C 11.863281 -32.4375 11.691406 -31.445312 11.609375 -30.53125 C 11.535156 -29.414062 11.5 -28.289062 11.5 -27.15625 C 11.5 -26.019531 11.519531 -24.890625 11.5625 -23.765625 C 11.71875 -21.453125 12.054688 -19.175781 12.578125 -16.9375 C 13.097656 -14.707031 13.753906 -12.515625 14.546875 -10.359375 C 14.984375 -10.035156 15.429688 -9.765625 15.890625 -9.546875 C 16.347656 -9.328125 16.835938 -9.195312 17.359375 -9.15625 C 18.515625 -9.394531 19.515625 -9.875 20.359375 -10.59375 C 20.835938 -11.269531 21.15625 -12.097656 21.3125 -13.078125 C 21.476562 -14.054688 21.578125 -15.023438 21.609375 -15.984375 C 21.648438 -16.941406 21.691406 -17.757812 21.734375 -18.4375 C 21.929688 -21.113281 22.03125 -23.785156 22.03125 -26.453125 C 22.03125 -29.128906 22.007812 -31.804688 21.96875 -34.484375 C 21.9375 -35.398438 22.335938 -36.097656 23.171875 -36.578125 C 24.003906 -37.054688 24.800781 -37.078125 25.5625 -36.640625 L 25.5625 -37.25 C 25.5625 -37.5625 25.679688 -37.847656 25.921875 -38.109375 C 26.160156 -38.367188 26.441406 -38.476562 26.765625 -38.4375 C 27.679688 -38.351562 28.347656 -38.015625 28.765625 -37.421875 C 29.191406 -36.828125 29.472656 -36.140625 29.609375 -35.359375 C 29.742188 -34.578125 29.832031 -33.804688 29.875 -33.046875 C 29.957031 -32.328125 30.035156 -31.609375 30.109375 -30.890625 C 30.191406 -30.171875 30.234375 -29.453125 30.234375 -28.734375 L 30.234375 -26.34375 C 30.359375 -23.863281 30.328125 -21.375 30.140625 -18.875 C 29.960938 -16.382812 29.535156 -13.945312 28.859375 -11.5625 Z M 11.375 -32.625 C 11.21875 -32.550781 11.097656 -32.59375 11.015625 -32.75 C 10.972656 -32.46875 10.910156 -32.195312 10.828125 -31.9375 C 10.753906 -31.675781 10.65625 -31.425781 10.53125 -31.1875 C 10.289062 -29.15625 10.179688 -27.117188 10.203125 -25.078125 C 10.222656 -23.046875 10.4375 -21.035156 10.84375 -19.046875 C 10.914062 -18.640625 10.992188 -18.242188 11.078125 -17.859375 C 11.160156 -17.484375 11.238281 -17.117188 11.3125 -16.765625 C 11.394531 -16.765625 11.457031 -16.742188 11.5 -16.703125 C 10.539062 -22.054688 10.5 -27.363281 11.375 -32.625 Z M 11.375 -32.625 "/></g></g></g><path stroke-linecap="butt" transform="matrix(0.579782, 0, 0, 0.579782, 21.20073, 58.341432)" fill="none" stroke-linejoin="miter" d="M 107.015055 92.462031 C 107.149804 93.910583 107.122854 95.352397 106.940943 96.800949 C 106.772507 98.242763 106.307623 99.623941 105.553028 100.931006 C 104.798434 102.244809 103.612643 103.194789 101.995655 103.780948 C 100.385404 104.367106 98.923377 104.010021 97.609574 102.696218 C 96.437258 102.413245 95.433378 101.806875 94.611409 100.883844 C 93.78944 99.960813 93.378456 98.876084 93.378456 97.629655 C 93.176332 88.823808 91.970328 80.051647 89.767182 71.313174 C 89.282086 69.089815 88.796989 66.900144 88.305155 64.730685 C 87.840271 62.561226 87.355175 60.411979 86.870078 58.276207 C 85.630388 61.860531 84.417647 65.700878 83.238593 69.797248 C 82.079751 73.900355 81.123033 77.397092 80.368439 80.287458 C 79.681219 83.11045 79.007474 86.000816 78.347204 88.958557 C 77.693671 91.916297 77.16815 94.496741 76.763903 96.699887 C 76.696528 96.902011 76.602204 96.98286 76.487667 96.949173 C 76.386606 96.915486 76.332706 96.868323 76.332706 96.800949 C 76.265332 97.286045 76.16427 97.771142 76.029521 98.262976 C 75.894772 98.72786 75.760023 99.246643 75.625274 99.799114 C 75.342301 100.486334 75.005428 101.10618 74.621394 101.665388 C 74.250834 102.217859 73.651201 102.595156 72.829232 102.79728 C 72.209386 102.932029 71.764715 102.898342 71.495217 102.696218 C 70.868634 102.696218 70.383537 102.554732 70.03319 102.271759 C 69.628943 102.554732 69.325758 102.45367 69.123634 101.968573 C 68.638538 101.207242 68.267978 100.452647 68.011955 99.698053 C 67.776144 98.943458 67.560546 98.148439 67.358422 97.32647 L 62.918442 81.520411 C 62.433346 79.809099 61.961724 78.091049 61.510315 76.379737 C 61.072381 74.648212 60.641184 72.916687 60.223462 71.185162 C 60.088713 70.780915 59.953964 70.376668 59.819215 69.972421 C 59.684466 69.554699 59.54298 69.10329 59.394756 68.611456 C 59.610354 72.950374 59.80574 77.363405 59.974176 81.850546 C 60.142613 86.317476 60.257149 90.723769 60.324524 95.055949 C 60.391898 96.571876 60.344736 98.134964 60.1763 99.745215 C 60.007864 101.362203 59.098308 102.547994 57.45437 103.302589 C 56.693038 103.652936 56.10688 103.585562 55.689158 103.100465 C 55.554409 102.965716 55.453347 102.830967 55.385973 102.696218 C 53.937421 103.16784 52.731417 102.925291 51.754487 101.968573 C 50.865143 101.005118 50.272248 99.839539 49.989275 98.465099 C 49.719777 97.083922 49.517653 95.770119 49.382904 94.530428 C 48.978657 91.505313 48.668735 88.52736 48.453136 85.603306 C 48.251013 82.679253 48.116264 79.741725 48.048889 76.783984 C 47.846766 70.646166 47.745704 64.521824 47.745704 58.404219 C 47.678329 55.426266 47.617692 52.428101 47.57053 49.402985 C 47.536843 46.37787 47.792866 43.386442 48.352074 40.428701 C 48.419449 40.145728 48.621572 39.997504 48.958445 39.997504 C 49.308792 39.997504 49.517653 40.145728 49.585028 40.428701 C 49.935375 42.497099 50.150974 44.680033 50.218348 46.984241 C 50.285723 49.288449 50.353097 51.538757 50.420472 53.741903 C 50.555221 53.741903 50.649545 54.119201 50.71692 54.873795 C 50.804506 55.628389 50.878618 56.005687 50.945993 56.005687 L 50.945993 53.640842 C 50.945993 52.394413 50.932518 51.174935 50.898831 49.982406 C 50.865143 48.776402 50.844931 47.543449 50.844931 46.303758 C 50.764082 45.279666 50.737132 44.221886 50.770819 43.123681 C 50.817981 42.01874 51.080742 40.974435 51.552363 39.997504 C 51.552363 38.838663 52.138522 37.915632 53.317575 37.228412 C 54.961513 36.184108 56.686301 35.941559 58.4852 36.49403 C 60.553597 36.91849 61.961724 38.124493 62.723056 40.125516 C 63.322689 40.88011 63.699986 41.809879 63.854948 42.901346 C 63.989697 44.141036 64.158133 45.40094 64.360257 46.681055 C 64.56238 47.940959 64.771241 49.227812 64.98684 50.534877 C 65.88292 55.850725 66.873326 61.395647 67.964793 67.176379 C 69.069734 72.957112 70.215101 78.461609 71.394155 83.68987 C 72.081375 80.799504 72.72817 77.909138 73.334541 75.018772 C 73.954386 72.128406 74.607919 69.238039 75.301876 66.347673 C 76.272069 61.874006 77.275949 57.420551 78.300042 52.980571 C 79.344346 48.527117 80.166315 44.066925 80.772686 39.599995 C 80.92091 39.040787 81.230832 38.548953 81.702454 38.111018 C 82.18755 37.652872 82.713072 37.396849 83.265543 37.329474 C 84.983592 36.83764 86.492781 36.972389 87.806584 37.733721 C 88.561179 37.194725 89.416835 36.925227 90.373553 36.925227 C 91.350483 36.925227 92.145502 37.268837 92.772085 37.956057 C 94.348648 39.539358 95.622027 41.324782 96.578745 43.325805 C 97.535462 45.313353 98.25637 47.368275 98.748204 49.504047 C 99.300675 51.855417 99.792508 54.186575 100.230443 56.490783 C 100.688589 58.788254 101.119786 61.112674 101.544245 63.443832 C 101.678994 64.333175 101.827218 65.235994 101.995655 66.14555 C 102.164091 67.034893 102.285365 67.924236 102.35274 68.81358 C 102.568338 69.574912 102.763724 70.329506 102.93216 71.084101 C 103.100597 71.838695 103.24882 72.600027 103.383569 73.354622 C 103.733917 75.086146 104.064052 76.770509 104.367237 78.421184 C 104.683897 80.065122 105.014032 81.756222 105.350905 83.487747 C 105.701252 84.996936 106.031387 86.49265 106.334573 87.974889 C 106.651233 89.457128 106.880306 90.952842 107.015055 92.462031 Z M 64.158133 64.380338 C 64.360257 64.865434 64.528693 65.303368 64.663442 65.687403 C 64.811666 66.057963 65.020527 66.415048 65.290025 66.745183 C 64.804928 64.144527 64.252457 61.132886 63.625875 57.723737 C 63.019504 54.307849 62.473771 51.302946 61.988674 48.695553 C 61.9213 47.927484 61.8135 47.145939 61.658539 46.35092 C 61.52379 45.562639 61.355354 44.754144 61.159968 43.932176 C 60.755721 44.201674 60.277362 44.410535 59.718153 44.565496 C 59.718153 44.700245 59.684466 44.834994 59.617092 44.969743 C 60.378423 48.129607 61.112806 51.262522 61.84045 54.368486 C 62.561357 57.460976 63.26879 60.627578 63.95601 63.875029 C 64.090759 64.009778 64.158133 64.178214 64.158133 64.380338 Z M 79.86313 80.085334 C 80.819848 76.150663 81.84394 72.229467 82.935407 68.308271 C 84.047087 64.380338 85.259828 60.486091 86.566893 56.639007 C 86.499519 56.28866 86.425407 55.938312 86.344557 55.608177 C 86.277183 55.251092 86.176121 54.907482 86.041372 54.57061 C 84.949905 57.95281 83.912338 61.375435 82.935407 64.858697 C 81.978689 68.321746 81.089346 71.805008 80.267377 75.321957 C 80.200003 76.076551 80.071991 76.858096 79.89008 77.66659 C 79.721644 78.454871 79.566682 79.229678 79.431933 79.984273 C 79.499308 80.051647 79.600369 80.085334 79.735118 80.085334 Z M 103.693492 48.473217 C 107.136329 46.687793 110.713916 45.178604 114.432988 43.932176 C 118.145323 42.692485 121.871133 41.587543 125.596943 40.630825 L 127.968526 39.997504 C 130.104298 39.599995 132.24007 39.209223 134.369104 38.838663 C 136.504876 38.454628 138.674335 38.191868 140.877481 38.057119 C 141.349103 37.989744 141.807249 37.956057 142.265396 37.956057 C 142.716805 37.956057 143.181689 37.956057 143.646573 37.956057 C 141.665763 38.427679 139.63779 38.92625 137.57613 39.445034 C 135.507733 39.963817 133.473023 40.462389 131.472 40.93401 C 127.961789 41.688605 124.465052 42.503836 120.988527 43.379705 C 117.505266 44.235361 114.055691 45.245978 110.626329 46.40482 C 109.447275 46.755167 108.288433 47.159414 107.143067 47.610823 C 106.017913 48.048758 104.865809 48.547329 103.693492 49.0998 C 103.423994 48.965051 103.423994 48.75619 103.693492 48.473217 Z M 161.622091 90.494695 C 161.487342 91.114541 161.143732 91.464888 160.591261 91.532263 C 156.811551 92.219483 153.004892 93.068401 149.171282 94.079019 C 145.357886 95.069424 141.625338 96.221528 137.980377 97.528594 C 136.262327 98.148439 134.524065 98.775022 132.758853 99.394867 C 131.013854 100.014713 129.268854 100.70867 127.537329 101.463265 L 127.436267 101.463265 C 127.37563 101.530639 127.274569 101.577801 127.13982 101.611489 C 127.005071 101.645176 126.870322 101.699075 126.735573 101.76645 C 126.176364 102.035948 125.610418 102.278496 125.017523 102.494095 C 124.431365 102.696218 123.858681 102.932029 123.30621 103.201527 L 123.205149 103.302589 C 122.800902 103.585562 122.026095 103.935909 120.887466 104.333419 C 119.755574 104.757878 118.691057 105.101488 117.680439 105.370986 C 116.690034 105.653959 116.1982 105.795445 116.1982 105.795445 C 116.1982 105.795445 116.070189 105.815658 115.820903 105.849345 C 115.585092 105.883032 115.362756 105.896507 115.160633 105.896507 C 114.338664 106.031256 113.509957 106.024519 112.667776 105.876295 C 111.845807 105.741546 111.232699 105.229499 110.828452 104.333419 C 110.626329 103.935909 110.592641 103.450813 110.72739 102.898342 C 109.413588 102.345871 108.396233 101.39589 107.675325 100.0484 C 106.954418 98.707647 106.833144 97.387107 107.324978 96.093517 C 107.035268 94.294617 106.806194 92.488981 106.644495 90.669869 C 106.476059 88.837283 106.321098 87.024908 106.186349 85.226009 L 104.926446 72.849313 L 103.693492 61.078987 C 102.379689 59.630435 101.833956 57.939335 102.056292 56.005687 C 102.251678 54.092251 103.114071 52.482 104.62326 51.168197 C 104.690635 51.033448 104.758009 50.898699 104.825384 50.76395 C 104.892758 50.615726 104.960133 50.467502 105.027507 50.339491 C 106.139187 49.847657 107.237391 49.402985 108.328858 48.998738 C 109.440537 48.581016 110.545479 48.203719 111.657159 47.866847 C 115.086521 46.687793 118.542833 45.670438 122.019357 44.814782 C 125.495882 43.959125 128.992618 43.184319 132.509568 42.497099 C 135.265185 41.877253 137.980377 41.203508 140.648408 40.482601 C 143.33665 39.754956 146.024893 39.047524 148.719873 38.360304 C 149.070221 38.427679 149.434043 38.481578 149.797865 38.515265 C 150.188638 38.548953 150.512035 38.629802 150.781533 38.764551 L 152.445683 39.397871 C 152.715181 39.599995 152.984679 39.822331 153.254177 40.078354 C 153.53715 40.314165 153.820123 40.529763 154.089621 40.731887 C 154.439969 41.843566 154.682517 42.935033 154.817266 44.006287 C 154.952015 45.070805 154.918328 46.108372 154.716204 47.132464 L 149.54858 48.695553 C 148.4369 49.032426 147.278059 49.376035 146.072055 49.73312 C 144.879527 50.069993 143.693735 50.406865 142.514681 50.737 C 142.245183 50.891962 142.04306 50.966074 141.908311 50.966074 C 140.601246 51.302946 139.058369 51.734143 137.299895 52.252927 C 135.548158 52.77171 133.789683 53.297232 132.024471 53.816015 C 130.279472 54.321324 128.783758 54.779471 127.537329 55.20393 C 126.311113 55.608177 125.556519 55.870938 125.273546 56.005687 C 123.622871 56.564895 121.972195 57.151053 120.308045 57.770899 C 118.65737 58.397482 117.047119 59.051014 115.463818 59.738234 L 115.261695 59.940358 C 115.329069 60.27723 115.416656 60.849914 115.517718 61.658408 C 115.618779 62.446689 115.719841 63.187809 115.820903 63.875029 C 115.93544 64.562249 115.996077 65.00692 115.996077 65.209044 C 118.886443 63.969353 121.756597 62.749875 124.613276 61.557346 C 127.469955 60.344605 130.380533 59.185763 133.338274 58.074084 C 134.988949 57.669837 136.646362 57.245378 138.330725 56.787231 C 140.028562 56.335822 141.69945 55.870938 143.350125 55.406054 L 144.684141 55.075919 C 145.303986 54.94117 145.910356 54.86032 146.496515 54.826633 C 147.08941 54.792946 147.689043 54.739046 148.315626 54.671672 C 149.622692 54.604297 150.862383 54.698621 152.021224 54.947907 C 153.19354 55.183718 154.130046 55.9181 154.817266 57.144316 C 154.952015 57.29254 155.032864 57.434026 155.066552 57.568775 C 155.100239 57.703524 155.154138 57.838273 155.221513 57.973022 C 155.356262 58.175146 155.457324 58.384007 155.524698 58.606343 C 155.592073 58.808466 155.666185 59.01059 155.747034 59.212713 C 155.814409 59.280088 155.881783 59.313775 155.949158 59.313775 C 156.912613 59.798871 157.492034 60.661265 157.694157 61.907693 C 157.909756 62.864411 157.761532 63.848079 157.236011 64.858697 C 156.717227 65.849102 155.976107 66.590221 155.019389 67.075318 C 153.90771 67.546939 152.782556 67.843387 151.643927 67.957924 C 150.512035 68.058985 149.373406 68.240897 148.214565 68.510395 C 146.968136 68.712518 145.708233 68.941591 144.428117 69.190877 C 143.154739 69.426688 141.901573 69.716398 140.675358 70.053271 C 138.189238 70.740491 135.716594 71.488348 133.264162 72.296842 C 130.825205 73.085123 128.40646 73.994679 126.001191 75.018772 C 124.492002 75.638617 123.029975 76.29215 121.61511 76.986107 C 120.206983 77.673327 118.778644 78.394234 117.330092 79.148829 L 117.936462 85.859329 C 117.936462 85.926704 117.936462 85.973866 117.936462 86.007553 C 117.936462 86.041241 117.936462 86.128828 117.936462 86.263577 L 118.25986 86.061453 C 119.425439 85.502245 120.570805 85.010411 121.716172 84.572476 C 122.861539 84.121067 123.979955 83.656183 125.071422 83.184562 L 133.843583 79.755199 C 134.598177 79.418327 135.372984 79.115142 136.161266 78.845644 C 136.96976 78.562671 137.751304 78.286435 138.505898 78.016937 C 139.732114 77.531841 140.971805 77.066957 142.211496 76.629022 C 143.457925 76.177613 144.690878 75.739679 145.917094 75.321957 L 149.952827 74.082266 C 150.505298 73.947517 151.064506 73.765606 151.616977 73.529795 C 152.169448 73.28051 152.715181 73.085123 153.254177 72.950374 C 155.2552 72.532653 156.892401 72.707826 158.172516 73.475896 C 159.445894 74.237228 160.463249 75.335432 161.217844 76.783984 C 161.979176 78.225798 162.538384 79.809099 162.908944 81.520411 C 163.299716 83.238461 163.522052 84.815025 163.589426 86.263577 C 163.656801 87.166395 163.495102 87.981626 163.111067 88.709271 C 162.740508 89.430178 162.248674 90.023074 161.622091 90.494695 Z M 136.639625 68.611456 C 135.063061 69.10329 133.459548 69.588387 131.829085 70.073483 C 130.212097 70.545105 128.615321 71.057151 127.038758 71.616359 C 125.994453 71.885857 124.977098 72.175568 123.986693 72.498965 C 122.996288 72.795413 122.01262 73.085123 121.03569 73.354622 C 120.833566 74.526938 120.287833 75.497131 119.398489 76.251725 C 121.938508 74.94466 124.532426 73.772343 127.186982 72.748251 C 129.841537 71.703946 132.442193 70.673116 134.975474 69.649024 C 135.534683 69.379526 136.120841 69.136978 136.740686 68.914642 Z M 113.826618 104.333419 C 114.581212 104.400793 115.436868 104.421005 116.400324 104.387318 C 117.357042 104.353631 117.909513 104.299731 118.064474 104.232357 C 118.192485 104.232357 118.293547 104.19867 118.360922 104.131295 C 118.765169 103.935909 119.176153 103.720311 119.600613 103.504712 C 120.018335 103.302589 120.395632 103.100465 120.732504 102.898342 C 121.554473 102.48062 122.362967 102.069635 123.151249 101.665388 C 123.946268 101.240929 124.714337 100.829944 125.475669 100.425697 L 125.475669 100.203361 C 124.579588 100.553709 123.656558 100.910794 122.69984 101.261141 C 121.743122 101.598014 120.772929 101.934886 119.802736 102.271759 C 118.846018 102.622106 117.86235 102.985928 116.851733 103.349751 C 115.861328 103.740523 114.85071 104.063921 113.826618 104.333419 Z M 203.657044 103.302589 C 203.030461 103.720311 202.343241 103.720311 201.588647 103.302589 C 200.207469 102.682743 199.277701 101.665388 198.792605 100.250524 C 198.300771 98.842396 197.923474 97.488169 197.653976 96.194578 L 197.047605 92.664154 L 179.072087 60.573678 C 178.789115 60.216593 178.512879 59.839296 178.243381 59.435049 C 177.973883 59.017327 177.697648 58.633292 177.407937 58.276207 C 177.475312 61.793157 177.495524 65.303368 177.461837 68.81358 C 177.42815 72.330529 177.407937 75.840741 177.407937 79.350952 C 177.542686 81.41935 177.630273 83.487747 177.66396 85.556144 C 177.711122 87.624541 177.77176 89.686201 177.839134 91.754599 C 177.906509 92.778691 177.973883 94.031857 178.041258 95.514096 C 178.108632 96.989598 177.946933 98.316875 177.562899 99.495929 C 177.192339 100.654771 176.282783 101.341991 174.840969 101.564326 C 174.221123 102.588419 173.372204 103.282376 172.294212 103.652936 C 171.236433 104.043708 170.118016 104.063921 168.938962 103.733785 C 167.847495 103.444075 166.890777 102.790542 166.068808 101.76645 C 165.779098 97.427532 165.556762 93.095351 165.388326 88.756433 C 165.219889 84.417515 165.064928 80.085334 164.930179 75.746416 C 164.781955 72.236205 164.674156 68.705781 164.606781 65.161882 C 164.539407 61.611245 164.438345 58.087559 164.303596 54.57061 C 164.236222 52.300089 164.182322 50.036306 164.148635 47.765785 C 164.114948 45.481789 164.168847 43.238218 164.303596 41.035072 C 164.990816 40.496076 165.644349 40.192891 166.270932 40.125516 C 166.270932 39.283335 166.547167 38.488316 167.099638 37.733721 C 167.921607 36.702891 168.851375 36.211057 169.875468 36.244745 C 170.913035 36.278432 171.98429 36.655729 173.075757 37.376636 C 174.187436 38.104281 175.184579 38.932987 176.073922 39.87623 C 176.963265 40.799261 177.657223 41.560593 178.142319 42.166964 C 179.921006 44.518334 181.551469 46.923604 183.033708 49.376035 C 184.529422 51.814993 185.957762 54.301112 187.318727 56.841131 C 188.497781 58.842153 189.629672 60.876863 190.721139 62.938523 C 191.832819 65.00692 192.904073 67.109005 193.948378 69.244777 C 194.083127 69.514275 194.150501 69.857885 194.150501 70.275607 L 195.787702 73.475896 C 195.518204 70.855027 195.140907 68.200472 194.65581 65.512229 C 194.184189 62.823987 193.70583 60.176168 193.220733 57.568775 C 192.863648 55.709239 192.520038 53.849703 192.183166 51.996904 C 191.846293 50.137367 191.401622 48.271094 190.849151 46.40482 C 190.55944 45.448102 190.303417 44.471172 190.067607 43.480766 C 189.831796 42.470149 189.98002 41.452794 190.519016 40.428701 C 191.01085 39.606732 191.597008 38.980149 192.284228 38.562428 C 192.284228 38.495053 192.30444 38.461366 192.338127 38.461366 C 192.371815 38.461366 192.385289 38.427679 192.385289 38.360304 C 193.005135 37.187988 193.955115 36.595092 195.235231 36.595092 C 196.508609 36.595092 197.593339 36.905015 198.48942 37.531598 C 198.691543 37.598972 198.934091 37.774146 199.217064 38.057119 C 199.419188 39.013837 199.654998 39.997504 199.924496 41.008122 C 200.207469 41.998527 200.483705 42.975458 200.753203 43.932176 C 201.581909 46.889916 202.269129 49.941981 202.8216 53.081633 C 203.380809 56.20781 203.892855 59.320512 204.357739 62.413002 C 205.402044 68.678831 206.237488 75.018772 206.857333 81.41935 C 207.477178 87.826665 207.989225 94.193556 208.393472 100.526759 C 207.841001 101.288091 207.153781 101.941624 206.325074 102.494095 C 205.503105 103.033091 204.613762 103.302589 203.657044 103.302589 Z M 209.431039 99.495929 C 209.29629 99.495929 209.161541 99.596991 209.026792 99.799114 C 208.332835 89.948962 207.382854 80.125759 206.17685 70.329506 C 204.964109 60.513041 203.293222 50.824587 201.15745 41.264145 C 201.022701 40.839686 201.1305 40.462389 201.487585 40.125516 C 201.757083 39.775169 202.127643 39.61347 202.599264 39.647157 C 203.084361 39.680844 203.360596 39.977292 203.427971 40.529763 C 205.294244 49.47036 206.756271 58.505281 207.814051 67.627789 C 208.892043 76.757034 209.397352 85.899754 209.329977 95.055949 C 209.397352 95.392822 209.444514 96.03288 209.478201 96.976123 C 209.511888 97.899153 209.498414 98.741335 209.431039 99.495929 Z M 164.202534 91.956722 C 163.933036 88.311761 163.724175 84.511839 163.569214 80.563693 C 163.434465 76.595335 163.299716 72.748251 163.164967 69.015703 C 163.030218 65.370743 162.929156 61.692095 162.861782 57.973022 C 162.801145 54.260687 162.73377 50.548352 162.666396 46.829279 C 162.578809 45.939936 162.605759 45.037117 162.740508 44.107349 C 162.888732 43.170844 163.13128 42.288238 163.468152 41.459531 C 163.400778 43.110207 163.387303 44.767619 163.42099 46.43177 C 163.454677 48.075708 163.50184 49.719645 163.569214 51.370321 C 163.656801 54.947907 163.744388 58.532231 163.84545 62.109817 C 163.946511 65.687403 164.034098 69.305414 164.101473 72.950374 L 165.031241 96.194578 C 165.031241 96.194578 164.943654 96.039617 164.755005 95.736432 C 164.586569 95.419772 164.404658 94.159868 164.202534 91.956722 Z M 175.770737 86.890159 L 175.447339 87.193345 C 175.447339 87.193345 175.427127 87.193345 175.39344 87.193345 C 175.359752 87.193345 175.31259 87.227032 175.245216 87.294406 L 175.144154 93.492861 C 175.144154 94.321567 175.292378 95.305235 175.595563 96.443864 C 175.912223 97.569018 175.905486 98.788497 175.568613 100.1023 C 176.262571 98.943458 176.532069 97.771142 176.377107 96.598825 C 176.309733 95.63537 176.262571 94.644965 176.228883 93.620872 C 176.195196 92.576568 176.107609 91.539 175.97286 90.494695 C 175.97286 89.888325 175.959385 89.295429 175.925698 88.709271 C 175.892011 88.116375 175.838111 87.510005 175.770737 86.890159 Z M 256.815528 83.05655 C 256.054196 85.616781 255.057053 88.1029 253.810625 90.521645 C 252.584409 92.926915 250.974158 95.015525 248.973136 96.800949 C 248.771012 96.935698 248.528464 97.144559 248.238753 97.427532 C 247.773869 97.899153 247.113599 98.505524 246.278155 99.246643 C 245.449449 99.967551 244.593793 100.526759 243.704449 100.931006 C 241.366554 102.446932 238.819798 103.120677 236.064181 102.952241 C 233.308563 102.783805 230.667483 102.022473 228.147676 100.68172 C 225.648082 99.33423 223.532523 97.663343 221.82121 95.66232 C 220.089686 93.661297 218.647871 91.431201 217.482292 88.958557 C 216.862447 89.025931 216.242601 88.904657 215.622756 88.608209 C 214.996173 88.284812 214.517814 87.745816 214.180942 86.991221 C 211.627448 80.590643 210.192371 73.900355 209.868973 66.927094 C 209.572525 59.93362 210.172159 53.095108 211.688085 46.40482 C 212.105807 44.68677 212.745865 42.955245 213.601521 41.210246 C 214.457177 39.445034 215.595806 38.036906 217.003933 36.972389 C 218.418798 35.901135 220.15706 35.537312 222.225457 35.894397 C 223.471886 36.022409 224.583565 36.487293 225.580708 37.275575 C 226.584588 38.070594 227.325707 39.047524 227.797329 40.226578 C 228.3498 41.742504 228.403699 43.413392 227.945553 45.245978 C 227.507619 47.058353 227.224646 48.75619 227.089897 50.339491 C 226.941673 52.266402 226.860823 54.220262 226.860823 56.187598 C 226.860823 58.134721 226.907985 60.075107 226.988835 62.008755 C 227.258333 65.990588 227.837754 69.918522 228.727097 73.779081 C 229.61644 77.632903 230.75507 81.412612 232.129509 85.124947 C 232.890841 85.677418 233.658911 86.14904 234.45393 86.539812 C 235.255686 86.910372 236.104605 87.12597 237.000686 87.193345 C 238.994971 86.789098 240.719759 85.967129 242.168311 84.7207 C 242.99028 83.548384 243.536013 82.120045 243.805511 80.435682 C 244.088484 78.758057 244.263658 77.093906 244.331032 75.443231 C 244.398407 73.779081 244.465781 72.364216 244.533156 71.185162 C 244.870028 66.576746 245.038464 61.975068 245.038464 57.366652 C 245.038464 52.751498 245.004777 48.136345 244.937403 43.527929 C 244.870028 41.951365 245.563986 40.745361 247.0058 39.923393 C 248.454352 39.081211 249.828792 39.040787 251.142595 39.795381 L 251.142595 38.764551 C 251.142595 38.225555 251.344718 37.733721 251.748965 37.275575 C 252.166687 36.824165 252.651783 36.628779 253.210992 36.696154 C 254.787555 36.851115 255.939659 37.437273 256.660566 38.461366 C 257.381474 39.485458 257.86657 40.67125 258.095643 42.01874 C 258.351667 43.359492 258.513365 44.68677 258.58074 46.000573 C 258.708751 47.247001 258.8435 48.486692 258.978249 49.73312 C 259.112998 50.959336 259.180373 52.19229 259.180373 53.438718 L 259.180373 57.568775 C 259.402709 61.840319 259.348809 66.125337 259.032149 70.430568 C 258.728964 74.729061 257.987844 78.939968 256.815528 83.05655 Z M 226.6587 46.728217 C 226.395939 46.862966 226.193816 46.788855 226.059067 46.505882 C 225.991692 46.990978 225.877156 47.4626 225.728932 47.914009 C 225.594183 48.351943 225.425746 48.78314 225.223623 49.200862 C 224.805901 52.717811 224.610515 56.228023 224.644202 59.738234 C 224.677889 63.255183 225.041712 66.72497 225.728932 70.154333 C 225.877156 70.841553 226.025379 71.515298 226.160128 72.16883 C 226.294877 72.822363 226.429626 73.462421 226.557638 74.082266 C 226.692387 74.082266 226.793449 74.115953 226.860823 74.183328 C 225.216885 64.959758 225.149511 55.810301 226.6587 46.728217 Z M 226.6587 46.728217 " stroke="#100a09" stroke-width="8.26144" stroke-opacity="1" stroke-miterlimit="4"/><g fill="#b2d12e" fill-opacity="1"><g transform="translate(46.602413, 118.05894)"><g><path d="M 36.640625 -6.109375 C 36.722656 -5.265625 36.710938 -4.421875 36.609375 -3.578125 C 36.515625 -2.742188 36.25 -1.953125 35.8125 -1.203125 C 35.363281 -0.441406 34.671875 0.101562 33.734375 0.4375 C 32.796875 0.78125 31.945312 0.578125 31.1875 -0.171875 C 30.507812 -0.335938 29.929688 -0.6875 29.453125 -1.21875 C 28.972656 -1.757812 28.734375 -2.390625 28.734375 -3.109375 C 28.617188 -8.222656 27.921875 -13.3125 26.640625 -18.375 C 26.359375 -19.65625 26.078125 -20.921875 25.796875 -22.171875 C 25.523438 -23.429688 25.25 -24.679688 24.96875 -25.921875 C 24.25 -23.847656 23.550781 -21.625 22.875 -19.25 C 22.195312 -16.875 21.640625 -14.847656 21.203125 -13.171875 C 20.796875 -11.535156 20.398438 -9.859375 20.015625 -8.140625 C 19.640625 -6.421875 19.332031 -4.925781 19.09375 -3.65625 C 19.0625 -3.53125 19.015625 -3.476562 18.953125 -3.5 C 18.890625 -3.519531 18.859375 -3.550781 18.859375 -3.59375 C 18.816406 -3.3125 18.753906 -3.03125 18.671875 -2.75 C 18.597656 -2.46875 18.519531 -2.171875 18.4375 -1.859375 C 18.28125 -1.453125 18.09375 -1.085938 17.875 -0.765625 C 17.65625 -0.453125 17.304688 -0.238281 16.828125 -0.125 C 16.460938 -0.0390625 16.203125 -0.0546875 16.046875 -0.171875 C 15.679688 -0.171875 15.398438 -0.253906 15.203125 -0.421875 C 14.960938 -0.253906 14.785156 -0.3125 14.671875 -0.59375 C 14.390625 -1.03125 14.175781 -1.46875 14.03125 -1.90625 C 13.894531 -2.351562 13.769531 -2.816406 13.65625 -3.296875 L 11.078125 -12.453125 C 10.796875 -13.453125 10.523438 -14.445312 10.265625 -15.4375 C 10.003906 -16.4375 9.753906 -17.4375 9.515625 -18.4375 C 9.441406 -18.675781 9.363281 -18.914062 9.28125 -19.15625 C 9.195312 -19.394531 9.117188 -19.65625 9.046875 -19.9375 C 9.160156 -17.425781 9.265625 -14.867188 9.359375 -12.265625 C 9.460938 -9.671875 9.535156 -7.117188 9.578125 -4.609375 C 9.617188 -3.734375 9.585938 -2.828125 9.484375 -1.890625 C 9.390625 -0.953125 8.863281 -0.265625 7.90625 0.171875 C 7.46875 0.378906 7.128906 0.34375 6.890625 0.0625 C 6.804688 -0.0195312 6.742188 -0.0976562 6.703125 -0.171875 C 5.867188 0.0976562 5.171875 -0.0390625 4.609375 -0.59375 C 4.085938 -1.15625 3.75 -1.832031 3.59375 -2.625 C 3.4375 -3.425781 3.316406 -4.1875 3.234375 -4.90625 C 2.992188 -6.664062 2.8125 -8.394531 2.6875 -10.09375 C 2.570312 -11.789062 2.492188 -13.492188 2.453125 -15.203125 C 2.335938 -18.753906 2.28125 -22.304688 2.28125 -25.859375 C 2.238281 -27.578125 2.207031 -29.3125 2.1875 -31.0625 C 2.164062 -32.820312 2.316406 -34.5625 2.640625 -36.28125 C 2.671875 -36.445312 2.785156 -36.53125 2.984375 -36.53125 C 3.191406 -36.53125 3.316406 -36.445312 3.359375 -36.28125 C 3.554688 -35.082031 3.671875 -33.8125 3.703125 -32.46875 C 3.742188 -31.132812 3.785156 -29.832031 3.828125 -28.5625 C 3.910156 -28.5625 3.972656 -28.34375 4.015625 -27.90625 C 4.054688 -27.46875 4.09375 -27.25 4.125 -27.25 L 4.125 -28.625 C 4.125 -29.34375 4.113281 -30.050781 4.09375 -30.75 C 4.082031 -31.445312 4.078125 -32.15625 4.078125 -32.875 C 4.035156 -33.46875 4.023438 -34.082031 4.046875 -34.71875 C 4.066406 -35.363281 4.210938 -35.96875 4.484375 -36.53125 C 4.484375 -37.207031 4.828125 -37.742188 5.515625 -38.140625 C 6.472656 -38.734375 7.46875 -38.875 8.5 -38.5625 C 9.695312 -38.320312 10.515625 -37.625 10.953125 -36.46875 C 11.316406 -36.03125 11.535156 -35.488281 11.609375 -34.84375 C 11.691406 -34.125 11.789062 -33.394531 11.90625 -32.65625 C 12.03125 -31.914062 12.15625 -31.171875 12.28125 -30.421875 C 12.789062 -27.347656 13.363281 -24.132812 14 -20.78125 C 14.644531 -17.425781 15.304688 -14.234375 15.984375 -11.203125 C 16.378906 -12.878906 16.753906 -14.550781 17.109375 -16.21875 C 17.472656 -17.894531 17.859375 -19.570312 18.265625 -21.25 C 18.816406 -23.84375 19.390625 -26.425781 19.984375 -29 C 20.585938 -31.582031 21.070312 -34.171875 21.4375 -36.765625 C 21.519531 -37.085938 21.695312 -37.375 21.96875 -37.625 C 22.25 -37.882812 22.550781 -38.035156 22.875 -38.078125 C 23.875 -38.359375 24.75 -38.28125 25.5 -37.84375 C 25.945312 -38.15625 26.445312 -38.3125 27 -38.3125 C 27.5625 -38.3125 28.019531 -38.113281 28.375 -37.71875 C 29.300781 -36.800781 30.039062 -35.765625 30.59375 -34.609375 C 31.15625 -33.453125 31.578125 -32.253906 31.859375 -31.015625 C 32.171875 -29.660156 32.457031 -28.3125 32.71875 -26.96875 C 32.976562 -25.632812 33.226562 -24.289062 33.46875 -22.9375 C 33.550781 -22.414062 33.640625 -21.894531 33.734375 -21.375 C 33.835938 -20.851562 33.910156 -20.332031 33.953125 -19.8125 C 34.066406 -19.375 34.171875 -18.9375 34.265625 -18.5 C 34.367188 -18.0625 34.460938 -17.625 34.546875 -17.1875 C 34.742188 -16.1875 34.929688 -15.207031 35.109375 -14.25 C 35.296875 -13.289062 35.488281 -12.3125 35.6875 -11.3125 C 35.882812 -10.4375 36.070312 -9.566406 36.25 -8.703125 C 36.4375 -7.847656 36.566406 -6.984375 36.640625 -6.109375 Z M 11.796875 -22.390625 C 11.910156 -22.109375 12.007812 -21.859375 12.09375 -21.640625 C 12.175781 -21.421875 12.296875 -21.210938 12.453125 -21.015625 C 12.171875 -22.535156 11.847656 -24.28125 11.484375 -26.25 C 11.128906 -28.226562 10.8125 -29.976562 10.53125 -31.5 C 10.5 -31.9375 10.441406 -32.382812 10.359375 -32.84375 C 10.273438 -33.300781 10.175781 -33.769531 10.0625 -34.25 C 9.820312 -34.09375 9.539062 -33.972656 9.21875 -33.890625 C 9.21875 -33.804688 9.195312 -33.726562 9.15625 -33.65625 C 9.59375 -31.8125 10.019531 -29.988281 10.4375 -28.1875 C 10.863281 -26.394531 11.273438 -24.5625 11.671875 -22.6875 C 11.753906 -22.613281 11.796875 -22.515625 11.796875 -22.390625 Z M 20.890625 -13.296875 C 21.453125 -15.566406 22.050781 -17.835938 22.6875 -20.109375 C 23.332031 -22.390625 24.03125 -24.648438 24.78125 -26.890625 C 24.75 -27.085938 24.710938 -27.285156 24.671875 -27.484375 C 24.628906 -27.679688 24.566406 -27.878906 24.484375 -28.078125 C 23.847656 -26.117188 23.25 -24.128906 22.6875 -22.109375 C 22.132812 -20.097656 21.617188 -18.078125 21.140625 -16.046875 C 21.097656 -15.609375 21.023438 -15.160156 20.921875 -14.703125 C 20.828125 -14.242188 20.738281 -13.796875 20.65625 -13.359375 C 20.695312 -13.316406 20.757812 -13.296875 20.84375 -13.296875 Z M 20.890625 -13.296875 "/></g></g></g><g fill="#b2d12e" fill-opacity="1"><g transform="translate(79.945357, 118.05894)"><g><path d="M 1.375 -31.609375 C 3.375 -32.648438 5.453125 -33.53125 7.609375 -34.25 C 9.765625 -34.96875 11.921875 -35.609375 14.078125 -36.171875 L 15.453125 -36.53125 C 16.679688 -36.769531 17.914062 -37 19.15625 -37.21875 C 20.394531 -37.4375 21.65625 -37.582031 22.9375 -37.65625 C 23.207031 -37.695312 23.472656 -37.71875 23.734375 -37.71875 C 23.992188 -37.71875 24.265625 -37.71875 24.546875 -37.71875 C 23.390625 -37.4375 22.210938 -37.144531 21.015625 -36.84375 C 19.816406 -36.550781 18.640625 -36.265625 17.484375 -35.984375 C 15.453125 -35.546875 13.425781 -35.078125 11.40625 -34.578125 C 9.382812 -34.078125 7.378906 -33.488281 5.390625 -32.8125 C 4.710938 -32.613281 4.039062 -32.382812 3.375 -32.125 C 2.71875 -31.863281 2.050781 -31.570312 1.375 -31.25 C 1.21875 -31.332031 1.21875 -31.453125 1.375 -31.609375 Z M 34.96875 -7.25 C 34.882812 -6.882812 34.6875 -6.679688 34.375 -6.640625 C 32.175781 -6.242188 29.96875 -5.753906 27.75 -5.171875 C 25.53125 -4.597656 23.363281 -3.929688 21.25 -3.171875 C 20.257812 -2.816406 19.253906 -2.457031 18.234375 -2.09375 C 17.210938 -1.738281 16.203125 -1.335938 15.203125 -0.890625 L 15.140625 -0.890625 C 15.109375 -0.859375 15.050781 -0.832031 14.96875 -0.8125 C 14.882812 -0.789062 14.804688 -0.757812 14.734375 -0.71875 C 14.410156 -0.5625 14.078125 -0.421875 13.734375 -0.296875 C 13.398438 -0.179688 13.070312 -0.0390625 12.75 0.125 L 12.6875 0.171875 C 12.445312 0.335938 12 0.539062 11.34375 0.78125 C 10.6875 1.019531 10.066406 1.21875 9.484375 1.375 C 8.910156 1.53125 8.625 1.609375 8.625 1.609375 C 8.625 1.609375 8.550781 1.617188 8.40625 1.640625 C 8.269531 1.660156 8.140625 1.671875 8.015625 1.671875 C 7.546875 1.753906 7.070312 1.753906 6.59375 1.671875 C 6.113281 1.597656 5.753906 1.300781 5.515625 0.78125 C 5.390625 0.539062 5.367188 0.257812 5.453125 -0.0625 C 4.691406 -0.375 4.097656 -0.921875 3.671875 -1.703125 C 3.253906 -2.484375 3.1875 -3.253906 3.46875 -4.015625 C 3.3125 -5.046875 3.179688 -6.085938 3.078125 -7.140625 C 2.984375 -8.203125 2.894531 -9.253906 2.8125 -10.296875 L 2.09375 -17.484375 L 1.375 -24.3125 C 0.613281 -25.144531 0.296875 -26.125 0.421875 -27.25 C 0.535156 -28.363281 1.035156 -29.300781 1.921875 -30.0625 C 1.953125 -30.132812 1.988281 -30.210938 2.03125 -30.296875 C 2.070312 -30.378906 2.113281 -30.457031 2.15625 -30.53125 C 2.789062 -30.8125 3.425781 -31.070312 4.0625 -31.3125 C 4.707031 -31.550781 5.347656 -31.769531 5.984375 -31.96875 C 7.984375 -32.644531 9.988281 -33.234375 12 -33.734375 C 14.019531 -34.234375 16.046875 -34.6875 18.078125 -35.09375 C 19.679688 -35.445312 21.257812 -35.832031 22.8125 -36.25 C 24.363281 -36.675781 25.921875 -37.085938 27.484375 -37.484375 C 27.679688 -37.441406 27.890625 -37.410156 28.109375 -37.390625 C 28.328125 -37.367188 28.519531 -37.320312 28.6875 -37.25 L 29.640625 -36.890625 C 29.796875 -36.765625 29.953125 -36.628906 30.109375 -36.484375 C 30.273438 -36.347656 30.4375 -36.222656 30.59375 -36.109375 C 30.789062 -35.460938 30.929688 -34.832031 31.015625 -34.21875 C 31.097656 -33.601562 31.078125 -32.992188 30.953125 -32.390625 L 27.96875 -31.5 C 27.320312 -31.289062 26.648438 -31.085938 25.953125 -30.890625 C 25.253906 -30.691406 24.566406 -30.492188 23.890625 -30.296875 C 23.734375 -30.210938 23.613281 -30.171875 23.53125 -30.171875 C 22.769531 -29.972656 21.878906 -29.722656 20.859375 -29.421875 C 19.847656 -29.128906 18.832031 -28.832031 17.8125 -28.53125 C 16.789062 -28.226562 15.921875 -27.957031 15.203125 -27.71875 C 14.484375 -27.476562 14.046875 -27.320312 13.890625 -27.25 C 12.929688 -26.925781 11.972656 -26.582031 11.015625 -26.21875 C 10.054688 -25.863281 9.117188 -25.488281 8.203125 -25.09375 L 8.078125 -24.96875 C 8.117188 -24.769531 8.171875 -24.441406 8.234375 -23.984375 C 8.296875 -23.523438 8.351562 -23.09375 8.40625 -22.6875 C 8.46875 -22.289062 8.5 -22.035156 8.5 -21.921875 C 10.175781 -22.628906 11.84375 -23.332031 13.5 -24.03125 C 15.15625 -24.738281 16.84375 -25.410156 18.5625 -26.046875 C 19.519531 -26.285156 20.488281 -26.535156 21.46875 -26.796875 C 22.445312 -27.054688 23.414062 -27.328125 24.375 -27.609375 L 25.140625 -27.78125 C 25.503906 -27.863281 25.851562 -27.914062 26.1875 -27.9375 C 26.53125 -27.957031 26.882812 -27.984375 27.25 -28.015625 C 28 -28.054688 28.710938 -28.003906 29.390625 -27.859375 C 30.078125 -27.722656 30.617188 -27.296875 31.015625 -26.578125 C 31.097656 -26.503906 31.144531 -26.425781 31.15625 -26.34375 C 31.175781 -26.257812 31.207031 -26.179688 31.25 -26.109375 C 31.332031 -25.984375 31.394531 -25.859375 31.4375 -25.734375 C 31.476562 -25.617188 31.515625 -25.503906 31.546875 -25.390625 C 31.585938 -25.347656 31.628906 -25.328125 31.671875 -25.328125 C 32.234375 -25.046875 32.570312 -24.546875 32.6875 -23.828125 C 32.8125 -23.265625 32.722656 -22.691406 32.421875 -22.109375 C 32.117188 -21.535156 31.691406 -21.113281 31.140625 -20.84375 C 30.492188 -20.5625 29.84375 -20.390625 29.1875 -20.328125 C 28.53125 -20.265625 27.863281 -20.15625 27.1875 -20 C 26.46875 -19.875 25.738281 -19.742188 25 -19.609375 C 24.257812 -19.472656 23.53125 -19.300781 22.8125 -19.09375 C 21.375 -18.695312 19.945312 -18.269531 18.53125 -17.8125 C 17.113281 -17.351562 15.707031 -16.820312 14.3125 -16.21875 C 13.4375 -15.863281 12.585938 -15.484375 11.765625 -15.078125 C 10.941406 -14.679688 10.113281 -14.265625 9.28125 -13.828125 L 9.640625 -9.9375 C 9.640625 -9.894531 9.640625 -9.863281 9.640625 -9.84375 C 9.640625 -9.820312 9.640625 -9.773438 9.640625 -9.703125 L 9.8125 -9.8125 C 10.5 -10.132812 11.171875 -10.425781 11.828125 -10.6875 C 12.484375 -10.945312 13.128906 -11.21875 13.765625 -11.5 L 18.859375 -13.46875 C 19.296875 -13.664062 19.742188 -13.84375 20.203125 -14 C 20.660156 -14.164062 21.113281 -14.328125 21.5625 -14.484375 C 22.269531 -14.765625 22.984375 -15.035156 23.703125 -15.296875 C 24.421875 -15.554688 25.140625 -15.804688 25.859375 -16.046875 L 28.203125 -16.765625 C 28.523438 -16.847656 28.84375 -16.957031 29.15625 -17.09375 C 29.476562 -17.226562 29.796875 -17.335938 30.109375 -17.421875 C 31.273438 -17.660156 32.222656 -17.5625 32.953125 -17.125 C 33.691406 -16.6875 34.28125 -16.046875 34.71875 -15.203125 C 35.164062 -14.367188 35.5 -13.453125 35.71875 -12.453125 C 35.9375 -11.453125 36.066406 -10.535156 36.109375 -9.703125 C 36.148438 -9.179688 36.054688 -8.707031 35.828125 -8.28125 C 35.609375 -7.863281 35.320312 -7.519531 34.96875 -7.25 Z M 20.484375 -19.9375 C 19.554688 -19.65625 18.625 -19.375 17.6875 -19.09375 C 16.75 -18.820312 15.820312 -18.523438 14.90625 -18.203125 C 14.3125 -18.046875 13.722656 -17.875 13.140625 -17.6875 C 12.566406 -17.507812 12 -17.34375 11.4375 -17.1875 C 11.3125 -16.507812 10.992188 -15.945312 10.484375 -15.5 C 11.953125 -16.257812 13.453125 -16.9375 14.984375 -17.53125 C 16.523438 -18.132812 18.035156 -18.738281 19.515625 -19.34375 C 19.835938 -19.5 20.175781 -19.640625 20.53125 -19.765625 Z M 7.25 0.78125 C 7.6875 0.820312 8.179688 0.832031 8.734375 0.8125 C 9.296875 0.789062 9.617188 0.757812 9.703125 0.71875 C 9.773438 0.71875 9.832031 0.695312 9.875 0.65625 C 10.113281 0.539062 10.351562 0.421875 10.59375 0.296875 C 10.832031 0.179688 11.050781 0.0625 11.25 -0.0625 C 11.726562 -0.300781 12.195312 -0.539062 12.65625 -0.78125 C 13.125 -1.019531 13.578125 -1.257812 14.015625 -1.5 L 14.015625 -1.609375 C 13.492188 -1.410156 12.953125 -1.210938 12.390625 -1.015625 C 11.835938 -0.816406 11.28125 -0.617188 10.71875 -0.421875 C 10.15625 -0.222656 9.582031 -0.015625 9 0.203125 C 8.425781 0.421875 7.84375 0.613281 7.25 0.78125 Z M 7.25 0.78125 "/></g></g></g><g fill="#b2d12e" fill-opacity="1"><g transform="translate(113.288302, 118.05894)"><g><path d="M 25.984375 0.171875 C 25.628906 0.410156 25.226562 0.410156 24.78125 0.171875 C 23.988281 -0.179688 23.453125 -0.765625 23.171875 -1.578125 C 22.890625 -2.398438 22.671875 -3.191406 22.515625 -3.953125 L 22.15625 -5.984375 L 11.734375 -24.609375 C 11.578125 -24.804688 11.414062 -25.023438 11.25 -25.265625 C 11.09375 -25.503906 10.9375 -25.722656 10.78125 -25.921875 C 10.820312 -23.890625 10.832031 -21.851562 10.8125 -19.8125 C 10.789062 -17.78125 10.78125 -15.75 10.78125 -13.71875 C 10.851562 -12.519531 10.898438 -11.320312 10.921875 -10.125 C 10.941406 -8.925781 10.972656 -7.726562 11.015625 -6.53125 C 11.054688 -5.925781 11.097656 -5.191406 11.140625 -4.328125 C 11.179688 -3.472656 11.085938 -2.707031 10.859375 -2.03125 C 10.640625 -1.351562 10.113281 -0.957031 9.28125 -0.84375 C 8.914062 -0.238281 8.425781 0.171875 7.8125 0.390625 C 7.195312 0.609375 6.550781 0.617188 5.875 0.421875 C 5.226562 0.253906 4.664062 -0.125 4.1875 -0.71875 C 4.03125 -3.226562 3.898438 -5.738281 3.796875 -8.25 C 3.703125 -10.769531 3.613281 -13.289062 3.53125 -15.8125 C 3.445312 -17.84375 3.382812 -19.882812 3.34375 -21.9375 C 3.3125 -24 3.253906 -26.046875 3.171875 -28.078125 C 3.128906 -29.398438 3.097656 -30.71875 3.078125 -32.03125 C 3.054688 -33.351562 3.085938 -34.648438 3.171875 -35.921875 C 3.566406 -36.242188 3.945312 -36.425781 4.3125 -36.46875 C 4.3125 -36.945312 4.472656 -37.40625 4.796875 -37.84375 C 5.273438 -38.4375 5.8125 -38.722656 6.40625 -38.703125 C 7.007812 -38.679688 7.628906 -38.460938 8.265625 -38.046875 C 8.898438 -37.628906 9.476562 -37.148438 10 -36.609375 C 10.519531 -36.078125 10.921875 -35.628906 11.203125 -35.265625 C 12.234375 -33.910156 13.175781 -32.523438 14.03125 -31.109375 C 14.894531 -29.691406 15.726562 -28.242188 16.53125 -26.765625 C 17.207031 -25.609375 17.863281 -24.429688 18.5 -23.234375 C 19.132812 -22.035156 19.753906 -20.816406 20.359375 -19.578125 C 20.441406 -19.421875 20.484375 -19.222656 20.484375 -18.984375 L 21.4375 -17.125 C 21.28125 -18.644531 21.0625 -20.179688 20.78125 -21.734375 C 20.5 -23.285156 20.21875 -24.820312 19.9375 -26.34375 C 19.738281 -27.425781 19.539062 -28.503906 19.34375 -29.578125 C 19.144531 -30.648438 18.882812 -31.726562 18.5625 -32.8125 C 18.40625 -33.375 18.253906 -33.941406 18.109375 -34.515625 C 17.972656 -35.097656 18.0625 -35.6875 18.375 -36.28125 C 18.65625 -36.757812 19 -37.117188 19.40625 -37.359375 C 19.40625 -37.398438 19.410156 -37.421875 19.421875 -37.421875 C 19.441406 -37.421875 19.453125 -37.441406 19.453125 -37.484375 C 19.816406 -38.160156 20.367188 -38.5 21.109375 -38.5 C 21.847656 -38.5 22.472656 -38.316406 22.984375 -37.953125 C 23.109375 -37.921875 23.25 -37.820312 23.40625 -37.65625 C 23.53125 -37.101562 23.671875 -36.535156 23.828125 -35.953125 C 23.984375 -35.378906 24.144531 -34.8125 24.3125 -34.25 C 24.789062 -32.53125 25.1875 -30.757812 25.5 -28.9375 C 25.820312 -27.125 26.125 -25.320312 26.40625 -23.53125 C 27 -19.894531 27.472656 -16.222656 27.828125 -12.515625 C 28.191406 -8.804688 28.492188 -5.113281 28.734375 -1.4375 C 28.421875 -1 28.023438 -0.617188 27.546875 -0.296875 C 27.066406 0.015625 26.546875 0.171875 25.984375 0.171875 Z M 29.34375 -2.03125 C 29.257812 -2.03125 29.175781 -1.972656 29.09375 -1.859375 C 28.695312 -7.566406 28.148438 -13.265625 27.453125 -18.953125 C 26.753906 -24.640625 25.785156 -30.257812 24.546875 -35.8125 C 24.460938 -36.050781 24.523438 -36.269531 24.734375 -36.46875 C 24.890625 -36.664062 25.109375 -36.753906 25.390625 -36.734375 C 25.671875 -36.710938 25.828125 -36.539062 25.859375 -36.21875 C 26.941406 -31.03125 27.789062 -25.789062 28.40625 -20.5 C 29.03125 -15.21875 29.320312 -9.921875 29.28125 -4.609375 C 29.320312 -4.410156 29.351562 -4.039062 29.375 -3.5 C 29.394531 -2.957031 29.382812 -2.46875 29.34375 -2.03125 Z M 3.109375 -6.40625 C 2.953125 -8.519531 2.832031 -10.722656 2.75 -13.015625 C 2.675781 -15.316406 2.597656 -17.546875 2.515625 -19.703125 C 2.429688 -21.816406 2.367188 -23.953125 2.328125 -26.109375 C 2.296875 -28.265625 2.257812 -30.421875 2.21875 -32.578125 C 2.175781 -33.085938 2.191406 -33.613281 2.265625 -34.15625 C 2.347656 -34.695312 2.488281 -35.207031 2.6875 -35.6875 C 2.65625 -34.726562 2.644531 -33.769531 2.65625 -32.8125 C 2.675781 -31.851562 2.707031 -30.894531 2.75 -29.9375 C 2.789062 -27.863281 2.84375 -25.785156 2.90625 -23.703125 C 2.96875 -21.628906 3.015625 -19.535156 3.046875 -17.421875 L 3.59375 -3.953125 C 3.59375 -3.953125 3.539062 -4.039062 3.4375 -4.21875 C 3.34375 -4.394531 3.234375 -5.125 3.109375 -6.40625 Z M 9.8125 -9.34375 L 9.640625 -9.15625 C 9.640625 -9.15625 9.628906 -9.15625 9.609375 -9.15625 C 9.585938 -9.15625 9.554688 -9.132812 9.515625 -9.09375 L 9.453125 -5.515625 C 9.453125 -5.035156 9.539062 -4.460938 9.71875 -3.796875 C 9.90625 -3.140625 9.898438 -2.429688 9.703125 -1.671875 C 10.097656 -2.347656 10.253906 -3.03125 10.171875 -3.71875 C 10.140625 -4.269531 10.113281 -4.84375 10.09375 -5.4375 C 10.070312 -6.039062 10.019531 -6.644531 9.9375 -7.25 C 9.9375 -7.601562 9.925781 -7.945312 9.90625 -8.28125 C 9.882812 -8.625 9.851562 -8.976562 9.8125 -9.34375 Z M 9.8125 -9.34375 "/></g></g></g><g fill="#b2d12e" fill-opacity="1"><g transform="translate(141.243626, 118.05894)"><g><path d="M 28.859375 -11.5625 C 28.421875 -10.082031 27.84375 -8.644531 27.125 -7.25 C 26.40625 -5.851562 25.46875 -4.632812 24.3125 -3.59375 C 24.1875 -3.507812 24.046875 -3.390625 23.890625 -3.234375 C 23.609375 -2.953125 23.226562 -2.601562 22.75 -2.1875 C 22.269531 -1.769531 21.769531 -1.441406 21.25 -1.203125 C 19.894531 -0.316406 18.421875 0.078125 16.828125 -0.015625 C 15.234375 -0.117188 13.707031 -0.5625 12.25 -1.34375 C 10.789062 -2.125 9.5625 -3.09375 8.5625 -4.25 C 7.5625 -5.40625 6.722656 -6.703125 6.046875 -8.140625 C 5.691406 -8.097656 5.332031 -8.164062 4.96875 -8.34375 C 4.613281 -8.53125 4.332031 -8.84375 4.125 -9.28125 C 2.65625 -12.988281 1.828125 -16.867188 1.640625 -20.921875 C 1.460938 -24.972656 1.8125 -28.9375 2.6875 -32.8125 C 2.925781 -33.8125 3.296875 -34.816406 3.796875 -35.828125 C 4.296875 -36.847656 4.953125 -37.664062 5.765625 -38.28125 C 6.585938 -38.90625 7.597656 -39.117188 8.796875 -38.921875 C 9.515625 -38.835938 10.160156 -38.566406 10.734375 -38.109375 C 11.316406 -37.648438 11.75 -37.082031 12.03125 -36.40625 C 12.351562 -35.53125 12.382812 -34.5625 12.125 -33.5 C 11.863281 -32.4375 11.691406 -31.445312 11.609375 -30.53125 C 11.535156 -29.414062 11.5 -28.289062 11.5 -27.15625 C 11.5 -26.019531 11.519531 -24.890625 11.5625 -23.765625 C 11.71875 -21.453125 12.054688 -19.175781 12.578125 -16.9375 C 13.097656 -14.707031 13.753906 -12.515625 14.546875 -10.359375 C 14.984375 -10.035156 15.429688 -9.765625 15.890625 -9.546875 C 16.347656 -9.328125 16.835938 -9.195312 17.359375 -9.15625 C 18.515625 -9.394531 19.515625 -9.875 20.359375 -10.59375 C 20.835938 -11.269531 21.15625 -12.097656 21.3125 -13.078125 C 21.476562 -14.054688 21.578125 -15.023438 21.609375 -15.984375 C 21.648438 -16.941406 21.691406 -17.757812 21.734375 -18.4375 C 21.929688 -21.113281 22.03125 -23.785156 22.03125 -26.453125 C 22.03125 -29.128906 22.007812 -31.804688 21.96875 -34.484375 C 21.9375 -35.398438 22.335938 -36.097656 23.171875 -36.578125 C 24.003906 -37.054688 24.800781 -37.078125 25.5625 -36.640625 L 25.5625 -37.25 C 25.5625 -37.5625 25.679688 -37.847656 25.921875 -38.109375 C 26.160156 -38.367188 26.441406 -38.476562 26.765625 -38.4375 C 27.679688 -38.351562 28.347656 -38.015625 28.765625 -37.421875 C 29.191406 -36.828125 29.472656 -36.140625 29.609375 -35.359375 C 29.742188 -34.578125 29.832031 -33.804688 29.875 -33.046875 C 29.957031 -32.328125 30.035156 -31.609375 30.109375 -30.890625 C 30.191406 -30.171875 30.234375 -29.453125 30.234375 -28.734375 L 30.234375 -26.34375 C 30.359375 -23.863281 30.328125 -21.375 30.140625 -18.875 C 29.960938 -16.382812 29.535156 -13.945312 28.859375 -11.5625 Z M 11.375 -32.625 C 11.21875 -32.550781 11.097656 -32.59375 11.015625 -32.75 C 10.972656 -32.46875 10.910156 -32.195312 10.828125 -31.9375 C 10.753906 -31.675781 10.65625 -31.425781 10.53125 -31.1875 C 10.289062 -29.15625 10.179688 -27.117188 10.203125 -25.078125 C 10.222656 -23.046875 10.4375 -21.035156 10.84375 -19.046875 C 10.914062 -18.640625 10.992188 -18.242188 11.078125 -17.859375 C 11.160156 -17.484375 11.238281 -17.117188 11.3125 -16.765625 C 11.394531 -16.765625 11.457031 -16.742188 11.5 -16.703125 C 10.539062 -22.054688 10.5 -27.363281 11.375 -32.625 Z M 11.375 -32.625 "/></g></g></g><g fill="#000000" fill-opacity="1"><g transform="translate(48.673014, 150.87702)"><g><path d="M 2.640625 0 L 2.640625 -29.875 L 11.390625 -29.875 L 18.53125 -18.3125 L 25.65625 -29.875 L 34.40625 -29.875 L 34.40625 0 L 26.171875 0 L 26.171875 -17.15625 L 18.53125 -5.46875 L 18.359375 -5.46875 L 10.75 -17.125 L 10.75 0 Z M 2.640625 0 "/></g></g></g><g fill="#000000" fill-opacity="1"><g transform="translate(85.717511, 150.87702)"><g><path d="M 0.296875 0 L 12.984375 -30.09375 L 20.953125 -30.09375 L 33.6875 0 L 24.796875 0 L 22.671875 -5.375 L 11.09375 -5.375 L 8.96875 0 Z M 13.53125 -11.828125 L 20.234375 -11.828125 L 16.90625 -20.28125 Z M 13.53125 -11.828125 "/></g></g></g><g fill="#000000" fill-opacity="1"><g transform="translate(119.646514, 150.87702)"><g><path d="M 2.640625 0 L 2.640625 -29.875 L 15.5 -29.875 C 19.226562 -29.875 22.222656 -28.945312 24.484375 -27.09375 C 26.742188 -25.25 27.875 -22.691406 27.875 -19.421875 L 27.875 -19.34375 C 27.875 -17.570312 27.550781 -16.007812 26.90625 -14.65625 C 26.269531 -13.3125 25.378906 -12.191406 24.234375 -11.296875 C 23.097656 -10.398438 21.75 -9.710938 20.1875 -9.234375 C 18.625 -8.765625 16.914062 -8.53125 15.0625 -8.53125 L 10.921875 -8.53125 L 10.921875 0 Z M 10.921875 -15.03125 L 14.890625 -15.03125 C 16.347656 -15.03125 17.503906 -15.390625 18.359375 -16.109375 C 19.210938 -16.835938 19.640625 -17.785156 19.640625 -18.953125 L 19.640625 -19.03125 C 19.640625 -20.3125 19.203125 -21.28125 18.328125 -21.9375 C 17.460938 -22.59375 16.304688 -22.921875 14.859375 -22.921875 L 10.921875 -22.921875 Z M 10.921875 -15.03125 "/></g></g></g><g fill="#000000" fill-opacity="1"><g transform="translate(148.368804, 150.87702)"><g><path d="M 14.390625 0.515625 C 11.742188 0.515625 9.207031 0.0976562 6.78125 -0.734375 C 4.363281 -1.578125 2.234375 -2.8125 0.390625 -4.4375 L 5 -9.953125 C 6.476562 -8.785156 8.035156 -7.894531 9.671875 -7.28125 C 11.304688 -6.664062 12.976562 -6.359375 14.6875 -6.359375 C 15.820312 -6.359375 16.679688 -6.539062 17.265625 -6.90625 C 17.847656 -7.28125 18.140625 -7.78125 18.140625 -8.40625 L 18.140625 -8.5 C 18.140625 -9.125 17.804688 -9.640625 17.140625 -10.046875 C 16.472656 -10.460938 15.113281 -10.910156 13.0625 -11.390625 C 11.46875 -11.765625 9.976562 -12.171875 8.59375 -12.609375 C 7.21875 -13.054688 6.03125 -13.628906 5.03125 -14.328125 C 4.039062 -15.023438 3.253906 -15.890625 2.671875 -16.921875 C 2.085938 -17.960938 1.796875 -19.238281 1.796875 -20.75 L 1.796875 -20.828125 C 1.796875 -22.222656 2.066406 -23.503906 2.609375 -24.671875 C 3.148438 -25.835938 3.910156 -26.835938 4.890625 -27.671875 C 5.867188 -28.515625 7.078125 -29.175781 8.515625 -29.65625 C 9.953125 -30.144531 11.566406 -30.390625 13.359375 -30.390625 C 15.890625 -30.390625 18.164062 -30.054688 20.1875 -29.390625 C 22.207031 -28.722656 24.03125 -27.734375 25.65625 -26.421875 L 21.515625 -20.578125 C 20.148438 -21.546875 18.738281 -22.273438 17.28125 -22.765625 C 15.832031 -23.265625 14.453125 -23.515625 13.140625 -23.515625 C 12.148438 -23.515625 11.40625 -23.328125 10.90625 -22.953125 C 10.40625 -22.585938 10.15625 -22.132812 10.15625 -21.59375 L 10.15625 -21.515625 C 10.15625 -20.828125 10.503906 -20.285156 11.203125 -19.890625 C 11.898438 -19.492188 13.289062 -19.066406 15.375 -18.609375 C 18.757812 -17.867188 21.453125 -16.828125 23.453125 -15.484375 C 25.460938 -14.148438 26.46875 -12.09375 26.46875 -9.3125 L 26.46875 -9.21875 C 26.46875 -7.707031 26.175781 -6.347656 25.59375 -5.140625 C 25.007812 -3.929688 24.191406 -2.90625 23.140625 -2.0625 C 22.085938 -1.226562 20.8125 -0.585938 19.3125 -0.140625 C 17.820312 0.296875 16.179688 0.515625 14.390625 0.515625 Z M 14.390625 0.515625 "/></g></g></g><g fill="#ffffff" fill-opacity="1"><g transform="translate(41.631413, 104.512413)"><g><path d="M -0.28125 -0.0625 L -1.0625 3.203125 L -3.6875 2.578125 L -3.5 1.796875 L -1.796875 2.203125 L -1.65625 1.640625 L -3.1875 1.265625 L -3.015625 0.515625 L -1.484375 0.890625 L -1.203125 -0.28125 Z M -0.28125 -0.0625 "/></g></g></g><g fill="#ffffff" fill-opacity="1"><g transform="translate(38.277051, 103.663672)"><g><path d="M -0.3125 -0.109375 L -1.375 3.078125 L -2.25 2.796875 L -1.1875 -0.390625 Z M -0.3125 -0.109375 "/></g></g></g><g fill="#ffffff" fill-opacity="1"><g transform="translate(36.452768, 103.099486)"><g><path d="M -0.265625 -0.125 L -1.625 2.953125 L -2.4375 2.609375 L -2.96875 0.40625 L -3.6875 2.046875 L -4.53125 1.671875 L -3.171875 -1.40625 L -2.421875 -1.078125 L -1.859375 1.1875 L -1.109375 -0.5 Z M -0.265625 -0.125 "/></g></g></g><g fill="#ffffff" fill-opacity="1"><g transform="translate(32.75804, 101.437657)"><g><path d="M -0.25 -0.15625 L -2 2.71875 L -3.109375 2.046875 C -3.367188 1.890625 -3.570312 1.710938 -3.71875 1.515625 C -3.875 1.328125 -3.984375 1.125 -4.046875 0.90625 C -4.117188 0.695312 -4.140625 0.484375 -4.109375 0.265625 C -4.078125 0.0546875 -4 -0.148438 -3.875 -0.359375 L -3.859375 -0.375 C -3.734375 -0.570312 -3.578125 -0.738281 -3.390625 -0.875 C -3.210938 -1.019531 -3.015625 -1.109375 -2.796875 -1.140625 C -2.578125 -1.179688 -2.34375 -1.175781 -2.09375 -1.125 C -1.851562 -1.082031 -1.601562 -0.976562 -1.34375 -0.8125 Z M -2.6875 1.328125 L -2.375 1.515625 L -1.5 0.0625 L -1.8125 -0.125 C -2.050781 -0.28125 -2.273438 -0.335938 -2.484375 -0.296875 C -2.703125 -0.253906 -2.882812 -0.117188 -3.03125 0.109375 L -3.03125 0.125 C -3.175781 0.363281 -3.210938 0.582031 -3.140625 0.78125 C -3.078125 0.988281 -2.925781 1.171875 -2.6875 1.328125 Z M -2.6875 1.328125 "/></g></g></g><g fill="#ffffff" fill-opacity="1"><g transform="translate(29.361323, 99.293949)"><g/></g></g><g fill="#ffffff" fill-opacity="1"><g transform="translate(27.993663, 98.310596)"><g><path d="M -0.84375 -0.75 L -2.53125 1.15625 L -1.765625 1.828125 L -2.296875 2.4375 L -4.515625 0.5 L -3.984375 -0.109375 L -3.21875 0.546875 L -1.53125 -1.359375 Z M -0.84375 -0.75 "/></g></g></g><g fill="#ffffff" fill-opacity="1"><g transform="translate(25.393541, 96.016957)"><g><path d="M -0.203125 -0.21875 L -2.703125 2.015625 L -3.328125 1.3125 L -2.390625 0.46875 L -3.171875 -0.421875 L -4.109375 0.421875 L -4.734375 -0.265625 L -2.234375 -2.5 L -1.609375 -1.8125 L -2.5625 -0.953125 L -1.78125 -0.0625 L -0.828125 -0.921875 Z M -0.203125 -0.21875 "/></g></g></g><g fill="#ffffff" fill-opacity="1"><g transform="translate(22.784423, 93.051904)"><g><path d="M -0.171875 -0.25 L -2.921875 1.671875 L -4.46875 -0.53125 L -3.828125 -0.984375 L -2.8125 0.46875 L -2.390625 0.1875 L -3.3125 -1.125 L -2.71875 -1.546875 L -1.796875 -0.234375 L -1.359375 -0.546875 L -2.390625 -2.015625 L -1.734375 -2.46875 Z M -0.171875 -0.25 "/></g></g></g><g fill="#ffffff" fill-opacity="1"><g transform="translate(20.789895, 90.105695)"><g/></g></g><g fill="#ffffff" fill-opacity="1"><g transform="translate(19.923675, 88.662784)"><g><path d="M -0.125 -0.265625 L -3.15625 1.171875 L -3.765625 -0.125 C -3.953125 -0.507812 -4.003906 -0.859375 -3.921875 -1.171875 C -3.835938 -1.492188 -3.632812 -1.734375 -3.3125 -1.890625 L -3.296875 -1.90625 C -3.117188 -1.988281 -2.945312 -2.03125 -2.78125 -2.03125 C -2.613281 -2.03125 -2.457031 -1.992188 -2.3125 -1.921875 C -2.164062 -1.847656 -2.03125 -1.742188 -1.90625 -1.609375 C -1.78125 -1.472656 -1.671875 -1.3125 -1.578125 -1.125 L -1.390625 -0.703125 L -0.53125 -1.109375 Z M -2.0625 -0.390625 L -2.25 -0.796875 C -2.3125 -0.941406 -2.398438 -1.039062 -2.515625 -1.09375 C -2.628906 -1.144531 -2.742188 -1.144531 -2.859375 -1.09375 L -2.875 -1.09375 C -3.007812 -1.03125 -3.085938 -0.9375 -3.109375 -0.8125 C -3.128906 -0.6875 -3.109375 -0.554688 -3.046875 -0.421875 L -2.859375 -0.015625 Z M -2.0625 -0.390625 "/></g></g></g><g fill="#ffffff" fill-opacity="1"><g transform="translate(18.420932, 85.47337)"><g><path d="M -0.015625 -0.03125 L -3.65625 -0.328125 L -3.9375 -1.1875 L -1.1875 -3.59375 L -0.875 -2.640625 L -1.375 -2.234375 L -0.96875 -1 L -0.3125 -0.953125 Z M -1.734375 -1.015625 L -1.984375 -1.75 L -2.765625 -1.09375 Z M -1.734375 -1.015625 "/></g></g></g><g fill="#ffffff" fill-opacity="1"><g transform="translate(17.171811, 81.556188)"><g><path d="M -0.21875 -1.109375 L -2.71875 -0.609375 L -2.515625 0.390625 L -3.3125 0.546875 L -3.890625 -2.34375 L -3.09375 -2.5 L -2.890625 -1.5 L -0.390625 -2 Z M -0.21875 -1.109375 "/></g></g></g><g fill="#ffffff" fill-opacity="1"><g transform="translate(16.501938, 78.153465)"><g><path d="M -0.015625 -0.296875 L -3.359375 -0.046875 L -3.4375 -0.984375 L -2.1875 -1.078125 L -2.28125 -2.265625 L -3.53125 -2.171875 L -3.59375 -3.09375 L -0.25 -3.34375 L -0.1875 -2.421875 L -1.46875 -2.328125 L -1.375 -1.140625 L -0.09375 -1.234375 Z M -0.015625 -0.296875 "/></g></g></g><g fill="#ffffff" fill-opacity="1"><g transform="translate(16.265591, 74.168713)"><g/></g></g><g fill="#ffffff" fill-opacity="1"><g transform="translate(16.266893, 72.484628)"><g><path d="M 0.109375 -1.125 L -2.421875 -1.375 L -2.515625 -0.359375 L -3.328125 -0.4375 L -3.046875 -3.375 L -2.234375 -3.296875 L -2.328125 -2.28125 L 0.203125 -2.03125 Z M 0.109375 -1.125 "/></g></g></g><g fill="#ffffff" fill-opacity="1"><g transform="translate(16.602469, 69.039377)"><g><path d="M 0.5 -1.921875 C 0.445312 -1.671875 0.347656 -1.445312 0.203125 -1.25 C 0.0664062 -1.0625 -0.09375 -0.90625 -0.28125 -0.78125 C -0.46875 -0.65625 -0.671875 -0.570312 -0.890625 -0.53125 C -1.117188 -0.5 -1.347656 -0.507812 -1.578125 -0.5625 C -1.816406 -0.613281 -2.03125 -0.707031 -2.21875 -0.84375 C -2.40625 -0.976562 -2.5625 -1.140625 -2.6875 -1.328125 C -2.8125 -1.523438 -2.890625 -1.738281 -2.921875 -1.96875 C -2.960938 -2.207031 -2.957031 -2.457031 -2.90625 -2.71875 C -2.84375 -2.96875 -2.742188 -3.1875 -2.609375 -3.375 C -2.472656 -3.570312 -2.3125 -3.726562 -2.125 -3.84375 C -1.9375 -3.96875 -1.726562 -4.050781 -1.5 -4.09375 C -1.269531 -4.132812 -1.035156 -4.128906 -0.796875 -4.078125 L -0.78125 -4.078125 C -0.550781 -4.023438 -0.34375 -3.929688 -0.15625 -3.796875 C 0.0195312 -3.660156 0.164062 -3.492188 0.28125 -3.296875 C 0.40625 -3.109375 0.488281 -2.894531 0.53125 -2.65625 C 0.570312 -2.414062 0.5625 -2.171875 0.5 -1.921875 Z M -0.3125 -2.125 C -0.28125 -2.25 -0.28125 -2.363281 -0.3125 -2.46875 C -0.34375 -2.582031 -0.382812 -2.679688 -0.4375 -2.765625 C -0.488281 -2.859375 -0.566406 -2.9375 -0.671875 -3 C -0.773438 -3.0625 -0.882812 -3.109375 -1 -3.140625 C -1.125 -3.160156 -1.242188 -3.164062 -1.359375 -3.15625 C -1.472656 -3.144531 -1.578125 -3.113281 -1.671875 -3.0625 C -1.773438 -3.007812 -1.859375 -2.9375 -1.921875 -2.84375 C -1.992188 -2.757812 -2.046875 -2.648438 -2.078125 -2.515625 C -2.109375 -2.390625 -2.109375 -2.269531 -2.078125 -2.15625 C -2.054688 -2.050781 -2.015625 -1.953125 -1.953125 -1.859375 C -1.890625 -1.765625 -1.8125 -1.6875 -1.71875 -1.625 C -1.625 -1.5625 -1.515625 -1.515625 -1.390625 -1.484375 L -1.375 -1.484375 C -1.269531 -1.453125 -1.15625 -1.445312 -1.03125 -1.46875 C -0.914062 -1.488281 -0.8125 -1.523438 -0.71875 -1.578125 C -0.625 -1.628906 -0.535156 -1.703125 -0.453125 -1.796875 C -0.378906 -1.890625 -0.332031 -2 -0.3125 -2.125 Z M -0.3125 -2.125 "/></g></g></g><g fill="#ffffff" fill-opacity="1"><g transform="translate(17.636675, 64.845536)"><g/></g></g><g fill="#ffffff" fill-opacity="1"><g transform="translate(18.134275, 63.243555)"><g><path d="M 0.5 -1.15625 L -0.640625 -1.65625 L -3.078125 -1.3125 L -2.65625 -2.28125 L -1.28125 -2.4375 L -2.109375 -3.5625 L -1.6875 -4.53125 L -0.28125 -2.515625 L 0.875 -2.015625 Z M 0.5 -1.15625 "/></g></g></g><g fill="#ffffff" fill-opacity="1"><g transform="translate(19.627723, 59.795813)"><g><path d="M 1.0625 -1.671875 C 0.9375 -1.453125 0.78125 -1.269531 0.59375 -1.125 C 0.40625 -0.988281 0.203125 -0.890625 -0.015625 -0.828125 C -0.234375 -0.765625 -0.457031 -0.75 -0.6875 -0.78125 C -0.914062 -0.8125 -1.132812 -0.890625 -1.34375 -1.015625 C -1.550781 -1.140625 -1.722656 -1.296875 -1.859375 -1.484375 C -1.992188 -1.679688 -2.085938 -1.882812 -2.140625 -2.09375 C -2.203125 -2.3125 -2.210938 -2.535156 -2.171875 -2.765625 C -2.128906 -3.003906 -2.039062 -3.238281 -1.90625 -3.46875 C -1.78125 -3.6875 -1.625 -3.863281 -1.4375 -4 C -1.25 -4.144531 -1.046875 -4.25 -0.828125 -4.3125 C -0.609375 -4.375 -0.382812 -4.390625 -0.15625 -4.359375 C 0.0625 -4.328125 0.273438 -4.25 0.484375 -4.125 L 0.5 -4.125 C 0.707031 -4 0.878906 -3.84375 1.015625 -3.65625 C 1.148438 -3.476562 1.242188 -3.273438 1.296875 -3.046875 C 1.359375 -2.828125 1.367188 -2.597656 1.328125 -2.359375 C 1.285156 -2.128906 1.195312 -1.898438 1.0625 -1.671875 Z M 0.375 -2.109375 C 0.4375 -2.210938 0.46875 -2.320312 0.46875 -2.4375 C 0.476562 -2.550781 0.46875 -2.660156 0.4375 -2.765625 C 0.40625 -2.867188 0.351562 -2.96875 0.28125 -3.0625 C 0.207031 -3.15625 0.117188 -3.234375 0.015625 -3.296875 C -0.0859375 -3.359375 -0.195312 -3.398438 -0.3125 -3.421875 C -0.425781 -3.441406 -0.535156 -3.441406 -0.640625 -3.421875 C -0.753906 -3.398438 -0.859375 -3.351562 -0.953125 -3.28125 C -1.046875 -3.21875 -1.128906 -3.128906 -1.203125 -3.015625 C -1.265625 -2.910156 -1.300781 -2.800781 -1.3125 -2.6875 C -1.320312 -2.582031 -1.3125 -2.476562 -1.28125 -2.375 C -1.257812 -2.269531 -1.210938 -2.171875 -1.140625 -2.078125 C -1.066406 -1.984375 -0.976562 -1.90625 -0.875 -1.84375 L -0.859375 -1.84375 C -0.753906 -1.78125 -0.644531 -1.738281 -0.53125 -1.71875 C -0.414062 -1.695312 -0.300781 -1.695312 -0.1875 -1.71875 C -0.0820312 -1.738281 0.015625 -1.78125 0.109375 -1.84375 C 0.210938 -1.914062 0.300781 -2.003906 0.375 -2.109375 Z M 0.375 -2.109375 "/></g></g></g><g fill="#ffffff" fill-opacity="1"><g transform="translate(21.840043, 56.143486)"><g><path d="M 1.171875 -1.390625 C 0.867188 -1.015625 0.535156 -0.789062 0.171875 -0.71875 C -0.191406 -0.65625 -0.578125 -0.785156 -0.984375 -1.109375 L -2.46875 -2.28125 L -1.890625 -3.015625 L -0.40625 -1.859375 C -0.21875 -1.710938 -0.046875 -1.648438 0.109375 -1.671875 C 0.265625 -1.691406 0.398438 -1.769531 0.515625 -1.90625 C 0.628906 -2.050781 0.675781 -2.203125 0.65625 -2.359375 C 0.644531 -2.523438 0.546875 -2.675781 0.359375 -2.8125 L -1.125 -3.984375 L -0.546875 -4.71875 L 0.921875 -3.578125 C 1.128906 -3.398438 1.285156 -3.222656 1.390625 -3.046875 C 1.503906 -2.867188 1.566406 -2.6875 1.578125 -2.5 C 1.597656 -2.320312 1.570312 -2.132812 1.5 -1.9375 C 1.425781 -1.75 1.316406 -1.566406 1.171875 -1.390625 Z M 1.171875 -1.390625 "/></g></g></g><g fill="#ffffff" fill-opacity="1"><g transform="translate(24.298576, 53.07505)"><g><path d="M 0.21875 -0.203125 L -2.140625 -2.59375 L -1.015625 -3.71875 C -0.835938 -3.894531 -0.660156 -4.023438 -0.484375 -4.109375 C -0.304688 -4.191406 -0.140625 -4.234375 0.015625 -4.234375 C 0.148438 -4.222656 0.285156 -4.1875 0.421875 -4.125 C 0.554688 -4.070312 0.675781 -3.988281 0.78125 -3.875 L 0.796875 -3.859375 C 0.984375 -3.679688 1.085938 -3.488281 1.109375 -3.28125 C 1.128906 -3.070312 1.097656 -2.859375 1.015625 -2.640625 L 2.421875 -2.375 L 1.640625 -1.625 L 0.453125 -1.875 L 0.15625 -1.578125 L 0.875 -0.859375 Z M -0.359375 -2.109375 L 0.078125 -2.546875 C 0.191406 -2.648438 0.253906 -2.757812 0.265625 -2.875 C 0.285156 -2.988281 0.253906 -3.085938 0.171875 -3.171875 L 0.15625 -3.171875 C 0.0625 -3.273438 -0.0351562 -3.316406 -0.140625 -3.296875 C -0.253906 -3.285156 -0.367188 -3.226562 -0.484375 -3.125 L -0.921875 -2.6875 Z M -0.359375 -2.109375 "/></g></g></g><g fill="#ffffff" fill-opacity="1"><g transform="translate(27.045364, 50.456795)"><g/></g></g><g fill="#ffffff" fill-opacity="1"><g transform="translate(28.330995, 49.367532)"><g><path d="M 0.25 -0.171875 L -1.671875 -2.9375 L 0.53125 -4.46875 L 1 -3.796875 L -0.4375 -2.796875 L -0.109375 -2.328125 L 1.1875 -3.234375 L 1.625 -2.59375 L 0.328125 -1.6875 L 1.015625 -0.703125 Z M 0.25 -0.171875 "/></g></g></g><g fill="#ffffff" fill-opacity="1"><g transform="translate(31.134079, 47.418769)"><g><path d="M 0.03125 -0.015625 L -0.296875 -3.65625 L 0.515625 -4.078125 L 3.34375 -1.765625 L 2.453125 -1.296875 L 1.96875 -1.71875 L 0.828125 -1.109375 L 0.890625 -0.46875 Z M 0.71875 -1.875 L 1.390625 -2.234375 L 0.625 -2.90625 Z M 0.71875 -1.875 "/></g></g></g><g fill="#ffffff" fill-opacity="1"><g transform="translate(34.77272, 45.526451)"><g><path d="M 1.3125 -0.453125 L -1.140625 -3.171875 L -0.171875 -3.53125 L 1.28125 -1.796875 L 1.265625 -4.0625 L 2.21875 -4.421875 L 2.125 -0.75 Z M 1.3125 -0.453125 "/></g></g></g><g fill="#ffffff" fill-opacity="1"><g transform="translate(38.459092, 44.16257)"><g><path d="M 1.953125 -0.375 C 1.703125 -0.320312 1.457031 -0.3125 1.21875 -0.34375 C 0.976562 -0.382812 0.757812 -0.460938 0.5625 -0.578125 C 0.375 -0.691406 0.210938 -0.84375 0.078125 -1.03125 C -0.046875 -1.226562 -0.132812 -1.441406 -0.1875 -1.671875 C -0.238281 -1.910156 -0.242188 -2.144531 -0.203125 -2.375 C -0.160156 -2.601562 -0.0820312 -2.8125 0.03125 -3 C 0.144531 -3.1875 0.300781 -3.347656 0.5 -3.484375 C 0.695312 -3.628906 0.925781 -3.726562 1.1875 -3.78125 C 1.4375 -3.84375 1.675781 -3.851562 1.90625 -3.8125 C 2.144531 -3.769531 2.359375 -3.691406 2.546875 -3.578125 C 2.742188 -3.460938 2.910156 -3.3125 3.046875 -3.125 C 3.179688 -2.9375 3.273438 -2.722656 3.328125 -2.484375 L 3.328125 -2.46875 C 3.378906 -2.238281 3.382812 -2.007812 3.34375 -1.78125 C 3.300781 -1.5625 3.21875 -1.351562 3.09375 -1.15625 C 2.976562 -0.96875 2.820312 -0.804688 2.625 -0.671875 C 2.425781 -0.535156 2.203125 -0.4375 1.953125 -0.375 Z M 1.78125 -1.1875 C 1.894531 -1.21875 2 -1.269531 2.09375 -1.34375 C 2.1875 -1.425781 2.257812 -1.507812 2.3125 -1.59375 C 2.375 -1.6875 2.410156 -1.789062 2.421875 -1.90625 C 2.429688 -2.019531 2.421875 -2.132812 2.390625 -2.25 C 2.367188 -2.375 2.328125 -2.484375 2.265625 -2.578125 C 2.203125 -2.679688 2.125 -2.765625 2.03125 -2.828125 C 1.9375 -2.898438 1.832031 -2.945312 1.71875 -2.96875 C 1.601562 -2.988281 1.484375 -2.984375 1.359375 -2.953125 C 1.234375 -2.929688 1.125 -2.882812 1.03125 -2.8125 C 0.945312 -2.738281 0.878906 -2.65625 0.828125 -2.5625 C 0.773438 -2.46875 0.738281 -2.363281 0.71875 -2.25 C 0.695312 -2.132812 0.703125 -2.015625 0.734375 -1.890625 L 0.734375 -1.875 C 0.765625 -1.769531 0.8125 -1.664062 0.875 -1.5625 C 0.9375 -1.46875 1.015625 -1.390625 1.109375 -1.328125 C 1.203125 -1.265625 1.304688 -1.21875 1.421875 -1.1875 C 1.535156 -1.164062 1.65625 -1.164062 1.78125 -1.1875 Z M 1.78125 -1.1875 "/></g></g></g><g fill="#ffffff" fill-opacity="1"><g transform="translate(42.63384, 43.247643)"><g><path d="M 0.296875 -0.03125 L -0.015625 -3.375 L 1.5625 -3.515625 C 1.8125 -3.546875 2.03125 -3.535156 2.21875 -3.484375 C 2.40625 -3.441406 2.5625 -3.367188 2.6875 -3.265625 C 2.789062 -3.171875 2.875 -3.0625 2.9375 -2.9375 C 3 -2.8125 3.039062 -2.671875 3.0625 -2.515625 L 3.0625 -2.5 C 3.082031 -2.238281 3.035156 -2.019531 2.921875 -1.84375 C 2.804688 -1.675781 2.648438 -1.535156 2.453125 -1.421875 L 3.375 -0.328125 L 2.296875 -0.21875 L 1.546875 -1.171875 L 1.140625 -1.125 L 1.234375 -0.109375 Z M 1.0625 -1.84375 L 1.65625 -1.90625 C 1.8125 -1.925781 1.929688 -1.972656 2.015625 -2.046875 C 2.097656 -2.128906 2.132812 -2.226562 2.125 -2.34375 L 2.125 -2.359375 C 2.113281 -2.492188 2.054688 -2.59375 1.953125 -2.65625 C 1.859375 -2.71875 1.734375 -2.738281 1.578125 -2.71875 L 0.984375 -2.65625 Z M 1.0625 -1.84375 "/></g></g></g><g fill="#ffffff" fill-opacity="1"><g transform="translate(46.411154, 42.946149)"><g><path d="M 0.328125 0 L 0.3125 -3.359375 L 1.234375 -3.359375 L 1.25 0 Z M 0.328125 0 "/></g></g></g><g fill="#ffffff" fill-opacity="1"><g transform="translate(48.329778, 42.92176)"><g><path d="M 1.125 0.09375 L 1.34375 -2.4375 L 0.328125 -2.515625 L 0.390625 -3.328125 L 3.328125 -3.09375 L 3.265625 -2.28125 L 2.265625 -2.359375 L 2.046875 0.171875 Z M 1.125 0.09375 "/></g></g></g><g fill="#ffffff" fill-opacity="1"><g transform="translate(51.79313, 43.228481)"><g><path d="M 0.296875 0.0625 L 0.953125 -3.234375 L 3.59375 -2.703125 L 3.4375 -1.9375 L 1.6875 -2.296875 L 1.59375 -1.78125 L 3.1875 -1.46875 L 3.046875 -0.75 L 1.453125 -1.0625 L 1.34375 -0.546875 L 3.109375 -0.1875 L 2.953125 0.59375 Z M 0.296875 0.0625 "/></g></g></g><g fill="#ffffff" fill-opacity="1"><g transform="translate(55.269827, 43.97913)"><g/></g></g><g fill="#ffffff" fill-opacity="1"><g transform="translate(56.890105, 44.412893)"><g><path d="M 0.28125 0.109375 L 1.5 -3.015625 L 2.984375 -2.4375 C 3.210938 -2.351562 3.398438 -2.25 3.546875 -2.125 C 3.691406 -2 3.796875 -1.863281 3.859375 -1.71875 C 3.921875 -1.59375 3.953125 -1.457031 3.953125 -1.3125 C 3.953125 -1.164062 3.921875 -1.019531 3.859375 -0.875 L 3.859375 -0.859375 C 3.765625 -0.617188 3.625 -0.441406 3.4375 -0.328125 C 3.257812 -0.222656 3.054688 -0.164062 2.828125 -0.15625 L 3.15625 1.21875 L 2.15625 0.828125 L 1.890625 -0.359375 L 1.515625 -0.5 L 1.15625 0.453125 Z M 1.78125 -1.171875 L 2.34375 -0.953125 C 2.488281 -0.898438 2.613281 -0.890625 2.71875 -0.921875 C 2.832031 -0.960938 2.910156 -1.039062 2.953125 -1.15625 L 2.96875 -1.171875 C 3.019531 -1.296875 3.015625 -1.40625 2.953125 -1.5 C 2.890625 -1.59375 2.785156 -1.664062 2.640625 -1.71875 L 2.078125 -1.9375 Z M 1.78125 -1.171875 "/></g></g></g><g fill="#ffffff" fill-opacity="1"><g transform="translate(60.381926, 45.79081)"><g><path d="M 0.265625 0.140625 L 1.828125 -2.828125 L 4.21875 -1.5625 L 3.859375 -0.875 L 2.28125 -1.71875 L 2.046875 -1.265625 L 3.46875 -0.5 L 3.125 0.15625 L 1.703125 -0.609375 L 1.453125 -0.140625 L 3.046875 0.703125 L 2.671875 1.40625 Z M 0.265625 0.140625 "/></g></g></g><g fill="#ffffff" fill-opacity="1"><g transform="translate(63.481969, 47.454439)"><g><path d="M 1.296875 0.953125 C 1.054688 0.785156 0.847656 0.585938 0.671875 0.359375 C 0.503906 0.128906 0.382812 -0.113281 0.3125 -0.375 L 1.109375 -0.609375 C 1.160156 -0.410156 1.242188 -0.226562 1.359375 -0.0625 C 1.472656 0.09375 1.613281 0.226562 1.78125 0.34375 C 1.875 0.40625 1.957031 0.4375 2.03125 0.4375 C 2.101562 0.4375 2.160156 0.410156 2.203125 0.359375 C 2.242188 0.296875 2.25 0.222656 2.21875 0.140625 C 2.1875 0.0546875 2.09375 -0.0664062 1.9375 -0.234375 C 1.8125 -0.367188 1.695312 -0.5 1.59375 -0.625 C 1.5 -0.75 1.425781 -0.878906 1.375 -1.015625 C 1.332031 -1.148438 1.316406 -1.28125 1.328125 -1.40625 C 1.335938 -1.539062 1.390625 -1.675781 1.484375 -1.8125 L 1.484375 -1.828125 C 1.578125 -1.953125 1.6875 -2.050781 1.8125 -2.125 C 1.9375 -2.195312 2.066406 -2.238281 2.203125 -2.25 C 2.347656 -2.269531 2.503906 -2.257812 2.671875 -2.21875 C 2.835938 -2.175781 3 -2.097656 3.15625 -1.984375 C 3.394531 -1.828125 3.585938 -1.648438 3.734375 -1.453125 C 3.878906 -1.265625 3.988281 -1.054688 4.0625 -0.828125 L 3.296875 -0.546875 C 3.234375 -0.722656 3.148438 -0.878906 3.046875 -1.015625 C 2.941406 -1.160156 2.828125 -1.269531 2.703125 -1.34375 C 2.609375 -1.414062 2.523438 -1.445312 2.453125 -1.4375 C 2.390625 -1.4375 2.335938 -1.410156 2.296875 -1.359375 C 2.253906 -1.285156 2.253906 -1.207031 2.296875 -1.125 C 2.335938 -1.050781 2.441406 -0.925781 2.609375 -0.75 C 2.867188 -0.46875 3.050781 -0.203125 3.15625 0.046875 C 3.257812 0.296875 3.222656 0.550781 3.046875 0.8125 L 3.03125 0.8125 C 2.9375 0.957031 2.828125 1.066406 2.703125 1.140625 C 2.578125 1.210938 2.4375 1.253906 2.28125 1.265625 C 2.125 1.273438 1.960938 1.253906 1.796875 1.203125 C 1.640625 1.148438 1.472656 1.066406 1.296875 0.953125 Z M 1.296875 0.953125 "/></g></g></g><g fill="#ffffff" fill-opacity="1"><g transform="translate(66.31585, 49.406926)"><g><path d="M 0.859375 0.734375 L 2.515625 -1.203125 L 1.734375 -1.859375 L 2.265625 -2.46875 L 4.515625 -0.546875 L 3.984375 0.0625 L 3.203125 -0.609375 L 1.546875 1.328125 Z M 0.859375 0.734375 "/></g></g></g><g fill="#ffffff" fill-opacity="1"><g transform="translate(68.945344, 51.662885)"><g><path d="M 0.015625 0.015625 L 3.484375 -1.1875 L 4.09375 -0.515625 L 2.546875 2.796875 L 1.875 2.0625 L 2.171875 1.46875 L 1.296875 0.515625 L 0.671875 0.734375 Z M 2 0.234375 L 2.515625 0.796875 L 2.96875 -0.125 Z M 2 0.234375 "/></g></g></g><g fill="#ffffff" fill-opacity="1"><g transform="translate(71.690078, 54.708869)"><g><path d="M 0.984375 1.515625 C 0.710938 1.117188 0.597656 0.738281 0.640625 0.375 C 0.691406 0.0078125 0.929688 -0.320312 1.359375 -0.625 L 2.90625 -1.703125 L 3.4375 -0.9375 L 1.90625 0.140625 C 1.707031 0.273438 1.59375 0.421875 1.5625 0.578125 C 1.539062 0.734375 1.578125 0.882812 1.671875 1.03125 C 1.785156 1.1875 1.921875 1.28125 2.078125 1.3125 C 2.234375 1.34375 2.40625 1.289062 2.59375 1.15625 L 4.140625 0.078125 L 4.6875 0.84375 L 3.171875 1.90625 C 2.941406 2.0625 2.722656 2.164062 2.515625 2.21875 C 2.316406 2.28125 2.128906 2.285156 1.953125 2.234375 C 1.773438 2.191406 1.601562 2.109375 1.4375 1.984375 C 1.269531 1.859375 1.117188 1.703125 0.984375 1.515625 Z M 0.984375 1.515625 "/></g></g></g><g fill="#ffffff" fill-opacity="1"><g transform="translate(73.922189, 57.945944)"><g><path d="M 0.140625 0.265625 L 3.109375 -1.296875 L 3.859375 0.109375 C 3.972656 0.328125 4.039062 0.53125 4.0625 0.71875 C 4.09375 0.90625 4.085938 1.078125 4.046875 1.234375 C 3.992188 1.367188 3.921875 1.488281 3.828125 1.59375 C 3.742188 1.707031 3.632812 1.800781 3.5 1.875 L 3.484375 1.875 C 3.253906 2 3.03125 2.039062 2.8125 2 C 2.601562 1.96875 2.410156 1.878906 2.234375 1.734375 L 1.578125 3 L 1.078125 2.046875 L 1.65625 0.984375 L 1.46875 0.625 L 0.578125 1.09375 Z M 2.125 0.28125 L 2.40625 0.8125 C 2.476562 0.957031 2.566406 1.050781 2.671875 1.09375 C 2.773438 1.132812 2.878906 1.128906 2.984375 1.078125 L 3 1.078125 C 3.125 1.003906 3.191406 0.910156 3.203125 0.796875 C 3.222656 0.691406 3.195312 0.566406 3.125 0.421875 L 2.84375 -0.109375 Z M 2.125 0.28125 "/></g></g></g><g fill="#ffffff" fill-opacity="1"><g transform="translate(75.664166, 61.259271)"><g><path d="M 0.015625 0.03125 L 3.671875 0.171875 L 3.984375 1.015625 L 1.328125 3.546875 L 0.984375 2.609375 L 1.46875 2.171875 L 1.015625 0.953125 L 0.359375 0.9375 Z M 1.78125 0.953125 L 2.046875 1.671875 L 2.8125 0.984375 Z M 1.78125 0.953125 "/></g></g></g><g fill="#ffffff" fill-opacity="1"><g transform="translate(77.088053, 65.104366)"><g><path d="M 0.0625 0.296875 L 3.328125 -0.46875 L 3.53125 0.375 L 2.109375 2.125 L 3.84375 1.71875 L 4.046875 2.609375 L 0.78125 3.375 L 0.609375 2.59375 L 2.078125 0.765625 L 0.28125 1.1875 Z M 0.0625 0.296875 "/></g></g></g><g fill="#ffffff" fill-opacity="1"><g transform="translate(77.973794, 69.070746)"><g><path d="M 0.125 1.125 L 2.65625 0.859375 L 2.546875 -0.15625 L 3.359375 -0.25 L 3.671875 2.6875 L 2.859375 2.78125 L 2.75 1.765625 L 0.21875 2.03125 Z M 0.125 1.125 "/></g></g></g></svg>