<svg xmlns="http://www.w3.org/2000/svg" xmlns:xlink="http://www.w3.org/1999/xlink" width="100" zoomAndPan="magnify" viewBox="0 0 75 74.999997" height="100" preserveAspectRatio="xMidYMid meet" version="1.0"><path fill="#100a09" d="M 29.929688 38.597656 C 29.957031 38.875 29.953125 39.15625 29.917969 39.4375 C 29.886719 39.714844 29.800781 39.976562 29.652344 40.226562 C 29.503906 40.480469 29.273438 40.660156 28.960938 40.769531 C 28.648438 40.882812 28.363281 40.816406 28.109375 40.566406 C 27.882812 40.515625 27.691406 40.398438 27.53125 40.21875 C 27.371094 40.042969 27.292969 39.832031 27.292969 39.59375 C 27.253906 37.894531 27.023438 36.203125 26.59375 34.523438 C 26.5 34.097656 26.40625 33.679688 26.3125 33.261719 C 26.222656 32.84375 26.128906 32.429688 26.035156 32.019531 C 25.796875 32.707031 25.5625 33.445312 25.339844 34.234375 C 25.113281 35.023438 24.925781 35.695312 24.78125 36.25 C 24.644531 36.792969 24.511719 37.351562 24.386719 37.921875 C 24.261719 38.492188 24.15625 38.988281 24.078125 39.410156 C 24.066406 39.453125 24.050781 39.472656 24.03125 39.464844 C 24.011719 39.457031 24 39.445312 24 39.433594 C 23.984375 39.523438 23.964844 39.617188 23.9375 39.710938 C 23.910156 39.804688 23.886719 39.902344 23.859375 40.007812 C 23.804688 40.144531 23.742188 40.265625 23.671875 40.371094 C 23.597656 40.476562 23.480469 40.546875 23.320312 40.582031 C 23.199219 40.613281 23.113281 40.605469 23.0625 40.566406 C 22.9375 40.566406 22.84375 40.539062 22.78125 40.484375 C 22.699219 40.539062 22.640625 40.519531 22.601562 40.429688 C 22.507812 40.28125 22.4375 40.136719 22.390625 39.992188 C 22.34375 39.84375 22.300781 39.691406 22.265625 39.53125 L 21.402344 36.488281 C 21.308594 36.15625 21.21875 35.828125 21.132812 35.5 C 21.046875 35.167969 20.960938 34.835938 20.882812 34.503906 C 20.859375 34.421875 20.832031 34.34375 20.804688 34.265625 C 20.777344 34.183594 20.75 34.097656 20.726562 34.003906 C 20.765625 34.839844 20.800781 35.6875 20.832031 36.550781 C 20.863281 37.414062 20.890625 38.261719 20.902344 39.09375 C 20.917969 39.386719 20.90625 39.6875 20.871094 39.996094 C 20.839844 40.308594 20.664062 40.535156 20.347656 40.683594 C 20.199219 40.75 20.085938 40.738281 20.007812 40.644531 C 19.980469 40.617188 19.957031 40.59375 19.945312 40.566406 C 19.667969 40.65625 19.433594 40.613281 19.246094 40.429688 C 19.070312 40.242188 18.960938 40.015625 18.90625 39.753906 C 18.855469 39.488281 18.816406 39.234375 18.789062 38.996094 C 18.707031 38.414062 18.648438 37.835938 18.605469 37.273438 C 18.566406 36.710938 18.539062 36.144531 18.527344 35.578125 C 18.488281 34.398438 18.46875 33.21875 18.46875 32.039062 C 18.457031 31.46875 18.445312 30.890625 18.4375 30.3125 C 18.429688 29.726562 18.480469 29.148438 18.589844 28.578125 C 18.601562 28.523438 18.636719 28.496094 18.703125 28.496094 C 18.773438 28.496094 18.816406 28.523438 18.828125 28.578125 C 18.894531 28.976562 18.933594 29.398438 18.945312 29.84375 C 18.957031 30.289062 18.972656 30.71875 18.984375 31.140625 C 19.011719 31.140625 19.035156 31.214844 19.046875 31.359375 C 19.0625 31.503906 19.074219 31.578125 19.085938 31.578125 L 19.085938 31.121094 C 19.085938 30.882812 19.082031 30.648438 19.074219 30.414062 C 19.070312 30.183594 19.070312 29.949219 19.070312 29.707031 C 19.054688 29.511719 19.050781 29.308594 19.058594 29.097656 C 19.066406 28.882812 19.113281 28.679688 19.207031 28.496094 C 19.207031 28.269531 19.320312 28.09375 19.550781 27.960938 C 19.867188 27.761719 20.199219 27.714844 20.542969 27.820312 C 20.941406 27.902344 21.214844 28.132812 21.363281 28.515625 C 21.484375 28.660156 21.558594 28.839844 21.582031 29.054688 C 21.609375 29.292969 21.640625 29.535156 21.679688 29.78125 C 21.722656 30.027344 21.765625 30.273438 21.804688 30.523438 C 21.976562 31.542969 22.167969 32.613281 22.378906 33.726562 C 22.59375 34.839844 22.8125 35.898438 23.039062 36.90625 C 23.171875 36.347656 23.296875 35.792969 23.414062 35.238281 C 23.535156 34.683594 23.664062 34.125 23.800781 33.570312 C 23.984375 32.707031 24.175781 31.851562 24.375 30.996094 C 24.574219 30.136719 24.738281 29.277344 24.859375 28.417969 C 24.886719 28.308594 24.945312 28.214844 25.035156 28.132812 C 25.128906 28.046875 25.230469 27.996094 25.339844 27.980469 C 25.671875 27.886719 25.964844 27.914062 26.214844 28.058594 C 26.363281 27.957031 26.53125 27.902344 26.714844 27.902344 C 26.902344 27.902344 27.054688 27.96875 27.171875 28.101562 C 27.480469 28.40625 27.726562 28.75 27.914062 29.132812 C 28.101562 29.515625 28.242188 29.914062 28.335938 30.328125 C 28.4375 30.777344 28.535156 31.222656 28.621094 31.671875 C 28.707031 32.113281 28.789062 32.558594 28.871094 33.007812 C 28.898438 33.183594 28.929688 33.355469 28.960938 33.527344 C 28.996094 33.703125 29.019531 33.875 29.035156 34.046875 C 29.070312 34.191406 29.105469 34.335938 29.136719 34.480469 C 29.171875 34.628906 29.203125 34.773438 29.230469 34.917969 C 29.296875 35.25 29.359375 35.574219 29.417969 35.894531 C 29.480469 36.210938 29.546875 36.535156 29.613281 36.867188 C 29.675781 37.160156 29.738281 37.449219 29.800781 37.734375 C 29.863281 38.019531 29.90625 38.304688 29.929688 38.597656 Z M 21.644531 33.191406 C 21.683594 33.285156 21.714844 33.367188 21.742188 33.4375 C 21.769531 33.511719 21.8125 33.582031 21.863281 33.648438 C 21.769531 33.140625 21.660156 32.5625 21.539062 31.910156 C 21.421875 31.253906 21.316406 30.671875 21.222656 30.164062 C 21.210938 30.019531 21.191406 29.871094 21.164062 29.71875 C 21.136719 29.566406 21.101562 29.410156 21.066406 29.253906 C 20.984375 29.304688 20.890625 29.34375 20.785156 29.371094 C 20.785156 29.398438 20.777344 29.425781 20.761719 29.449219 C 20.910156 30.0625 21.050781 30.667969 21.191406 31.265625 C 21.332031 31.859375 21.46875 32.46875 21.601562 33.089844 C 21.628906 33.117188 21.644531 33.148438 21.644531 33.191406 Z M 24.675781 36.210938 C 24.863281 35.457031 25.0625 34.703125 25.277344 33.949219 C 25.492188 33.191406 25.722656 32.441406 25.972656 31.695312 C 25.964844 31.632812 25.949219 31.566406 25.9375 31.5 C 25.921875 31.433594 25.902344 31.367188 25.875 31.300781 C 25.664062 31.953125 25.464844 32.613281 25.277344 33.285156 C 25.089844 33.953125 24.917969 34.621094 24.761719 35.296875 C 24.746094 35.441406 24.722656 35.589844 24.6875 35.742188 C 24.65625 35.894531 24.625 36.042969 24.597656 36.1875 C 24.613281 36.203125 24.632812 36.210938 24.660156 36.210938 Z M 24.675781 36.210938 " fill-opacity="1" fill-rule="nonzero"/><path fill="#100a09" d="M 29.289062 30.128906 C 29.957031 29.785156 30.648438 29.492188 31.367188 29.253906 C 32.085938 29.011719 32.804688 28.800781 33.523438 28.613281 L 33.984375 28.496094 C 34.394531 28.414062 34.804688 28.339844 35.21875 28.265625 C 35.632812 28.195312 36.050781 28.144531 36.480469 28.121094 C 36.570312 28.109375 36.65625 28.101562 36.746094 28.101562 C 36.832031 28.101562 36.921875 28.101562 37.015625 28.101562 C 36.628906 28.195312 36.238281 28.292969 35.839844 28.390625 C 35.4375 28.488281 35.046875 28.582031 34.660156 28.675781 C 33.984375 28.820312 33.308594 28.976562 32.632812 29.144531 C 31.960938 29.308594 31.289062 29.503906 30.628906 29.730469 C 30.402344 29.796875 30.175781 29.871094 29.957031 29.957031 C 29.738281 30.042969 29.515625 30.140625 29.289062 30.25 C 29.234375 30.222656 29.234375 30.179688 29.289062 30.128906 Z M 40.492188 38.21875 C 40.464844 38.339844 40.398438 38.40625 40.292969 38.421875 C 39.5625 38.550781 38.824219 38.714844 38.085938 38.90625 C 37.34375 39.097656 36.621094 39.320312 35.917969 39.570312 C 35.585938 39.691406 35.25 39.808594 34.910156 39.929688 C 34.570312 40.046875 34.234375 40.179688 33.898438 40.328125 L 33.878906 40.328125 C 33.867188 40.339844 33.847656 40.347656 33.820312 40.355469 C 33.792969 40.363281 33.765625 40.375 33.742188 40.386719 C 33.636719 40.4375 33.523438 40.484375 33.410156 40.527344 C 33.296875 40.566406 33.1875 40.613281 33.082031 40.667969 L 33.0625 40.683594 C 32.980469 40.738281 32.832031 40.804688 32.613281 40.882812 C 32.394531 40.964844 32.1875 41.03125 31.992188 41.082031 C 31.800781 41.132812 31.707031 41.160156 31.707031 41.160156 C 31.707031 41.160156 31.679688 41.164062 31.632812 41.171875 C 31.585938 41.175781 31.542969 41.179688 31.503906 41.179688 C 31.347656 41.207031 31.1875 41.207031 31.027344 41.179688 C 30.867188 41.15625 30.75 41.058594 30.667969 40.882812 C 30.628906 40.804688 30.621094 40.710938 30.648438 40.605469 C 30.394531 40.5 30.195312 40.320312 30.054688 40.058594 C 29.914062 39.800781 29.894531 39.542969 29.988281 39.292969 C 29.933594 38.949219 29.890625 38.605469 29.855469 38.253906 C 29.824219 37.902344 29.796875 37.550781 29.769531 37.207031 L 29.527344 34.820312 L 29.289062 32.550781 C 29.035156 32.277344 28.929688 31.949219 28.96875 31.578125 C 29.007812 31.207031 29.175781 30.894531 29.472656 30.644531 C 29.480469 30.621094 29.492188 30.59375 29.507812 30.566406 C 29.519531 30.539062 29.535156 30.511719 29.550781 30.488281 C 29.761719 30.394531 29.972656 30.308594 30.183594 30.226562 C 30.398438 30.148438 30.613281 30.074219 30.824219 30.007812 C 31.492188 29.785156 32.160156 29.589844 32.832031 29.421875 C 33.503906 29.257812 34.179688 29.105469 34.859375 28.972656 C 35.394531 28.855469 35.917969 28.726562 36.4375 28.589844 C 36.957031 28.445312 37.476562 28.308594 37.996094 28.179688 C 38.0625 28.191406 38.132812 28.203125 38.203125 28.210938 C 38.277344 28.21875 38.339844 28.234375 38.398438 28.257812 L 38.714844 28.375 C 38.765625 28.417969 38.820312 28.460938 38.871094 28.511719 C 38.925781 28.554688 38.980469 28.597656 39.03125 28.636719 C 39.097656 28.851562 39.144531 29.058594 39.175781 29.261719 C 39.203125 29.46875 39.195312 29.667969 39.152344 29.871094 L 38.15625 30.164062 C 37.941406 30.234375 37.71875 30.304688 37.484375 30.367188 C 37.253906 30.433594 37.023438 30.5 36.796875 30.566406 C 36.746094 30.59375 36.707031 30.605469 36.679688 30.605469 C 36.421875 30.671875 36.125 30.753906 35.785156 30.855469 C 35.449219 30.953125 35.109375 31.050781 34.769531 31.152344 C 34.429688 31.253906 34.140625 31.34375 33.898438 31.421875 C 33.660156 31.5 33.515625 31.554688 33.460938 31.578125 C 33.140625 31.683594 32.824219 31.796875 32.503906 31.917969 C 32.183594 32.039062 31.871094 32.160156 31.566406 32.292969 L 31.523438 32.335938 C 31.535156 32.398438 31.554688 32.507812 31.574219 32.660156 C 31.597656 32.8125 31.613281 32.957031 31.632812 33.089844 C 31.652344 33.222656 31.664062 33.308594 31.664062 33.347656 C 32.222656 33.109375 32.78125 32.878906 33.332031 32.644531 C 33.882812 32.410156 34.449219 32.1875 35.019531 31.976562 C 35.339844 31.898438 35.664062 31.8125 35.988281 31.726562 C 36.316406 31.640625 36.636719 31.550781 36.960938 31.457031 L 37.214844 31.398438 C 37.335938 31.371094 37.453125 31.355469 37.5625 31.347656 C 37.679688 31.34375 37.796875 31.332031 37.917969 31.324219 C 38.167969 31.308594 38.40625 31.328125 38.632812 31.375 C 38.859375 31.417969 39.039062 31.5625 39.175781 31.800781 C 39.203125 31.824219 39.21875 31.851562 39.222656 31.878906 C 39.226562 31.90625 39.238281 31.933594 39.253906 31.957031 C 39.28125 31.996094 39.300781 32.039062 39.316406 32.078125 C 39.328125 32.117188 39.339844 32.15625 39.351562 32.195312 C 39.363281 32.207031 39.378906 32.214844 39.394531 32.214844 C 39.582031 32.308594 39.691406 32.472656 39.730469 32.714844 C 39.773438 32.898438 39.742188 33.089844 39.644531 33.285156 C 39.542969 33.472656 39.398438 33.613281 39.214844 33.703125 C 39 33.796875 38.78125 33.855469 38.5625 33.875 C 38.34375 33.894531 38.121094 33.933594 37.898438 33.984375 C 37.65625 34.027344 37.414062 34.070312 37.167969 34.113281 C 36.921875 34.160156 36.679688 34.214844 36.4375 34.285156 C 35.957031 34.417969 35.480469 34.558594 35.011719 34.710938 C 34.539062 34.863281 34.066406 35.039062 33.601562 35.238281 C 33.3125 35.359375 33.027344 35.484375 32.753906 35.617188 C 32.480469 35.75 32.203125 35.886719 31.925781 36.035156 L 32.046875 37.324219 C 32.046875 37.339844 32.046875 37.351562 32.046875 37.355469 C 32.046875 37.363281 32.046875 37.378906 32.046875 37.402344 L 32.101562 37.367188 C 32.332031 37.261719 32.554688 37.164062 32.773438 37.078125 C 32.992188 36.992188 33.207031 36.898438 33.421875 36.804688 L 35.121094 36.152344 C 35.265625 36.089844 35.414062 36.027344 35.566406 35.976562 C 35.71875 35.921875 35.871094 35.867188 36.019531 35.816406 C 36.257812 35.722656 36.496094 35.632812 36.734375 35.546875 C 36.976562 35.460938 37.214844 35.378906 37.453125 35.296875 L 38.234375 35.058594 C 38.34375 35.03125 38.449219 34.996094 38.554688 34.949219 C 38.660156 34.90625 38.765625 34.867188 38.871094 34.839844 C 39.261719 34.761719 39.578125 34.792969 39.820312 34.9375 C 40.066406 35.085938 40.261719 35.296875 40.410156 35.578125 C 40.558594 35.855469 40.667969 36.15625 40.742188 36.488281 C 40.816406 36.820312 40.859375 37.125 40.871094 37.402344 C 40.886719 37.578125 40.855469 37.734375 40.777344 37.875 C 40.707031 38.015625 40.609375 38.128906 40.492188 38.21875 Z M 35.660156 34.003906 C 35.351562 34.097656 35.042969 34.191406 34.730469 34.285156 C 34.417969 34.375 34.105469 34.472656 33.800781 34.582031 C 33.601562 34.632812 33.40625 34.691406 33.210938 34.753906 C 33.019531 34.8125 32.832031 34.867188 32.644531 34.917969 C 32.601562 35.144531 32.496094 35.332031 32.328125 35.476562 C 32.816406 35.226562 33.316406 35 33.828125 34.804688 C 34.339844 34.605469 34.84375 34.402344 35.339844 34.203125 C 35.445312 34.148438 35.558594 34.101562 35.675781 34.0625 Z M 31.246094 40.882812 C 31.394531 40.898438 31.558594 40.902344 31.742188 40.894531 C 31.929688 40.886719 32.039062 40.875 32.066406 40.863281 C 32.089844 40.863281 32.109375 40.855469 32.125 40.84375 C 32.203125 40.804688 32.28125 40.765625 32.363281 40.722656 C 32.441406 40.683594 32.515625 40.644531 32.582031 40.605469 C 32.742188 40.523438 32.898438 40.445312 33.050781 40.367188 C 33.207031 40.285156 33.359375 40.207031 33.503906 40.128906 L 33.503906 40.089844 C 33.328125 40.15625 33.148438 40.222656 32.960938 40.289062 C 32.777344 40.355469 32.59375 40.421875 32.40625 40.484375 C 32.21875 40.550781 32.027344 40.621094 31.832031 40.691406 C 31.640625 40.765625 31.445312 40.828125 31.246094 40.882812 Z M 31.246094 40.882812 " fill-opacity="1" fill-rule="nonzero"/><path fill="#100a09" d="M 48.617188 40.683594 C 48.496094 40.761719 48.363281 40.761719 48.214844 40.683594 C 47.949219 40.566406 47.773438 40.371094 47.679688 40.101562 C 47.585938 39.828125 47.511719 39.566406 47.460938 39.3125 L 47.339844 38.636719 L 43.863281 32.453125 C 43.8125 32.386719 43.757812 32.316406 43.703125 32.234375 C 43.648438 32.15625 43.597656 32.082031 43.546875 32.019531 C 43.558594 32.691406 43.5625 33.371094 43.554688 34.046875 C 43.546875 34.722656 43.546875 35.394531 43.546875 36.070312 C 43.570312 36.46875 43.585938 36.867188 43.59375 37.261719 C 43.597656 37.660156 43.609375 38.058594 43.625 38.457031 C 43.636719 38.65625 43.652344 38.902344 43.664062 39.1875 C 43.679688 39.472656 43.648438 39.726562 43.570312 39.949219 C 43.5 40.175781 43.324219 40.308594 43.046875 40.34375 C 42.921875 40.546875 42.761719 40.683594 42.554688 40.753906 C 42.351562 40.828125 42.136719 40.832031 41.910156 40.765625 C 41.691406 40.710938 41.503906 40.582031 41.347656 40.386719 C 41.292969 39.554688 41.25 38.71875 41.214844 37.886719 C 41.183594 37.050781 41.15625 36.210938 41.128906 35.375 C 41.097656 34.699219 41.078125 34.023438 41.066406 33.339844 C 41.054688 32.65625 41.035156 31.976562 41.007812 31.300781 C 40.992188 30.863281 40.984375 30.425781 40.976562 29.988281 C 40.96875 29.550781 40.980469 29.121094 41.007812 28.695312 C 41.140625 28.589844 41.265625 28.53125 41.386719 28.515625 C 41.386719 28.355469 41.441406 28.203125 41.550781 28.058594 C 41.707031 27.863281 41.886719 27.765625 42.085938 27.773438 C 42.289062 27.78125 42.496094 27.855469 42.707031 27.992188 C 42.917969 28.128906 43.109375 28.289062 43.285156 28.46875 C 43.457031 28.644531 43.59375 28.792969 43.6875 28.914062 C 44.03125 29.363281 44.34375 29.824219 44.628906 30.296875 C 44.917969 30.765625 45.195312 31.246094 45.464844 31.738281 C 45.6875 32.121094 45.90625 32.511719 46.121094 32.910156 C 46.332031 33.308594 46.539062 33.714844 46.738281 34.125 C 46.765625 34.175781 46.78125 34.242188 46.78125 34.320312 L 47.101562 34.9375 C 47.046875 34.433594 46.976562 33.925781 46.878906 33.40625 C 46.785156 32.894531 46.691406 32.382812 46.597656 31.878906 C 46.53125 31.519531 46.464844 31.160156 46.402344 30.804688 C 46.335938 30.449219 46.246094 30.089844 46.140625 29.730469 C 46.089844 29.542969 46.039062 29.355469 45.988281 29.164062 C 45.945312 28.972656 45.972656 28.773438 46.078125 28.578125 C 46.171875 28.417969 46.285156 28.300781 46.421875 28.21875 C 46.421875 28.207031 46.421875 28.199219 46.425781 28.199219 C 46.433594 28.199219 46.4375 28.191406 46.4375 28.179688 C 46.558594 27.953125 46.742188 27.839844 46.992188 27.839844 C 47.238281 27.839844 47.445312 27.902344 47.617188 28.023438 C 47.65625 28.03125 47.703125 28.066406 47.757812 28.121094 C 47.796875 28.304688 47.84375 28.492188 47.898438 28.6875 C 47.949219 28.878906 48.003906 29.066406 48.058594 29.253906 C 48.21875 29.824219 48.351562 30.410156 48.453125 31.015625 C 48.5625 31.617188 48.664062 32.21875 48.757812 32.8125 C 48.953125 34.019531 49.113281 35.238281 49.230469 36.46875 C 49.351562 37.703125 49.453125 38.925781 49.535156 40.148438 C 49.429688 40.292969 49.296875 40.421875 49.136719 40.527344 C 48.976562 40.628906 48.804688 40.683594 48.617188 40.683594 Z M 49.738281 39.949219 C 49.707031 39.949219 49.679688 39.96875 49.652344 40.007812 C 49.519531 38.113281 49.335938 36.21875 49.105469 34.332031 C 48.871094 32.441406 48.550781 30.578125 48.136719 28.734375 C 48.109375 28.652344 48.128906 28.582031 48.199219 28.515625 C 48.25 28.449219 48.324219 28.421875 48.417969 28.425781 C 48.511719 28.433594 48.5625 28.492188 48.574219 28.597656 C 48.933594 30.320312 49.21875 32.0625 49.425781 33.816406 C 49.632812 35.570312 49.730469 37.332031 49.714844 39.09375 C 49.730469 39.160156 49.738281 39.285156 49.746094 39.464844 C 49.753906 39.644531 49.75 39.804688 49.738281 39.949219 Z M 40.988281 38.496094 C 40.933594 37.796875 40.894531 37.066406 40.867188 36.304688 C 40.84375 35.539062 40.816406 34.796875 40.789062 34.082031 C 40.761719 33.382812 40.738281 32.671875 40.726562 31.957031 C 40.714844 31.238281 40.703125 30.523438 40.691406 29.808594 C 40.675781 29.640625 40.679688 29.464844 40.707031 29.285156 C 40.734375 29.105469 40.78125 28.933594 40.847656 28.773438 C 40.835938 29.09375 40.832031 29.410156 40.835938 29.730469 C 40.84375 30.046875 40.851562 30.367188 40.867188 30.683594 C 40.878906 31.371094 40.898438 32.0625 40.917969 32.753906 C 40.941406 33.441406 40.957031 34.136719 40.964844 34.839844 L 41.148438 39.3125 C 41.148438 39.3125 41.128906 39.285156 41.097656 39.222656 C 41.066406 39.164062 41.027344 38.921875 40.988281 38.496094 Z M 43.222656 37.523438 L 43.164062 37.585938 C 43.164062 37.585938 43.160156 37.585938 43.15625 37.585938 C 43.148438 37.585938 43.136719 37.59375 43.125 37.605469 L 43.101562 38.792969 C 43.101562 38.953125 43.132812 39.144531 43.191406 39.363281 C 43.253906 39.582031 43.25 39.820312 43.1875 40.070312 C 43.316406 39.84375 43.371094 39.617188 43.34375 39.390625 C 43.332031 39.207031 43.324219 39.015625 43.316406 38.820312 C 43.308594 38.621094 43.292969 38.417969 43.265625 38.21875 C 43.265625 38.101562 43.261719 37.988281 43.253906 37.875 C 43.246094 37.761719 43.234375 37.644531 43.222656 37.523438 Z M 43.222656 37.523438 " fill-opacity="1" fill-rule="nonzero"/><path fill="#100a09" d="M 58.898438 36.785156 C 58.753906 37.277344 58.558594 37.753906 58.320312 38.21875 C 58.082031 38.683594 57.765625 39.085938 57.382812 39.433594 C 57.339844 39.460938 57.292969 39.5 57.242188 39.550781 C 57.148438 39.644531 57.019531 39.761719 56.859375 39.898438 C 56.699219 40.039062 56.535156 40.148438 56.359375 40.226562 C 55.910156 40.519531 55.417969 40.652344 54.886719 40.621094 C 54.355469 40.585938 53.84375 40.4375 53.359375 40.179688 C 52.871094 39.917969 52.460938 39.597656 52.128906 39.214844 C 51.796875 38.828125 51.515625 38.398438 51.289062 37.921875 C 51.171875 37.9375 51.050781 37.914062 50.929688 37.855469 C 50.8125 37.792969 50.71875 37.6875 50.648438 37.542969 C 50.160156 36.3125 49.882812 35.023438 49.820312 33.679688 C 49.761719 32.332031 49.878906 31.015625 50.167969 29.730469 C 50.25 29.398438 50.371094 29.0625 50.539062 28.726562 C 50.707031 28.390625 50.925781 28.117188 51.195312 27.914062 C 51.46875 27.707031 51.808594 27.636719 52.207031 27.699219 C 52.445312 27.730469 52.660156 27.820312 52.851562 27.96875 C 53.046875 28.125 53.191406 28.3125 53.285156 28.535156 C 53.394531 28.828125 53.402344 29.148438 53.316406 29.5 C 53.230469 29.855469 53.171875 30.183594 53.144531 30.488281 C 53.121094 30.859375 53.109375 31.230469 53.109375 31.609375 C 53.109375 31.984375 53.117188 32.359375 53.128906 32.734375 C 53.183594 33.5 53.292969 34.257812 53.46875 35 C 53.640625 35.742188 53.859375 36.46875 54.125 37.183594 C 54.269531 37.292969 54.417969 37.382812 54.574219 37.457031 C 54.726562 37.527344 54.886719 37.570312 55.0625 37.585938 C 55.449219 37.503906 55.78125 37.347656 56.0625 37.109375 C 56.222656 36.882812 56.328125 36.609375 56.382812 36.28125 C 56.4375 35.957031 56.46875 35.636719 56.480469 35.316406 C 56.492188 35 56.507812 34.730469 56.523438 34.503906 C 56.585938 33.613281 56.621094 32.726562 56.621094 31.839844 C 56.621094 30.953125 56.613281 30.0625 56.601562 29.175781 C 56.589844 28.871094 56.722656 28.640625 57 28.480469 C 57.277344 28.320312 57.542969 28.3125 57.800781 28.457031 L 57.800781 28.257812 C 57.800781 28.152344 57.839844 28.058594 57.917969 27.96875 C 58 27.886719 58.09375 27.847656 58.199219 27.863281 C 58.503906 27.890625 58.726562 28 58.867188 28.199219 C 59.007812 28.394531 59.101562 28.625 59.148438 28.882812 C 59.191406 29.144531 59.222656 29.398438 59.238281 29.652344 C 59.265625 29.890625 59.289062 30.128906 59.316406 30.367188 C 59.34375 30.605469 59.355469 30.84375 59.355469 31.082031 L 59.355469 31.878906 C 59.398438 32.703125 59.386719 33.527344 59.324219 34.359375 C 59.265625 35.183594 59.125 35.996094 58.898438 36.785156 Z M 53.066406 29.792969 C 53.015625 29.816406 52.976562 29.800781 52.949219 29.75 C 52.933594 29.84375 52.914062 29.933594 52.882812 30.019531 C 52.859375 30.105469 52.828125 30.191406 52.785156 30.269531 C 52.703125 30.945312 52.667969 31.621094 52.675781 32.296875 C 52.683594 32.972656 52.753906 33.640625 52.890625 34.300781 C 52.914062 34.433594 52.941406 34.566406 52.96875 34.695312 C 52.996094 34.820312 53.023438 34.941406 53.046875 35.058594 C 53.074219 35.058594 53.09375 35.066406 53.109375 35.078125 C 52.789062 33.300781 52.773438 31.539062 53.066406 29.792969 Z M 53.066406 29.792969 " fill-opacity="1" fill-rule="nonzero"/><path stroke-linecap="butt" transform="matrix(0.193364, 0, 0, 0.192521, 7.070682, 19.348774)" fill="none" stroke-linejoin="miter" d="M 107.005754 92.455466 C 107.147165 93.916342 107.126963 95.356928 106.945149 96.797514 C 106.763335 98.2381 106.298699 99.617816 105.551242 100.936662 C 104.803784 102.235219 103.611892 103.188846 101.995767 103.777254 C 100.379642 104.365663 98.92513 104.000444 97.612029 102.701887 C 96.440338 102.417828 95.43026 101.80913 94.601996 100.875792 C 93.793934 99.962745 93.369701 98.867088 93.369701 97.629401 C 93.167685 88.823566 91.975793 80.05831 89.773823 71.313344 C 89.288986 69.081451 88.804148 66.890137 88.299109 64.739403 C 87.834474 62.568379 87.349636 60.417645 86.864799 58.266911 C 85.632504 61.858231 84.42041 65.69303 83.228518 69.791599 C 82.077029 73.910457 81.127556 77.400327 80.359896 80.281499 C 79.673043 83.101802 79.006392 86.003264 78.33974 88.965595 C 77.69329 91.907637 77.16805 94.50475 76.764019 96.696064 C 76.703414 96.898963 76.602406 96.980123 76.481197 96.939543 C 76.380189 96.919253 76.339786 96.858384 76.339786 96.797514 C 76.25898 97.284472 76.157972 97.771431 76.036763 98.25839 C 75.895352 98.725058 75.753941 99.252597 75.632731 99.800425 C 75.349909 100.490283 75.006483 101.098982 74.622653 101.6671 C 74.259025 102.214929 73.652978 102.600438 72.824714 102.803337 C 72.218668 102.925077 71.774233 102.904787 71.491412 102.701887 C 70.865163 102.701887 70.380326 102.559858 70.036899 102.275798 C 69.632868 102.559858 69.329845 102.458408 69.127829 101.971449 C 68.642992 101.200431 68.259162 100.449704 68.016743 99.698976 C 67.774324 98.948248 67.552107 98.15694 67.350092 97.325052 L 62.92595 81.519186 C 62.441113 79.814831 61.956275 78.090186 61.511841 76.38583 C 61.067407 74.640895 60.643174 72.91625 60.218941 71.191605 C 60.097732 70.785806 59.956321 70.380007 59.81491 69.974208 C 59.6937 69.548119 59.55229 69.10174 59.390677 68.614782 C 59.612894 72.95683 59.81491 77.359748 59.976522 81.843825 C 60.138135 86.307613 60.259344 90.730821 60.319949 95.052579 C 60.400755 96.574324 60.34015 98.13665 60.178538 99.739556 C 60.016925 101.362751 59.107855 102.539568 57.451327 103.310586 C 56.683668 103.655515 56.097823 103.594645 55.693792 103.107686 C 55.552381 102.965657 55.451373 102.823627 55.390768 102.701887 C 53.936256 103.168556 52.724162 102.925077 51.754487 101.971449 C 50.865619 100.997532 50.279773 99.841005 49.996952 98.461289 C 49.71413 97.081573 49.512114 95.762727 49.390905 94.52504 C 48.986874 91.501838 48.663649 88.519217 48.461633 85.597465 C 48.259617 82.675713 48.118207 79.733671 48.057602 76.791629 C 47.855586 70.643776 47.754578 64.516213 47.754578 58.40894 C 47.673772 55.426318 47.613168 52.423407 47.572764 49.400205 C 47.532361 46.377004 47.794982 43.394382 48.360625 40.43205 C 48.42123 40.147991 48.623246 40.005961 48.966672 40.005961 C 49.310099 40.005961 49.512114 40.147991 49.59292 40.43205 C 49.936347 42.501624 50.158564 44.672648 50.219169 46.985702 C 50.279773 49.278465 50.36058 51.530649 50.421184 53.742253 C 50.562595 53.742253 50.643402 54.127762 50.724208 54.87849 C 50.805014 55.629218 50.88582 56.014727 50.946425 56.014727 L 50.946425 53.640803 C 50.946425 52.403117 50.926223 51.16543 50.906022 49.988614 C 50.865619 48.771217 50.845417 47.53353 50.845417 46.295844 C 50.764611 45.281347 50.744409 44.226269 50.764611 43.130613 C 50.825216 42.014666 51.087836 40.979878 51.552472 40.005961 C 51.552472 38.829144 52.138317 37.916097 53.310007 37.226239 C 54.966535 36.191452 56.683668 35.947972 58.481607 36.495801 C 60.562368 36.92189 61.956275 38.118996 62.723934 40.127701 C 63.329981 40.878429 63.693609 41.811766 63.855222 42.907423 C 63.996633 44.14511 64.158245 45.403086 64.360261 46.681353 C 64.562276 47.939329 64.764292 49.237886 64.986509 50.536442 C 65.875378 55.852407 66.865254 61.391562 67.956139 67.174196 C 69.067224 72.95683 70.218713 78.455405 71.390404 83.69021 C 72.077257 80.809038 72.723707 77.907576 73.329753 75.026404 C 73.956002 72.124942 74.602452 69.24377 75.309506 66.342308 C 76.279181 61.878521 77.269058 57.414733 78.299337 52.971235 C 79.349818 48.527738 80.157881 44.06395 80.763928 39.600162 C 80.92554 39.032044 81.228563 38.545085 81.693199 38.118996 C 82.178037 37.652328 82.703277 37.388558 83.268921 37.327689 C 84.986054 36.84073 86.501171 36.96247 87.814272 37.733488 C 88.56173 37.185659 89.410195 36.92189 90.37987 36.92189 C 91.349545 36.92189 92.137406 37.266819 92.763654 37.956677 C 94.339376 39.539292 95.612074 41.324808 96.581749 43.333512 C 97.531222 45.321926 98.258479 47.371211 98.743316 49.501655 C 99.30896 51.855288 99.793797 54.188632 100.238231 56.481396 C 100.682666 58.794449 101.1271 61.107503 101.551333 63.440846 C 101.672542 64.333604 101.834155 65.226361 101.995767 66.139409 C 102.15738 67.032166 102.278589 67.924924 102.359395 68.817681 C 102.561411 69.568409 102.763426 70.339427 102.925039 71.090155 C 103.106853 71.840883 103.248264 72.591611 103.389675 73.362629 C 103.733101 75.087274 104.056326 76.771339 104.35935 78.414825 C 104.682575 80.05831 105.0058 81.762665 105.349226 83.487311 C 105.692653 84.988766 106.036079 86.490222 106.339103 87.971388 C 106.642126 89.452554 106.884545 90.95401 107.005754 92.455466 Z M 64.158245 64.374184 C 64.360261 64.861142 64.521873 65.307521 64.663284 65.69303 C 64.804695 66.058249 65.026912 66.423468 65.289533 66.748107 C 64.804695 64.150994 64.259253 61.127793 63.633005 57.719082 C 63.026958 54.310372 62.481516 51.30746 61.996678 48.690057 C 61.915872 47.919039 61.814864 47.148021 61.653252 46.356714 C 61.532042 45.565406 61.350228 44.753808 61.168414 43.94221 C 60.764383 44.20598 60.279546 44.408879 59.713902 44.571199 C 59.713902 44.692938 59.6937 44.834968 59.612894 44.976997 C 60.380553 48.121939 61.10781 51.26688 61.835066 54.371241 C 62.562322 57.455313 63.269377 60.620544 63.95623 63.866935 C 64.097641 64.008965 64.158245 64.171284 64.158245 64.374184 Z M 79.854857 80.0786 C 80.824532 76.142351 81.83461 72.226392 82.925495 68.310433 C 84.056782 64.374184 85.268875 60.478514 86.561775 56.643715 C 86.501171 56.298786 86.420364 55.933567 86.339558 55.608928 C 86.278953 55.243709 86.177946 54.89878 86.036535 54.574141 C 84.945651 57.962561 83.915371 61.371272 82.925495 64.861142 C 81.976021 68.330723 81.087153 71.800303 80.258889 75.330753 C 80.198284 76.081481 80.077075 76.852499 79.895261 77.664097 C 79.713446 78.455405 79.572036 79.226422 79.430625 79.97715 C 79.491229 80.05831 79.592237 80.0786 79.733648 80.0786 Z M 103.692698 48.466868 C 107.126963 46.681353 110.722841 45.179897 114.439928 43.94221 C 118.136814 42.684234 121.874102 41.588577 125.591189 40.634949 L 127.974973 40.005961 C 130.096137 39.600162 132.237503 39.214653 134.378868 38.829144 C 136.500032 38.463925 138.6818 38.200156 140.88377 38.058127 C 141.348406 37.997257 141.813042 37.956677 142.257476 37.956677 C 142.722112 37.956677 143.186748 37.956677 143.651384 37.956677 C 141.671631 38.423346 139.631274 38.930594 137.570714 39.437843 C 135.510155 39.965381 133.469798 40.45234 131.469843 40.939299 C 127.954772 41.690027 124.459902 42.501624 120.985234 43.374092 C 117.510565 44.226269 114.056099 45.240767 110.621833 46.397293 C 109.450143 46.762512 108.278452 47.168311 107.147165 47.61469 C 106.015878 48.040779 104.864389 48.548028 103.692698 49.095856 C 103.430078 48.974116 103.430078 48.750927 103.692698 48.466868 Z M 161.630772 90.487341 C 161.489362 91.116329 161.145935 91.461258 160.600493 91.522128 C 156.8026 92.211986 153.004706 93.064164 149.16641 94.078661 C 145.348315 95.072868 141.631228 96.229395 137.974746 97.527952 C 136.257613 98.15694 134.520279 98.765638 132.762743 99.394626 C 131.005207 100.023615 129.267873 100.713473 127.530539 101.464201 L 127.429531 101.464201 C 127.368927 101.525071 127.267919 101.58594 127.146709 101.60623 C 127.005299 101.64681 126.863888 101.70768 126.742678 101.76855 C 126.177035 102.032319 125.611391 102.275798 125.025546 102.498988 C 124.4397 102.701887 123.853855 102.925077 123.308413 103.209136 L 123.207405 103.310586 C 122.803374 103.594645 122.035715 103.939574 120.884226 104.325083 C 119.752938 104.751172 118.682256 105.096101 117.672178 105.38016 C 116.682301 105.643929 116.197464 105.785959 116.197464 105.785959 C 116.197464 105.785959 116.076255 105.806249 115.813634 105.846829 C 115.591417 105.887408 115.3692 105.887408 115.167184 105.887408 C 114.33892 106.029438 113.510656 106.029438 112.662191 105.867119 C 111.854128 105.745379 111.22788 105.23813 110.823849 104.325083 C 110.621833 103.939574 110.601632 103.452615 110.722841 102.904787 C 109.40974 102.336668 108.399662 101.403331 107.672406 100.043905 C 106.945149 98.704768 106.82394 97.385922 107.328979 96.087366 C 107.025956 94.301851 106.803738 92.496046 106.642126 90.669951 C 106.480514 88.843856 106.318901 87.017761 106.17749 85.232246 L 104.924993 72.85538 L 103.692698 61.087213 C 102.379597 59.626337 101.834155 57.942271 102.056372 56.014727 C 102.258387 54.087182 103.106853 52.484277 104.62197 51.16543 C 104.682575 51.023401 104.763381 50.901661 104.823986 50.759631 C 104.88459 50.617602 104.965397 50.475572 105.026001 50.333543 C 106.137087 49.846584 107.227971 49.400205 108.318855 48.994406 C 109.450143 48.588607 110.541027 48.203098 111.652113 47.858169 C 115.086378 46.681353 118.540845 45.666855 122.015513 44.814678 C 125.490182 43.9625 128.985051 43.191482 132.500123 42.501624 C 135.267737 41.872636 137.974746 41.203068 140.641352 40.47263 C 143.328159 39.762482 146.014967 39.052334 148.721976 38.362476 C 149.065402 38.423346 149.42903 38.484215 149.792658 38.524795 C 150.196689 38.545085 150.519914 38.626245 150.782535 38.768275 L 152.439063 39.397263 C 152.721884 39.600162 152.984505 39.823352 153.247125 40.087121 C 153.529947 40.31031 153.812769 40.5335 154.095591 40.736399 C 154.439017 41.852346 154.681436 42.927713 154.822847 44.00308 C 154.944056 45.078447 154.923855 46.113234 154.721839 47.127731 L 149.55024 48.690057 C 148.439154 49.034986 147.287665 49.379915 146.075571 49.724844 C 144.883679 50.069773 143.691787 50.414702 142.520097 50.739341 C 142.237275 50.901661 142.035259 50.962531 141.91405 50.962531 C 140.600948 51.30746 139.06563 51.733549 137.308094 52.261087 C 135.550558 52.768336 133.793023 53.295874 132.015285 53.823413 C 130.277951 54.330661 128.783036 54.77704 127.530539 55.203129 C 126.318445 55.608928 125.550786 55.872697 125.267964 56.014727 C 123.631638 56.562555 121.97511 57.150964 120.298381 57.779952 C 118.662054 58.38865 117.045929 59.058218 115.470208 59.748076 L 115.268192 59.930686 C 115.328797 60.275615 115.409603 60.843733 115.510611 61.655331 C 115.611619 62.446639 115.712626 63.197367 115.813634 63.866935 C 115.934844 64.556793 115.995448 65.003172 115.995448 65.206071 C 118.884271 63.968385 121.752893 62.750988 124.621514 61.553881 C 127.469934 60.336485 130.378959 59.179958 133.328387 58.064011 C 134.984915 57.678502 136.641443 57.252413 138.338374 56.785745 C 140.035305 56.339366 141.691833 55.872697 143.348361 55.406028 L 144.681664 55.081389 C 145.307912 54.93936 145.913959 54.8582 146.499804 54.81762 C 147.085649 54.79733 147.691696 54.73646 148.317944 54.675591 C 149.631046 54.594431 150.863341 54.69588 152.01483 54.93936 C 153.18652 55.182839 154.135994 55.913277 154.822847 57.150964 C 154.944056 57.292993 155.024862 57.435023 155.065265 57.577052 C 155.105669 57.698792 155.146072 57.840822 155.226878 57.982851 C 155.348087 58.165461 155.449095 58.38865 155.529901 58.61184 C 155.590506 58.814739 155.671312 59.017638 155.752118 59.220538 C 155.812723 59.281408 155.873328 59.321988 155.954134 59.321988 C 156.903607 59.808946 157.489453 60.661124 157.691468 61.89881 C 157.913685 62.872728 157.752073 63.846645 157.226832 64.861142 C 156.721793 65.85535 155.974336 66.585787 155.024862 67.072746 C 153.913777 67.539415 152.782489 67.843764 151.651202 67.965504 C 150.519914 68.066953 149.368425 68.249563 148.216937 68.513332 C 146.96444 68.716232 145.711943 68.939421 144.419043 69.1829 C 143.146345 69.42638 141.893848 69.710439 140.681755 70.055368 C 138.196963 70.745226 135.712171 71.495954 133.267782 72.287262 C 130.823393 73.078569 128.399206 73.991617 125.995221 75.026404 C 124.500305 75.635102 123.025591 76.284381 121.611482 76.994529 C 120.197373 77.664097 118.783264 78.394535 117.328751 79.145263 L 117.934798 85.861234 C 117.934798 85.922104 117.934798 85.982974 117.934798 86.003264 C 117.934798 86.043844 117.934798 86.125003 117.934798 86.267033 L 118.258023 86.064133 C 119.429714 85.496015 120.561001 85.009056 121.71249 84.562678 C 122.863979 84.116299 123.975065 83.64963 125.065949 83.182961 L 133.853627 79.753961 C 134.601085 79.409032 135.368744 79.124973 136.156605 78.840913 C 136.964668 78.556854 137.752528 78.293085 138.499986 78.009026 C 139.732281 77.522067 140.964577 77.075688 142.217073 76.62931 C 143.449368 76.182931 144.681664 75.736552 145.913959 75.330753 L 149.954271 74.072777 C 150.499713 73.951037 151.065357 73.768428 151.610799 73.524948 C 152.176442 73.281469 152.721884 73.078569 153.247125 72.95683 C 155.247079 72.530741 156.883406 72.71335 158.176306 73.484368 C 159.449004 74.235096 160.459082 75.330753 161.226741 76.791629 C 161.974199 78.232215 162.539843 79.814831 162.903471 81.519186 C 163.307502 83.243831 163.529719 84.806157 163.590324 86.267033 C 163.650928 87.15979 163.489316 87.991678 163.105486 88.701826 C 162.741858 89.432264 162.257021 90.020672 161.630772 90.487341 Z M 136.641443 68.614782 C 135.065721 69.10174 133.449596 69.588699 131.833471 70.075658 C 130.217347 70.542327 128.621423 71.049575 127.045702 71.617694 C 125.995221 71.881463 124.985143 72.165522 123.995266 72.490161 C 123.00539 72.79451 122.015513 73.078569 121.025637 73.362629 C 120.823621 74.519155 120.278179 75.493073 119.38931 76.243801 C 121.934707 74.945244 124.540708 73.768428 127.187113 72.75393 C 129.833517 71.698853 132.439518 70.664066 134.984915 69.649569 C 135.530357 69.3858 136.116202 69.14232 136.74245 68.919131 Z M 113.833881 104.325083 C 114.581339 104.406243 115.429805 104.426533 116.39948 104.385953 C 117.348953 104.345373 117.914597 104.304793 118.056007 104.223633 C 118.197418 104.223633 118.298426 104.203343 118.359031 104.122183 C 118.763062 103.939574 119.167093 103.716384 119.591326 103.513485 C 120.015559 103.310586 120.399388 103.107686 120.722613 102.904787 C 121.550877 102.478698 122.35894 102.072899 123.146801 101.6671 C 123.954863 101.241011 124.722522 100.835212 125.46998 100.429414 L 125.46998 100.206224 C 124.581111 100.551153 123.65184 100.916372 122.702366 101.261301 C 121.752893 101.60623 120.763016 101.930869 119.793342 102.275798 C 118.843868 102.620728 117.853992 102.985947 116.843914 103.351165 C 115.854037 103.736674 114.843959 104.061314 113.833881 104.325083 Z M 203.650017 103.310586 C 203.023769 103.716384 202.336916 103.716384 201.589458 103.310586 C 200.215752 102.681597 199.28648 101.6671 198.801643 100.246804 C 198.296604 98.846798 197.932976 97.487372 197.650154 96.188815 L 197.044107 92.658365 L 179.064719 60.579964 C 178.781897 60.214745 178.519277 59.829236 178.236455 59.443727 C 177.973835 59.017638 177.691013 58.63213 177.408191 58.266911 C 177.468796 61.797361 177.488997 65.307521 177.468796 68.817681 C 177.428392 72.327842 177.408191 75.838002 177.408191 79.348162 C 177.549602 81.417736 177.630408 83.487311 177.670811 85.556885 C 177.711214 87.626459 177.771819 89.696033 177.832424 91.745318 C 177.91323 92.780105 177.973835 94.038081 178.034439 95.519247 C 178.115245 96.980123 177.953633 98.319259 177.569803 99.496076 C 177.185974 100.652603 176.276903 101.342461 174.842593 101.56565 C 174.216344 102.580148 173.367879 103.290296 172.297196 103.655515 C 171.226513 104.041024 170.115428 104.061314 168.943737 103.736674 C 167.852853 103.452615 166.883178 102.783047 166.075116 101.76855 C 165.772092 97.426502 165.549875 93.104744 165.388263 88.762696 C 165.22665 84.420648 165.065038 80.0786 164.923627 75.736552 C 164.782216 72.226392 164.681208 68.695942 164.600402 65.165491 C 164.539797 61.614751 164.438789 58.084301 164.297378 54.574141 C 164.236774 52.301667 164.176169 50.029193 164.155967 47.75672 C 164.115564 45.484246 164.176169 43.232062 164.297378 41.040748 C 164.984231 40.49292 165.650883 40.188571 166.277131 40.127701 C 166.277131 39.275523 166.539752 38.484215 167.105395 37.733488 C 167.913458 36.6987 168.842729 36.211742 169.873009 36.252322 C 170.903288 36.272612 171.994173 36.65812 173.085057 37.368269 C 174.196143 38.098706 175.186019 38.930594 176.074888 39.884222 C 176.963757 40.797269 177.65061 41.568287 178.135447 42.176985 C 179.913184 44.510329 181.549511 46.924832 183.024225 49.379915 C 184.539342 51.814708 185.953451 54.310372 187.327157 56.846614 C 188.498847 58.835029 189.630135 60.884313 190.721019 62.933598 C 191.832105 65.003172 192.902787 67.113326 193.953269 69.24377 C 194.074478 69.507539 194.155284 69.852468 194.155284 70.278557 L 195.79161 73.484368 C 195.508789 70.846676 195.145161 68.208983 194.660323 65.51042 C 194.175486 62.832148 193.71085 60.174165 193.226012 57.577052 C 192.862384 55.710378 192.518958 53.843703 192.175531 51.997318 C 191.852306 50.130643 191.407872 48.263968 190.842228 46.397293 C 190.559406 45.443666 190.296786 44.469749 190.074569 43.475542 C 189.83215 42.461044 189.973561 41.446547 190.519003 40.43205 C 191.003841 39.600162 191.589686 38.971174 192.276539 38.565375 C 192.276539 38.504505 192.296741 38.463925 192.337144 38.463925 C 192.377547 38.463925 192.377547 38.423346 192.377547 38.362476 C 193.003795 37.185659 193.953269 36.597251 195.225967 36.597251 C 196.498665 36.597251 197.589549 36.9016 198.49862 37.530588 C 198.700635 37.591458 198.943054 37.774067 199.225876 38.058127 C 199.427891 39.011754 199.650108 40.005961 199.93293 41.000168 C 200.215752 41.994376 200.478372 42.968293 200.761194 43.94221 C 201.589458 46.884252 202.276311 49.948034 202.821753 53.072685 C 203.387397 56.217626 203.892436 59.321988 204.357072 62.406059 C 205.407553 68.675652 206.235817 75.026404 206.862065 81.417736 C 207.468112 87.829359 207.993353 94.200401 208.397384 100.530863 C 207.83174 101.281591 207.144887 101.951159 206.316623 102.498988 C 205.508561 103.026526 204.619692 103.310586 203.650017 103.310586 Z M 209.427664 99.496076 C 209.286253 99.496076 209.165043 99.597526 209.023632 99.800425 C 208.336779 89.939513 207.387306 80.11918 206.175212 70.339427 C 204.963119 60.519094 203.286389 50.820501 201.165225 41.263938 C 201.023815 40.837849 201.124822 40.45234 201.48845 40.127701 C 201.751071 39.782772 202.1349 39.620452 202.599536 39.640742 C 203.084374 39.681322 203.367195 39.985671 203.4278 40.5335 C 205.286344 49.461075 206.761058 58.51039 207.811539 67.620575 C 208.882221 76.751049 209.38726 85.901814 209.326656 95.052579 C 209.38726 95.397508 209.447865 96.026496 209.488268 96.980123 C 209.50847 97.893171 209.50847 98.745348 209.427664 99.496076 Z M 164.196371 91.948217 C 163.93375 88.316317 163.731735 84.501808 163.570122 80.565559 C 163.428711 76.58873 163.307502 72.75393 163.166091 69.020581 C 163.02468 65.368391 162.923672 61.695911 162.863068 57.982851 C 162.802463 54.269792 162.741858 50.556732 162.661052 46.823382 C 162.580246 45.930625 162.600447 45.037867 162.741858 44.10453 C 162.883269 43.171192 163.125688 42.278435 163.469114 41.466837 C 163.40851 43.110323 163.388308 44.774098 163.428711 46.437873 C 163.448913 48.081359 163.509518 49.724844 163.570122 51.36833 C 163.650928 54.93936 163.751936 58.53068 163.852944 62.10171 C 163.953952 65.69303 164.034758 69.30464 164.095363 72.95683 L 165.024635 96.188815 C 165.024635 96.188815 164.943828 96.046786 164.762014 95.742437 C 164.5802 95.417798 164.398386 94.159821 164.196371 91.948217 Z M 175.771864 86.896021 L 175.44864 87.20037 C 175.44864 87.20037 175.428438 87.20037 175.388035 87.20037 C 175.367833 87.20037 175.307229 87.22066 175.246624 87.30182 L 175.145616 93.490253 C 175.145616 94.322141 175.287027 95.296058 175.59005 96.452585 C 175.913275 97.568532 175.913275 98.785928 175.569849 100.104775 C 176.256702 98.948248 176.539524 97.771431 176.377911 96.594614 C 176.317307 95.640987 176.256702 94.64678 176.2365 93.611993 C 176.196097 92.577205 176.115291 91.542418 175.97388 90.487341 C 175.97388 89.878643 175.953679 89.290234 175.933477 88.701826 C 175.893074 88.113418 175.832469 87.504719 175.771864 86.896021 Z M 256.820523 83.061222 C 256.052864 85.617755 255.062988 88.093128 253.810491 90.527921 C 252.578196 92.922134 250.982273 95.011999 248.982318 96.797514 C 248.780302 96.939543 248.537884 97.142443 248.23486 97.426502 C 247.770224 97.893171 247.103573 98.501869 246.275309 99.252597 C 245.447045 99.962745 244.59858 100.530863 243.709711 100.936662 C 241.36633 102.438118 238.820933 103.127976 236.073521 102.945367 C 233.305907 102.783047 230.659503 102.032319 228.15451 100.672893 C 225.649516 99.333757 223.528352 97.669981 221.81122 95.661277 C 220.094087 93.652572 218.639575 91.440969 217.488086 88.965595 C 216.861838 89.026465 216.235589 88.904726 215.629542 88.600376 C 215.003294 88.275737 214.518457 87.748199 214.17503 86.997471 C 211.629634 80.585849 210.195323 73.910457 209.872098 66.930717 C 209.569074 59.930686 210.175121 53.092975 211.690238 46.397293 C 212.114471 44.692938 212.740719 42.948003 213.609386 41.203068 C 214.457852 39.437843 215.589139 38.037837 217.003249 36.96247 C 218.417358 35.907393 220.154692 35.542174 222.235453 35.887103 C 223.467748 36.029132 224.578834 36.495801 225.588912 37.266819 C 226.578788 38.078417 227.326246 39.052334 227.790882 40.229151 C 228.356525 41.750896 228.396928 43.414672 227.952494 45.240767 C 227.50806 47.066862 227.225238 48.750927 227.083827 50.333543 C 226.942416 52.261087 226.86161 54.229212 226.86161 56.197336 C 226.86161 58.124881 226.902013 60.072716 226.982819 62.00026 C 227.265641 65.997379 227.831285 69.913338 228.720153 73.788717 C 229.609022 77.623517 230.760511 81.417736 232.134217 85.130796 C 232.881675 85.678625 233.649334 86.145293 234.457396 86.530802 C 235.265459 86.916311 236.113924 87.119211 237.002793 87.20037 C 239.002747 86.794571 240.71988 85.962684 242.174392 84.724997 C 242.982455 83.54818 243.527897 82.127884 243.810719 80.443819 C 244.093541 78.759754 244.255153 77.095978 244.335959 75.452493 C 244.396564 73.788717 244.457169 72.368421 244.537975 71.191605 C 244.8612 66.585787 245.043014 61.97997 245.043014 57.374153 C 245.043014 52.748046 245.002611 48.142229 244.942006 43.536411 C 244.8612 41.953796 245.568254 40.736399 247.002565 39.924801 C 248.457078 39.072624 249.830784 39.032044 251.143885 39.803062 L 251.143885 38.768275 C 251.143885 38.220446 251.345901 37.733488 251.749932 37.266819 C 252.174165 36.82044 252.659002 36.637831 253.204444 36.6987 C 254.780166 36.86102 255.931655 37.429138 256.658911 38.463925 C 257.386167 39.478423 257.871004 40.675529 258.093222 42.014666 C 258.355842 43.353802 258.517454 44.692938 258.578059 45.991495 C 258.699268 47.249471 258.840679 48.487158 258.98209 49.724844 C 259.1033 50.962531 259.184106 52.200217 259.184106 53.437904 L 259.184106 57.577052 C 259.406323 61.837941 259.345718 66.119119 259.022493 70.420587 C 258.71947 74.722055 257.992214 78.942363 256.820523 83.061222 Z M 226.659594 46.721933 C 226.396974 46.863962 226.194958 46.782802 226.053547 46.498743 C 225.992943 46.985702 225.871733 47.47266 225.730322 47.919039 C 225.588912 48.345128 225.427299 48.791507 225.225283 49.197306 C 224.801051 52.727756 224.619237 56.237916 224.639438 59.748076 C 224.679841 63.258237 225.043469 66.727817 225.730322 70.156818 C 225.871733 70.846676 226.033346 71.516244 226.154555 72.165522 C 226.295966 72.8148 226.437377 73.464078 226.558586 74.072777 C 226.699997 74.072777 226.801005 74.113357 226.86161 74.174226 C 225.225283 64.962592 225.144477 55.811827 226.659594 46.721933 Z M 226.659594 46.721933 " stroke="#100a09" stroke-width="8.261" stroke-opacity="1" stroke-miterlimit="4"/><path fill="#b2d12e" d="M 27.761719 37.148438 C 27.789062 37.429688 27.785156 37.710938 27.753906 37.992188 C 27.722656 38.269531 27.632812 38.53125 27.484375 38.777344 C 27.335938 39.03125 27.105469 39.210938 26.792969 39.324219 C 26.480469 39.4375 26.195312 39.371094 25.945312 39.121094 C 25.71875 39.066406 25.523438 38.949219 25.367188 38.773438 C 25.207031 38.59375 25.125 38.382812 25.125 38.144531 C 25.085938 36.449219 24.855469 34.757812 24.425781 33.078125 C 24.332031 32.652344 24.238281 32.230469 24.144531 31.816406 C 24.054688 31.398438 23.964844 30.984375 23.871094 30.570312 C 23.628906 31.257812 23.398438 31.996094 23.171875 32.785156 C 22.945312 33.574219 22.761719 34.25 22.613281 34.804688 C 22.476562 35.347656 22.34375 35.90625 22.21875 36.476562 C 22.09375 37.046875 21.988281 37.542969 21.910156 37.964844 C 21.898438 38.007812 21.882812 38.023438 21.863281 38.015625 C 21.84375 38.011719 21.832031 38 21.832031 37.984375 C 21.816406 38.078125 21.796875 38.171875 21.769531 38.265625 C 21.746094 38.359375 21.71875 38.457031 21.691406 38.5625 C 21.640625 38.695312 21.578125 38.816406 21.503906 38.925781 C 21.429688 39.027344 21.3125 39.097656 21.15625 39.136719 C 21.03125 39.164062 20.945312 39.160156 20.894531 39.121094 C 20.773438 39.121094 20.679688 39.09375 20.613281 39.039062 C 20.53125 39.09375 20.472656 39.074219 20.4375 38.980469 C 20.34375 38.835938 20.269531 38.691406 20.222656 38.546875 C 20.175781 38.398438 20.132812 38.242188 20.097656 38.082031 L 19.238281 35.042969 C 19.144531 34.710938 19.050781 34.382812 18.964844 34.050781 C 18.878906 33.71875 18.796875 33.386719 18.714844 33.054688 C 18.691406 32.976562 18.664062 32.898438 18.636719 32.816406 C 18.609375 32.738281 18.582031 32.652344 18.558594 32.558594 C 18.597656 33.390625 18.632812 34.242188 18.664062 35.105469 C 18.699219 35.96875 18.722656 36.816406 18.738281 37.648438 C 18.75 37.9375 18.738281 38.238281 18.707031 38.550781 C 18.675781 38.863281 18.5 39.089844 18.179688 39.234375 C 18.035156 39.304688 17.921875 39.292969 17.839844 39.199219 C 17.8125 39.171875 17.792969 39.144531 17.777344 39.121094 C 17.5 39.210938 17.265625 39.164062 17.078125 38.980469 C 16.90625 38.792969 16.792969 38.570312 16.742188 38.308594 C 16.6875 38.039062 16.648438 37.789062 16.621094 37.550781 C 16.539062 36.964844 16.480469 36.390625 16.4375 35.828125 C 16.398438 35.265625 16.375 34.699219 16.359375 34.128906 C 16.320312 32.949219 16.304688 31.773438 16.304688 30.589844 C 16.289062 30.019531 16.277344 29.445312 16.273438 28.863281 C 16.265625 28.28125 16.316406 27.703125 16.421875 27.132812 C 16.433594 27.078125 16.472656 27.046875 16.539062 27.046875 C 16.605469 27.046875 16.648438 27.078125 16.664062 27.132812 C 16.726562 27.527344 16.765625 27.949219 16.777344 28.398438 C 16.789062 28.839844 16.804688 29.273438 16.820312 29.695312 C 16.847656 29.695312 16.867188 29.765625 16.882812 29.910156 C 16.894531 30.058594 16.90625 30.128906 16.917969 30.128906 L 16.917969 29.671875 C 16.917969 29.433594 16.914062 29.199219 16.90625 28.96875 C 16.902344 28.738281 16.902344 28.5 16.902344 28.261719 C 16.886719 28.066406 16.882812 27.859375 16.890625 27.648438 C 16.898438 27.4375 16.945312 27.234375 17.039062 27.046875 C 17.039062 26.824219 17.152344 26.644531 17.382812 26.511719 C 17.699219 26.316406 18.035156 26.269531 18.378906 26.375 C 18.777344 26.453125 19.050781 26.683594 19.195312 27.070312 C 19.316406 27.214844 19.390625 27.394531 19.414062 27.609375 C 19.441406 27.847656 19.472656 28.089844 19.511719 28.335938 C 19.554688 28.582031 19.597656 28.828125 19.636719 29.078125 C 19.808594 30.097656 20 31.164062 20.210938 32.277344 C 20.425781 33.390625 20.648438 34.453125 20.875 35.457031 C 21.003906 34.902344 21.128906 34.347656 21.25 33.792969 C 21.371094 33.238281 21.5 32.679688 21.632812 32.121094 C 21.816406 31.261719 22.007812 30.402344 22.207031 29.546875 C 22.40625 28.691406 22.570312 27.832031 22.691406 26.96875 C 22.71875 26.863281 22.777344 26.769531 22.871094 26.683594 C 22.964844 26.597656 23.0625 26.546875 23.171875 26.535156 C 23.503906 26.441406 23.796875 26.46875 24.046875 26.613281 C 24.195312 26.507812 24.363281 26.457031 24.546875 26.457031 C 24.734375 26.457031 24.886719 26.523438 25.003906 26.652344 C 25.316406 26.957031 25.5625 27.300781 25.746094 27.6875 C 25.933594 28.070312 26.074219 28.46875 26.167969 28.878906 C 26.273438 29.328125 26.367188 29.777344 26.453125 30.222656 C 26.539062 30.667969 26.625 31.113281 26.703125 31.5625 C 26.730469 31.734375 26.761719 31.910156 26.792969 32.082031 C 26.828125 32.253906 26.851562 32.425781 26.867188 32.597656 C 26.902344 32.746094 26.9375 32.890625 26.96875 33.035156 C 27.003906 33.179688 27.035156 33.324219 27.0625 33.472656 C 27.128906 33.804688 27.191406 34.128906 27.25 34.445312 C 27.3125 34.765625 27.378906 35.089844 27.445312 35.421875 C 27.507812 35.710938 27.574219 36 27.632812 36.289062 C 27.695312 36.574219 27.738281 36.859375 27.761719 37.148438 Z M 19.476562 31.742188 C 19.515625 31.835938 19.546875 31.917969 19.574219 31.992188 C 19.601562 32.066406 19.644531 32.136719 19.695312 32.199219 C 19.601562 31.695312 19.492188 31.117188 19.371094 30.460938 C 19.253906 29.804688 19.148438 29.222656 19.054688 28.71875 C 19.042969 28.574219 19.023438 28.425781 18.996094 28.273438 C 18.96875 28.121094 18.9375 27.964844 18.898438 27.804688 C 18.816406 27.855469 18.722656 27.898438 18.617188 27.925781 C 18.617188 27.953125 18.609375 27.980469 18.597656 28.003906 C 18.742188 28.613281 18.882812 29.21875 19.023438 29.820312 C 19.164062 30.414062 19.300781 31.023438 19.433594 31.644531 C 19.460938 31.667969 19.476562 31.703125 19.476562 31.742188 Z M 22.507812 34.761719 C 22.699219 34.007812 22.898438 33.257812 23.109375 32.5 C 23.324219 31.742188 23.558594 30.992188 23.808594 30.25 C 23.796875 30.183594 23.785156 30.117188 23.769531 30.050781 C 23.757812 29.988281 23.734375 29.921875 23.707031 29.855469 C 23.496094 30.507812 23.296875 31.167969 23.109375 31.835938 C 22.925781 32.503906 22.753906 33.175781 22.59375 33.851562 C 22.578125 33.996094 22.554688 34.144531 22.519531 34.296875 C 22.488281 34.449219 22.457031 34.597656 22.429688 34.742188 C 22.445312 34.757812 22.464844 34.761719 22.492188 34.761719 Z M 22.507812 34.761719 " fill-opacity="1" fill-rule="nonzero"/><path fill="#b2d12e" d="M 27.121094 28.683594 C 27.789062 28.335938 28.480469 28.042969 29.199219 27.804688 C 29.917969 27.566406 30.640625 27.355469 31.359375 27.167969 L 31.816406 27.046875 C 32.226562 26.96875 32.636719 26.890625 33.050781 26.820312 C 33.464844 26.746094 33.886719 26.699219 34.3125 26.675781 C 34.402344 26.660156 34.492188 26.652344 34.578125 26.652344 C 34.664062 26.652344 34.753906 26.652344 34.847656 26.652344 C 34.464844 26.746094 34.070312 26.84375 33.671875 26.945312 C 33.273438 27.042969 32.878906 27.136719 32.492188 27.230469 C 31.816406 27.375 31.140625 27.53125 30.464844 27.695312 C 29.792969 27.863281 29.125 28.058594 28.460938 28.28125 C 28.234375 28.347656 28.007812 28.425781 27.789062 28.511719 C 27.570312 28.597656 27.347656 28.695312 27.121094 28.800781 C 27.070312 28.773438 27.070312 28.734375 27.121094 28.683594 Z M 38.324219 36.769531 C 38.296875 36.894531 38.230469 36.960938 38.128906 36.972656 C 37.394531 37.105469 36.65625 37.269531 35.917969 37.460938 C 35.175781 37.652344 34.453125 37.875 33.75 38.125 C 33.417969 38.242188 33.085938 38.363281 32.742188 38.484375 C 32.402344 38.601562 32.066406 38.734375 31.734375 38.882812 L 31.710938 38.882812 C 31.703125 38.894531 31.683594 38.902344 31.65625 38.910156 C 31.625 38.917969 31.601562 38.925781 31.578125 38.941406 C 31.46875 38.992188 31.359375 39.039062 31.242188 39.078125 C 31.132812 39.117188 31.023438 39.164062 30.914062 39.21875 L 30.894531 39.234375 C 30.8125 39.289062 30.664062 39.359375 30.445312 39.4375 C 30.226562 39.515625 30.019531 39.582031 29.824219 39.636719 C 29.632812 39.6875 29.539062 39.710938 29.539062 39.710938 C 29.539062 39.710938 29.515625 39.714844 29.464844 39.722656 C 29.421875 39.730469 29.378906 39.734375 29.335938 39.734375 C 29.179688 39.761719 29.019531 39.761719 28.863281 39.734375 C 28.703125 39.710938 28.582031 39.609375 28.503906 39.4375 C 28.460938 39.359375 28.453125 39.265625 28.480469 39.15625 C 28.226562 39.054688 28.027344 38.871094 27.886719 38.613281 C 27.746094 38.355469 27.726562 38.097656 27.820312 37.84375 C 27.765625 37.503906 27.722656 37.15625 27.6875 36.808594 C 27.65625 36.453125 27.628906 36.105469 27.601562 35.757812 L 27.359375 33.371094 L 27.121094 31.105469 C 26.867188 30.828125 26.761719 30.503906 26.804688 30.128906 C 26.839844 29.761719 27.007812 29.449219 27.304688 29.195312 C 27.3125 29.171875 27.324219 29.148438 27.339844 29.117188 C 27.351562 29.089844 27.367188 29.066406 27.382812 29.039062 C 27.59375 28.945312 27.804688 28.859375 28.015625 28.78125 C 28.234375 28.703125 28.445312 28.628906 28.660156 28.5625 C 29.324219 28.339844 29.992188 28.144531 30.664062 27.976562 C 31.339844 27.8125 32.015625 27.660156 32.691406 27.523438 C 33.226562 27.410156 33.753906 27.28125 34.269531 27.140625 C 34.789062 27 35.308594 26.863281 35.828125 26.730469 C 35.894531 26.746094 35.964844 26.757812 36.039062 26.761719 C 36.109375 26.769531 36.175781 26.785156 36.230469 26.808594 L 36.546875 26.929688 C 36.601562 26.96875 36.652344 27.015625 36.703125 27.0625 C 36.757812 27.109375 36.8125 27.152344 36.867188 27.1875 C 36.929688 27.402344 36.976562 27.613281 37.007812 27.816406 C 37.035156 28.019531 37.027344 28.222656 36.984375 28.421875 L 35.992188 28.71875 C 35.773438 28.789062 35.550781 28.855469 35.316406 28.921875 C 35.085938 28.988281 34.855469 29.054688 34.628906 29.117188 C 34.578125 29.148438 34.539062 29.160156 34.511719 29.160156 C 34.257812 29.226562 33.960938 29.308594 33.621094 29.410156 C 33.28125 29.507812 32.945312 29.605469 32.601562 29.703125 C 32.261719 29.804688 31.972656 29.894531 31.734375 29.972656 C 31.492188 30.054688 31.347656 30.105469 31.296875 30.128906 C 30.976562 30.238281 30.65625 30.351562 30.335938 30.472656 C 30.015625 30.589844 29.703125 30.714844 29.398438 30.847656 L 29.355469 30.886719 C 29.371094 30.953125 29.386719 31.0625 29.410156 31.214844 C 29.429688 31.367188 29.449219 31.511719 29.464844 31.644531 C 29.488281 31.777344 29.496094 31.863281 29.496094 31.898438 C 30.054688 31.664062 30.613281 31.429688 31.164062 31.199219 C 31.71875 30.964844 32.28125 30.742188 32.851562 30.53125 C 33.171875 30.449219 33.496094 30.367188 33.824219 30.28125 C 34.148438 30.195312 34.472656 30.105469 34.792969 30.011719 L 35.046875 29.953125 C 35.167969 29.925781 35.285156 29.910156 35.398438 29.902344 C 35.511719 29.894531 35.628906 29.886719 35.75 29.875 C 36 29.863281 36.238281 29.878906 36.464844 29.925781 C 36.695312 29.972656 36.875 30.113281 37.007812 30.351562 C 37.035156 30.378906 37.050781 30.402344 37.054688 30.429688 C 37.058594 30.460938 37.070312 30.484375 37.085938 30.507812 C 37.113281 30.550781 37.132812 30.589844 37.148438 30.632812 C 37.160156 30.671875 37.171875 30.710938 37.183594 30.746094 C 37.195312 30.761719 37.210938 30.769531 37.226562 30.769531 C 37.414062 30.863281 37.523438 31.027344 37.5625 31.265625 C 37.605469 31.453125 37.574219 31.644531 37.476562 31.835938 C 37.375 32.027344 37.230469 32.167969 37.046875 32.257812 C 36.832031 32.351562 36.617188 32.40625 36.398438 32.429688 C 36.179688 32.449219 35.957031 32.484375 35.730469 32.539062 C 35.492188 32.578125 35.246094 32.621094 35 32.667969 C 34.753906 32.710938 34.511719 32.769531 34.269531 32.839844 C 33.792969 32.96875 33.316406 33.113281 32.84375 33.265625 C 32.371094 33.417969 31.902344 33.59375 31.4375 33.792969 C 31.144531 33.910156 30.859375 34.035156 30.585938 34.171875 C 30.3125 34.304688 30.035156 34.441406 29.757812 34.585938 L 29.878906 35.878906 C 29.878906 35.894531 29.878906 35.902344 29.878906 35.910156 C 29.878906 35.917969 29.878906 35.933594 29.878906 35.957031 L 29.933594 35.921875 C 30.164062 35.8125 30.386719 35.714844 30.609375 35.628906 C 30.828125 35.542969 31.042969 35.453125 31.253906 35.359375 L 32.953125 34.707031 C 33.097656 34.640625 33.246094 34.582031 33.402344 34.53125 C 33.554688 34.476562 33.703125 34.421875 33.855469 34.367188 C 34.089844 34.277344 34.328125 34.1875 34.566406 34.097656 C 34.808594 34.011719 35.046875 33.929688 35.285156 33.851562 L 36.070312 33.609375 C 36.175781 33.585938 36.28125 33.546875 36.386719 33.503906 C 36.492188 33.457031 36.601562 33.421875 36.703125 33.394531 C 37.09375 33.3125 37.410156 33.347656 37.652344 33.492188 C 37.898438 33.636719 38.097656 33.851562 38.242188 34.128906 C 38.390625 34.40625 38.503906 34.710938 38.574219 35.042969 C 38.648438 35.375 38.691406 35.679688 38.707031 35.957031 C 38.71875 36.128906 38.6875 36.289062 38.613281 36.429688 C 38.539062 36.566406 38.441406 36.679688 38.324219 36.769531 Z M 33.496094 32.558594 C 33.183594 32.652344 32.875 32.746094 32.5625 32.839844 C 32.25 32.929688 31.9375 33.027344 31.632812 33.132812 C 31.4375 33.1875 31.238281 33.242188 31.046875 33.304688 C 30.855469 33.363281 30.664062 33.417969 30.476562 33.472656 C 30.433594 33.695312 30.328125 33.882812 30.160156 34.03125 C 30.648438 33.78125 31.148438 33.554688 31.660156 33.355469 C 32.171875 33.15625 32.675781 32.957031 33.171875 32.753906 C 33.277344 32.703125 33.390625 32.65625 33.511719 32.613281 Z M 29.082031 39.4375 C 29.226562 39.449219 29.390625 39.453125 29.574219 39.449219 C 29.761719 39.441406 29.871094 39.429688 29.898438 39.417969 C 29.921875 39.417969 29.941406 39.410156 29.957031 39.394531 C 30.035156 39.359375 30.113281 39.320312 30.195312 39.277344 C 30.273438 39.238281 30.347656 39.199219 30.414062 39.15625 C 30.574219 39.078125 30.730469 39 30.882812 38.917969 C 31.039062 38.839844 31.191406 38.761719 31.335938 38.679688 L 31.335938 38.644531 C 31.164062 38.710938 30.984375 38.777344 30.796875 38.839844 C 30.609375 38.90625 30.425781 38.972656 30.238281 39.039062 C 30.050781 39.105469 29.859375 39.171875 29.664062 39.246094 C 29.472656 39.320312 29.277344 39.382812 29.082031 39.4375 Z M 29.082031 39.4375 " fill-opacity="1" fill-rule="nonzero"/><path fill="#b2d12e" d="M 46.449219 39.234375 C 46.332031 39.316406 46.195312 39.316406 46.046875 39.234375 C 45.785156 39.117188 45.605469 38.925781 45.511719 38.65625 C 45.417969 38.382812 45.34375 38.117188 45.292969 37.867188 L 45.171875 37.191406 L 41.695312 31.007812 C 41.644531 30.941406 41.589844 30.871094 41.535156 30.789062 C 41.484375 30.710938 41.429688 30.636719 41.378906 30.570312 C 41.390625 31.246094 41.394531 31.921875 41.390625 32.597656 C 41.382812 33.273438 41.378906 33.949219 41.378906 34.625 C 41.402344 35.019531 41.417969 35.417969 41.425781 35.816406 C 41.433594 36.214844 41.441406 36.613281 41.457031 37.007812 C 41.46875 37.210938 41.484375 37.453125 41.5 37.742188 C 41.511719 38.023438 41.480469 38.28125 41.40625 38.503906 C 41.332031 38.730469 41.15625 38.859375 40.878906 38.898438 C 40.753906 39.097656 40.59375 39.234375 40.386719 39.308594 C 40.183594 39.378906 39.96875 39.382812 39.742188 39.320312 C 39.527344 39.261719 39.339844 39.136719 39.179688 38.941406 C 39.128906 38.105469 39.082031 37.273438 39.050781 36.4375 C 39.019531 35.601562 38.988281 34.765625 38.960938 33.929688 C 38.933594 33.253906 38.910156 32.578125 38.898438 31.894531 C 38.886719 31.210938 38.867188 30.53125 38.839844 29.855469 C 38.828125 29.417969 38.816406 28.976562 38.808594 28.542969 C 38.800781 28.105469 38.8125 27.671875 38.839844 27.25 C 38.972656 27.144531 39.097656 27.082031 39.222656 27.070312 C 39.222656 26.910156 39.273438 26.757812 39.382812 26.613281 C 39.542969 26.414062 39.722656 26.320312 39.917969 26.328125 C 40.121094 26.335938 40.328125 26.40625 40.539062 26.542969 C 40.75 26.683594 40.945312 26.84375 41.117188 27.023438 C 41.292969 27.199219 41.425781 27.347656 41.519531 27.46875 C 41.863281 27.917969 42.175781 28.378906 42.460938 28.847656 C 42.75 29.320312 43.027344 29.800781 43.296875 30.289062 C 43.523438 30.675781 43.742188 31.066406 43.953125 31.464844 C 44.164062 31.863281 44.371094 32.265625 44.574219 32.675781 C 44.601562 32.730469 44.613281 32.796875 44.613281 32.875 L 44.933594 33.492188 C 44.878906 32.988281 44.808594 32.476562 44.714844 31.960938 C 44.621094 31.445312 44.527344 30.9375 44.433594 30.429688 C 44.367188 30.070312 44.300781 29.714844 44.234375 29.355469 C 44.167969 29 44.082031 28.644531 43.972656 28.28125 C 43.921875 28.097656 43.871094 27.90625 43.824219 27.71875 C 43.777344 27.523438 43.808594 27.328125 43.910156 27.132812 C 44.003906 26.972656 44.121094 26.851562 44.253906 26.773438 C 44.253906 26.761719 44.257812 26.753906 44.261719 26.753906 C 44.265625 26.753906 44.269531 26.746094 44.269531 26.730469 C 44.390625 26.507812 44.574219 26.394531 44.824219 26.394531 C 45.070312 26.394531 45.277344 26.457031 45.449219 26.574219 C 45.488281 26.585938 45.535156 26.621094 45.589844 26.675781 C 45.628906 26.859375 45.679688 27.046875 45.730469 27.238281 C 45.78125 27.429688 45.835938 27.617188 45.890625 27.804688 C 46.050781 28.375 46.183594 28.964844 46.289062 29.570312 C 46.394531 30.171875 46.496094 30.769531 46.589844 31.363281 C 46.789062 32.574219 46.945312 33.792969 47.0625 35.023438 C 47.183594 36.253906 47.285156 37.480469 47.367188 38.699219 C 47.261719 38.847656 47.128906 38.972656 46.96875 39.078125 C 46.808594 39.183594 46.636719 39.234375 46.449219 39.234375 Z M 47.570312 38.503906 C 47.539062 38.503906 47.511719 38.523438 47.484375 38.5625 C 47.351562 36.664062 47.171875 34.773438 46.9375 32.886719 C 46.707031 30.996094 46.382812 29.132812 45.96875 27.285156 C 45.941406 27.207031 45.960938 27.136719 46.03125 27.070312 C 46.085938 27.003906 46.15625 26.972656 46.25 26.980469 C 46.34375 26.988281 46.398438 27.046875 46.40625 27.152344 C 46.769531 28.875 47.050781 30.613281 47.257812 32.371094 C 47.464844 34.125 47.5625 35.882812 47.546875 37.648438 C 47.5625 37.714844 47.570312 37.835938 47.578125 38.015625 C 47.585938 38.195312 47.582031 38.359375 47.570312 38.503906 Z M 38.820312 37.050781 C 38.769531 36.347656 38.726562 35.617188 38.699219 34.855469 C 38.675781 34.09375 38.648438 33.351562 38.621094 32.636719 C 38.59375 31.933594 38.574219 31.226562 38.558594 30.507812 C 38.550781 29.792969 38.535156 29.078125 38.523438 28.359375 C 38.507812 28.191406 38.515625 28.015625 38.539062 27.835938 C 38.566406 27.65625 38.613281 27.488281 38.679688 27.328125 C 38.667969 27.648438 38.664062 27.964844 38.667969 28.28125 C 38.675781 28.601562 38.6875 28.917969 38.699219 29.238281 C 38.714844 29.925781 38.730469 30.617188 38.753906 31.308594 C 38.773438 31.996094 38.789062 32.691406 38.800781 33.394531 L 38.980469 37.867188 C 38.980469 37.867188 38.964844 37.835938 38.929688 37.777344 C 38.898438 37.71875 38.863281 37.476562 38.820312 37.050781 Z M 41.054688 36.074219 L 41 36.136719 C 41 36.136719 40.996094 36.136719 40.988281 36.136719 C 40.980469 36.136719 40.96875 36.144531 40.957031 36.160156 L 40.9375 37.347656 C 40.9375 37.507812 40.964844 37.695312 41.023438 37.917969 C 41.085938 38.136719 41.085938 38.371094 41.019531 38.625 C 41.152344 38.398438 41.203125 38.171875 41.175781 37.945312 C 41.164062 37.761719 41.15625 37.570312 41.148438 37.371094 C 41.140625 37.171875 41.125 36.972656 41.097656 36.769531 C 41.097656 36.65625 41.09375 36.539062 41.085938 36.429688 C 41.078125 36.316406 41.070312 36.199219 41.054688 36.074219 Z M 41.054688 36.074219 " fill-opacity="1" fill-rule="nonzero"/><path fill="#b2d12e" d="M 56.730469 35.339844 C 56.585938 35.832031 56.390625 36.308594 56.152344 36.769531 C 55.914062 37.234375 55.601562 37.640625 55.214844 37.984375 C 55.171875 38.015625 55.125 38.050781 55.074219 38.105469 C 54.980469 38.199219 54.851562 38.316406 54.695312 38.453125 C 54.535156 38.589844 54.367188 38.699219 54.195312 38.777344 C 53.742188 39.074219 53.25 39.203125 52.71875 39.171875 C 52.1875 39.140625 51.679688 38.992188 51.191406 38.730469 C 50.703125 38.472656 50.296875 38.152344 49.960938 37.765625 C 49.628906 37.382812 49.347656 36.953125 49.121094 36.476562 C 49.003906 36.488281 48.882812 36.46875 48.761719 36.40625 C 48.644531 36.34375 48.550781 36.242188 48.480469 36.097656 C 47.992188 34.867188 47.714844 33.578125 47.652344 32.230469 C 47.59375 30.886719 47.710938 29.570312 48.003906 28.28125 C 48.082031 27.949219 48.207031 27.617188 48.371094 27.28125 C 48.539062 26.941406 48.757812 26.671875 49.027344 26.46875 C 49.304688 26.257812 49.640625 26.1875 50.039062 26.253906 C 50.28125 26.28125 50.496094 26.371094 50.6875 26.523438 C 50.878906 26.675781 51.023438 26.863281 51.117188 27.089844 C 51.226562 27.378906 51.234375 27.703125 51.148438 28.054688 C 51.0625 28.40625 51.003906 28.738281 50.976562 29.039062 C 50.953125 29.410156 50.941406 29.785156 50.941406 30.160156 C 50.941406 30.539062 50.949219 30.914062 50.960938 31.285156 C 51.015625 32.054688 51.125 32.8125 51.300781 33.554688 C 51.472656 34.292969 51.695312 35.023438 51.957031 35.738281 C 52.105469 35.847656 52.253906 35.9375 52.40625 36.007812 C 52.558594 36.082031 52.722656 36.125 52.894531 36.136719 C 53.28125 36.058594 53.613281 35.898438 53.894531 35.660156 C 54.054688 35.4375 54.164062 35.160156 54.214844 34.835938 C 54.269531 34.511719 54.304688 34.191406 54.3125 33.871094 C 54.328125 33.554688 54.339844 33.28125 54.355469 33.054688 C 54.421875 32.167969 54.453125 31.28125 54.453125 30.394531 C 54.453125 29.507812 54.445312 28.617188 54.433594 27.726562 C 54.421875 27.425781 54.554688 27.191406 54.835938 27.03125 C 55.113281 26.875 55.378906 26.867188 55.632812 27.011719 L 55.632812 26.808594 C 55.632812 26.707031 55.671875 26.609375 55.75 26.523438 C 55.832031 26.4375 55.925781 26.402344 56.03125 26.414062 C 56.335938 26.445312 56.5625 26.554688 56.699219 26.753906 C 56.84375 26.949219 56.9375 27.175781 56.980469 27.4375 C 57.027344 27.695312 57.054688 27.953125 57.070312 28.203125 C 57.097656 28.445312 57.125 28.683594 57.148438 28.921875 C 57.175781 29.160156 57.191406 29.398438 57.191406 29.636719 L 57.191406 30.429688 C 57.230469 31.253906 57.222656 32.082031 57.160156 32.910156 C 57.097656 33.738281 56.957031 34.546875 56.730469 35.339844 Z M 50.898438 28.34375 C 50.847656 28.371094 50.808594 28.355469 50.78125 28.304688 C 50.765625 28.398438 50.746094 28.488281 50.71875 28.574219 C 50.691406 28.660156 50.660156 28.742188 50.617188 28.824219 C 50.539062 29.496094 50.5 30.175781 50.507812 30.851562 C 50.515625 31.527344 50.585938 32.195312 50.722656 32.855469 C 50.746094 32.988281 50.773438 33.121094 50.800781 33.25 C 50.828125 33.371094 50.855469 33.496094 50.878906 33.609375 C 50.90625 33.609375 50.925781 33.617188 50.941406 33.632812 C 50.621094 31.855469 50.609375 30.09375 50.898438 28.34375 Z M 50.898438 28.34375 " fill-opacity="1" fill-rule="nonzero"/><path fill="#000000" d="M 17.113281 50.074219 L 17.113281 40.15625 L 20.03125 40.15625 L 22.414062 43.996094 L 24.789062 40.15625 L 27.707031 40.15625 L 27.707031 50.074219 L 24.960938 50.074219 L 24.960938 44.378906 L 22.414062 48.261719 L 22.355469 48.261719 L 19.816406 44.390625 L 19.816406 50.074219 Z M 17.113281 50.074219 " fill-opacity="1" fill-rule="nonzero"/><path fill="#000000" d="M 28.6875 50.074219 L 32.917969 40.082031 L 35.574219 40.082031 L 39.824219 50.074219 L 36.859375 50.074219 L 36.148438 48.292969 L 32.289062 48.292969 L 31.578125 50.074219 Z M 33.101562 46.148438 L 35.335938 46.148438 L 34.226562 43.339844 Z M 33.101562 46.148438 " fill-opacity="1" fill-rule="nonzero"/><path fill="#000000" d="M 40.785156 50.074219 L 40.785156 40.15625 L 45.074219 40.15625 C 46.316406 40.15625 47.316406 40.464844 48.070312 41.078125 C 48.824219 41.691406 49.199219 42.542969 49.199219 43.625 L 49.199219 43.652344 C 49.199219 44.242188 49.09375 44.761719 48.878906 45.210938 C 48.664062 45.65625 48.367188 46.027344 47.984375 46.324219 C 47.605469 46.625 47.15625 46.851562 46.636719 47.007812 C 46.113281 47.164062 45.542969 47.242188 44.925781 47.242188 L 43.546875 47.242188 L 43.546875 50.074219 Z M 43.546875 45.085938 L 44.871094 45.085938 C 45.355469 45.085938 45.742188 44.964844 46.027344 44.726562 C 46.308594 44.484375 46.453125 44.171875 46.453125 43.78125 L 46.453125 43.757812 C 46.453125 43.332031 46.308594 43.007812 46.015625 42.792969 C 45.726562 42.574219 45.339844 42.464844 44.859375 42.464844 L 43.546875 42.464844 Z M 43.546875 45.085938 " fill-opacity="1" fill-rule="nonzero"/><path fill="#000000" d="M 54.28125 50.246094 C 53.398438 50.246094 52.554688 50.109375 51.746094 49.832031 C 50.9375 49.550781 50.226562 49.140625 49.613281 48.601562 L 51.148438 46.769531 C 51.644531 47.160156 52.164062 47.453125 52.707031 47.65625 C 53.253906 47.863281 53.808594 47.964844 54.382812 47.964844 C 54.757812 47.964844 55.046875 47.90625 55.242188 47.78125 C 55.433594 47.65625 55.53125 47.492188 55.53125 47.285156 L 55.53125 47.253906 C 55.53125 47.046875 55.421875 46.875 55.199219 46.738281 C 54.976562 46.601562 54.523438 46.453125 53.839844 46.292969 C 53.308594 46.167969 52.808594 46.035156 52.347656 45.890625 C 51.890625 45.742188 51.496094 45.550781 51.160156 45.316406 C 50.828125 45.085938 50.566406 44.800781 50.375 44.457031 C 50.179688 44.113281 50.082031 43.6875 50.082031 43.1875 L 50.082031 43.160156 C 50.082031 42.695312 50.171875 42.269531 50.351562 41.882812 C 50.53125 41.496094 50.785156 41.164062 51.113281 40.886719 C 51.4375 40.605469 51.84375 40.386719 52.324219 40.226562 C 52.800781 40.066406 53.339844 39.984375 53.9375 39.984375 C 54.78125 39.984375 55.539062 40.097656 56.214844 40.316406 C 56.890625 40.539062 57.496094 40.867188 58.039062 41.300781 L 56.660156 43.242188 C 56.203125 42.921875 55.730469 42.679688 55.246094 42.515625 C 54.761719 42.351562 54.304688 42.265625 53.863281 42.265625 C 53.535156 42.265625 53.285156 42.328125 53.121094 42.453125 C 52.953125 42.574219 52.871094 42.726562 52.871094 42.90625 L 52.871094 42.929688 C 52.871094 43.160156 52.984375 43.339844 53.21875 43.472656 C 53.449219 43.601562 53.914062 43.746094 54.609375 43.898438 C 55.738281 44.144531 56.636719 44.488281 57.304688 44.933594 C 57.972656 45.378906 58.308594 46.058594 58.308594 46.984375 L 58.308594 47.015625 C 58.308594 47.515625 58.210938 47.96875 58.019531 48.367188 C 57.824219 48.769531 57.550781 49.109375 57.199219 49.390625 C 56.847656 49.667969 56.425781 49.882812 55.921875 50.027344 C 55.425781 50.175781 54.878906 50.246094 54.28125 50.246094 Z M 54.28125 50.246094 " fill-opacity="1" fill-rule="nonzero"/><path fill="#ffffff" d="M 13.789062 34.660156 L 13.53125 35.742188 L 12.65625 35.535156 L 12.71875 35.277344 L 13.285156 35.410156 L 13.332031 35.226562 L 12.820312 35.101562 L 12.878906 34.851562 L 13.390625 34.976562 L 13.484375 34.585938 Z M 13.789062 34.660156 " fill-opacity="1" fill-rule="nonzero"/><path fill="#ffffff" d="M 12.660156 34.363281 L 12.308594 35.421875 L 12.015625 35.328125 L 12.371094 34.269531 Z M 12.660156 34.363281 " fill-opacity="1" fill-rule="nonzero"/><path fill="#ffffff" d="M 12.070312 34.167969 L 11.617188 35.191406 L 11.34375 35.078125 L 11.167969 34.347656 L 10.925781 34.890625 L 10.644531 34.765625 L 11.097656 33.742188 L 11.351562 33.851562 L 11.539062 34.605469 L 11.789062 34.046875 Z M 12.070312 34.167969 " fill-opacity="1" fill-rule="nonzero"/><path fill="#ffffff" d="M 10.839844 33.605469 L 10.257812 34.5625 L 9.886719 34.339844 C 9.800781 34.285156 9.734375 34.226562 9.683594 34.164062 C 9.632812 34.101562 9.597656 34.03125 9.574219 33.960938 C 9.550781 33.890625 9.542969 33.820312 9.554688 33.746094 C 9.566406 33.675781 9.589844 33.609375 9.632812 33.539062 L 9.636719 33.535156 C 9.679688 33.46875 9.730469 33.414062 9.792969 33.367188 C 9.855469 33.320312 9.917969 33.289062 9.992188 33.28125 C 10.066406 33.265625 10.144531 33.269531 10.226562 33.285156 C 10.308594 33.300781 10.390625 33.335938 10.476562 33.390625 Z M 10.027344 34.101562 L 10.132812 34.164062 L 10.425781 33.679688 L 10.320312 33.617188 C 10.242188 33.566406 10.167969 33.546875 10.097656 33.5625 C 10.023438 33.574219 9.964844 33.621094 9.914062 33.695312 L 9.914062 33.699219 C 9.867188 33.78125 9.855469 33.851562 9.878906 33.917969 C 9.898438 33.988281 9.949219 34.046875 10.027344 34.101562 Z M 10.027344 34.101562 " fill-opacity="1" fill-rule="nonzero"/><path fill="#ffffff" d="M 9.054688 32.371094 L 8.492188 33.003906 L 8.746094 33.226562 L 8.570312 33.429688 L 7.832031 32.785156 L 8.007812 32.585938 L 8.261719 32.800781 L 8.824219 32.167969 Z M 9.054688 32.371094 " fill-opacity="1" fill-rule="nonzero"/><path fill="#ffffff" d="M 8.402344 31.785156 L 7.566406 32.527344 L 7.359375 32.296875 L 7.671875 32.015625 L 7.410156 31.71875 L 7.097656 32 L 6.890625 31.769531 L 7.722656 31.027344 L 7.933594 31.257812 L 7.613281 31.542969 L 7.875 31.839844 L 8.191406 31.554688 Z M 8.402344 31.785156 " fill-opacity="1" fill-rule="nonzero"/><path fill="#ffffff" d="M 7.542969 30.792969 L 6.625 31.429688 L 6.109375 30.699219 L 6.320312 30.546875 L 6.660156 31.03125 L 6.800781 30.9375 L 6.492188 30.5 L 6.691406 30.359375 L 7 30.796875 L 7.144531 30.691406 L 6.800781 30.207031 L 7.019531 30.054688 Z M 7.542969 30.792969 " fill-opacity="1" fill-rule="nonzero"/><path fill="#ffffff" d="M 6.601562 29.328125 L 5.59375 29.804688 L 5.390625 29.375 C 5.328125 29.25 5.308594 29.132812 5.335938 29.027344 C 5.367188 28.921875 5.433594 28.839844 5.539062 28.789062 L 5.546875 28.785156 C 5.605469 28.757812 5.664062 28.742188 5.71875 28.742188 C 5.773438 28.742188 5.824219 28.753906 5.875 28.777344 C 5.921875 28.804688 5.96875 28.839844 6.007812 28.882812 C 6.050781 28.929688 6.085938 28.980469 6.117188 29.042969 L 6.179688 29.183594 L 6.46875 29.050781 Z M 5.957031 29.289062 L 5.894531 29.152344 C 5.875 29.105469 5.84375 29.070312 5.804688 29.054688 C 5.769531 29.039062 5.730469 29.039062 5.691406 29.054688 L 5.6875 29.054688 C 5.640625 29.074219 5.617188 29.105469 5.609375 29.148438 C 5.601562 29.1875 5.609375 29.234375 5.628906 29.277344 L 5.691406 29.410156 Z M 5.957031 29.289062 " fill-opacity="1" fill-rule="nonzero"/><path fill="#ffffff" d="M 6.136719 28.347656 L 4.925781 28.25 L 4.832031 27.964844 L 5.746094 27.164062 L 5.851562 27.480469 L 5.683594 27.617188 L 5.820312 28.027344 L 6.039062 28.042969 Z M 5.566406 28.019531 L 5.480469 27.777344 L 5.222656 27.996094 Z M 5.566406 28.019531 " fill-opacity="1" fill-rule="nonzero"/><path fill="#ffffff" d="M 5.652344 26.6875 L 4.820312 26.855469 L 4.886719 27.1875 L 4.621094 27.238281 L 4.429688 26.277344 L 4.695312 26.226562 L 4.761719 26.558594 L 5.597656 26.394531 Z M 5.652344 26.6875 " fill-opacity="1" fill-rule="nonzero"/><path fill="#ffffff" d="M 5.5 25.828125 L 4.382812 25.910156 L 4.355469 25.601562 L 4.773438 25.570312 L 4.742188 25.175781 L 4.324219 25.207031 L 4.304688 24.898438 L 5.421875 24.816406 L 5.441406 25.125 L 5.015625 25.15625 L 5.046875 25.546875 L 5.472656 25.519531 Z M 5.5 25.828125 " fill-opacity="1" fill-rule="nonzero"/><path fill="#ffffff" d="M 5.460938 23.671875 L 4.617188 23.589844 L 4.585938 23.925781 L 4.316406 23.898438 L 4.410156 22.925781 L 4.679688 22.949219 L 4.648438 23.289062 L 5.492188 23.371094 Z M 5.460938 23.671875 " fill-opacity="1" fill-rule="nonzero"/><path fill="#ffffff" d="M 5.703125 22.261719 C 5.6875 22.347656 5.652344 22.421875 5.605469 22.484375 C 5.558594 22.546875 5.503906 22.601562 5.441406 22.640625 C 5.378906 22.683594 5.3125 22.710938 5.238281 22.726562 C 5.164062 22.734375 5.085938 22.734375 5.011719 22.714844 C 4.929688 22.699219 4.859375 22.667969 4.796875 22.621094 C 4.734375 22.578125 4.683594 22.523438 4.640625 22.460938 C 4.597656 22.394531 4.574219 22.324219 4.5625 22.246094 C 4.550781 22.167969 4.550781 22.085938 4.566406 22 C 4.589844 21.914062 4.621094 21.84375 4.667969 21.78125 C 4.710938 21.714844 4.765625 21.664062 4.828125 21.625 C 4.890625 21.582031 4.960938 21.554688 5.035156 21.542969 C 5.113281 21.527344 5.191406 21.53125 5.269531 21.546875 L 5.277344 21.546875 C 5.351562 21.566406 5.421875 21.597656 5.484375 21.640625 C 5.542969 21.6875 5.59375 21.742188 5.632812 21.804688 C 5.671875 21.867188 5.699219 21.941406 5.714844 22.019531 C 5.726562 22.097656 5.726562 22.179688 5.703125 22.261719 Z M 5.433594 22.195312 C 5.441406 22.152344 5.441406 22.117188 5.433594 22.082031 C 5.421875 22.042969 5.410156 22.011719 5.390625 21.984375 C 5.375 21.953125 5.347656 21.925781 5.3125 21.90625 C 5.277344 21.882812 5.242188 21.867188 5.203125 21.859375 C 5.160156 21.851562 5.121094 21.851562 5.082031 21.851562 C 5.046875 21.855469 5.011719 21.867188 4.980469 21.882812 C 4.945312 21.902344 4.917969 21.925781 4.894531 21.957031 C 4.871094 21.984375 4.855469 22.023438 4.84375 22.066406 C 4.832031 22.105469 4.832031 22.148438 4.84375 22.183594 C 4.851562 22.21875 4.863281 22.253906 4.886719 22.285156 C 4.90625 22.316406 4.933594 22.339844 4.964844 22.363281 C 4.996094 22.382812 5.03125 22.398438 5.074219 22.410156 L 5.078125 22.410156 C 5.113281 22.417969 5.152344 22.421875 5.191406 22.414062 C 5.230469 22.40625 5.265625 22.394531 5.296875 22.378906 C 5.328125 22.359375 5.359375 22.335938 5.386719 22.304688 C 5.410156 22.273438 5.425781 22.238281 5.433594 22.195312 Z M 5.433594 22.195312 " fill-opacity="1" fill-rule="nonzero"/><path fill="#ffffff" d="M 6.214844 20.59375 L 5.835938 20.425781 L 5.019531 20.539062 L 5.160156 20.21875 L 5.621094 20.167969 L 5.34375 19.792969 L 5.484375 19.472656 L 5.953125 20.140625 L 6.339844 20.308594 Z M 6.214844 20.59375 " fill-opacity="1" fill-rule="nonzero"/><path fill="#ffffff" d="M 6.902344 19.277344 C 6.859375 19.347656 6.804688 19.410156 6.742188 19.457031 C 6.679688 19.503906 6.613281 19.535156 6.539062 19.558594 C 6.46875 19.578125 6.394531 19.582031 6.316406 19.574219 C 6.242188 19.5625 6.167969 19.535156 6.097656 19.496094 C 6.027344 19.453125 5.972656 19.402344 5.925781 19.339844 C 5.882812 19.273438 5.851562 19.207031 5.832031 19.136719 C 5.8125 19.0625 5.808594 18.988281 5.820312 18.914062 C 5.835938 18.835938 5.867188 18.757812 5.910156 18.679688 C 5.953125 18.605469 6.003906 18.550781 6.066406 18.503906 C 6.128906 18.457031 6.195312 18.421875 6.269531 18.398438 C 6.34375 18.378906 6.417969 18.375 6.492188 18.382812 C 6.566406 18.394531 6.636719 18.421875 6.707031 18.460938 L 6.710938 18.460938 C 6.78125 18.503906 6.839844 18.554688 6.886719 18.617188 C 6.929688 18.675781 6.960938 18.746094 6.980469 18.820312 C 7 18.894531 7.003906 18.96875 6.988281 19.046875 C 6.976562 19.125 6.945312 19.203125 6.902344 19.277344 Z M 6.671875 19.132812 C 6.691406 19.097656 6.703125 19.0625 6.703125 19.023438 C 6.703125 18.984375 6.703125 18.949219 6.691406 18.914062 C 6.679688 18.878906 6.664062 18.847656 6.640625 18.816406 C 6.613281 18.785156 6.585938 18.757812 6.550781 18.738281 C 6.515625 18.714844 6.480469 18.703125 6.441406 18.695312 C 6.402344 18.6875 6.367188 18.6875 6.332031 18.695312 C 6.292969 18.703125 6.257812 18.71875 6.226562 18.742188 C 6.195312 18.761719 6.167969 18.792969 6.144531 18.832031 C 6.125 18.867188 6.113281 18.902344 6.109375 18.9375 C 6.105469 18.972656 6.109375 19.007812 6.117188 19.042969 C 6.125 19.078125 6.140625 19.109375 6.164062 19.140625 C 6.191406 19.171875 6.21875 19.199219 6.253906 19.21875 L 6.257812 19.21875 C 6.292969 19.242188 6.332031 19.253906 6.367188 19.261719 C 6.40625 19.269531 6.445312 19.269531 6.484375 19.261719 C 6.519531 19.253906 6.550781 19.242188 6.582031 19.21875 C 6.617188 19.195312 6.644531 19.167969 6.671875 19.132812 Z M 6.671875 19.132812 " fill-opacity="1" fill-rule="nonzero"/><path fill="#ffffff" d="M 7.675781 18.15625 C 7.574219 18.28125 7.460938 18.355469 7.339844 18.378906 C 7.21875 18.402344 7.089844 18.359375 6.957031 18.25 L 6.460938 17.863281 L 6.652344 17.617188 L 7.148438 18 C 7.210938 18.050781 7.269531 18.070312 7.320312 18.0625 C 7.371094 18.058594 7.417969 18.03125 7.457031 17.984375 C 7.492188 17.9375 7.507812 17.886719 7.503906 17.835938 C 7.5 17.78125 7.464844 17.730469 7.402344 17.683594 L 6.910156 17.296875 L 7.101562 17.050781 L 7.589844 17.429688 C 7.660156 17.492188 7.710938 17.546875 7.746094 17.605469 C 7.785156 17.667969 7.804688 17.726562 7.808594 17.789062 C 7.816406 17.847656 7.808594 17.910156 7.785156 17.976562 C 7.757812 18.039062 7.722656 18.097656 7.675781 18.15625 Z M 7.675781 18.15625 " fill-opacity="1" fill-rule="nonzero"/><path fill="#ffffff" d="M 8.175781 17.53125 L 7.390625 16.738281 L 7.765625 16.363281 C 7.824219 16.308594 7.882812 16.265625 7.941406 16.234375 C 8.003906 16.207031 8.058594 16.195312 8.109375 16.195312 C 8.152344 16.199219 8.199219 16.210938 8.246094 16.230469 C 8.289062 16.25 8.328125 16.277344 8.363281 16.3125 L 8.371094 16.320312 C 8.433594 16.378906 8.464844 16.441406 8.472656 16.511719 C 8.480469 16.582031 8.46875 16.652344 8.441406 16.722656 L 8.910156 16.8125 L 8.652344 17.058594 L 8.253906 16.976562 L 8.15625 17.074219 L 8.394531 17.316406 Z M 7.984375 16.898438 L 8.128906 16.753906 C 8.167969 16.71875 8.1875 16.683594 8.191406 16.644531 C 8.199219 16.609375 8.1875 16.574219 8.160156 16.546875 L 8.15625 16.546875 C 8.125 16.511719 8.09375 16.5 8.058594 16.503906 C 8.019531 16.507812 7.980469 16.527344 7.941406 16.5625 L 7.796875 16.707031 Z M 7.984375 16.898438 " fill-opacity="1" fill-rule="nonzero"/><path fill="#ffffff" d="M 9.53125 16.3125 L 8.890625 15.394531 L 9.625 14.886719 L 9.78125 15.109375 L 9.304688 15.441406 L 9.414062 15.597656 L 9.84375 15.292969 L 9.992188 15.507812 L 9.558594 15.808594 L 9.789062 16.136719 Z M 9.53125 16.3125 " fill-opacity="1" fill-rule="nonzero"/><path fill="#ffffff" d="M 10.394531 15.714844 L 10.285156 14.507812 L 10.554688 14.367188 L 11.5 15.136719 L 11.203125 15.292969 L 11.039062 15.152344 L 10.660156 15.351562 L 10.679688 15.566406 Z M 10.625 15.097656 L 10.847656 14.980469 L 10.59375 14.757812 Z M 10.625 15.097656 " fill-opacity="1" fill-rule="nonzero"/><path fill="#ffffff" d="M 12.035156 14.941406 L 11.214844 14.039062 L 11.539062 13.921875 L 12.023438 14.496094 L 12.019531 13.746094 L 12.335938 13.625 L 12.304688 14.84375 Z M 12.035156 14.941406 " fill-opacity="1" fill-rule="nonzero"/><path fill="#ffffff" d="M 13.476562 14.515625 C 13.394531 14.535156 13.3125 14.535156 13.234375 14.527344 C 13.152344 14.511719 13.078125 14.488281 13.015625 14.449219 C 12.953125 14.410156 12.898438 14.359375 12.851562 14.296875 C 12.8125 14.234375 12.78125 14.160156 12.765625 14.085938 C 12.746094 14.007812 12.746094 13.929688 12.757812 13.851562 C 12.773438 13.777344 12.800781 13.707031 12.835938 13.644531 C 12.875 13.582031 12.925781 13.527344 12.992188 13.484375 C 13.058594 13.4375 13.136719 13.402344 13.222656 13.386719 C 13.304688 13.363281 13.386719 13.363281 13.460938 13.375 C 13.542969 13.390625 13.613281 13.414062 13.675781 13.453125 C 13.742188 13.492188 13.796875 13.539062 13.84375 13.601562 C 13.886719 13.664062 13.917969 13.738281 13.9375 13.816406 L 13.9375 13.820312 C 13.953125 13.898438 13.953125 13.972656 13.941406 14.050781 C 13.925781 14.121094 13.898438 14.191406 13.859375 14.257812 C 13.820312 14.320312 13.765625 14.375 13.703125 14.417969 C 13.636719 14.460938 13.5625 14.496094 13.476562 14.515625 Z M 13.421875 14.246094 C 13.457031 14.234375 13.492188 14.21875 13.523438 14.195312 C 13.554688 14.167969 13.578125 14.140625 13.597656 14.113281 C 13.617188 14.082031 13.628906 14.046875 13.632812 14.007812 C 13.636719 13.96875 13.632812 13.933594 13.625 13.894531 C 13.617188 13.851562 13.601562 13.816406 13.582031 13.785156 C 13.5625 13.75 13.535156 13.722656 13.503906 13.703125 C 13.472656 13.679688 13.4375 13.664062 13.398438 13.65625 C 13.359375 13.648438 13.320312 13.648438 13.28125 13.660156 C 13.238281 13.667969 13.203125 13.683594 13.171875 13.707031 C 13.140625 13.730469 13.121094 13.757812 13.101562 13.789062 C 13.085938 13.820312 13.074219 13.855469 13.066406 13.894531 C 13.058594 13.933594 13.0625 13.972656 13.070312 14.011719 L 13.070312 14.019531 C 13.082031 14.054688 13.097656 14.089844 13.117188 14.121094 C 13.140625 14.152344 13.164062 14.179688 13.195312 14.199219 C 13.226562 14.21875 13.261719 14.234375 13.300781 14.246094 C 13.339844 14.253906 13.378906 14.253906 13.421875 14.246094 Z M 13.421875 14.246094 " fill-opacity="1" fill-rule="nonzero"/><path fill="#ffffff" d="M 14.316406 14.328125 L 14.214844 13.214844 L 14.738281 13.167969 C 14.824219 13.160156 14.894531 13.164062 14.957031 13.179688 C 15.019531 13.195312 15.074219 13.21875 15.113281 13.253906 C 15.148438 13.285156 15.175781 13.320312 15.199219 13.363281 C 15.21875 13.402344 15.234375 13.449219 15.242188 13.5 L 15.242188 13.507812 C 15.246094 13.59375 15.230469 13.667969 15.191406 13.722656 C 15.152344 13.78125 15.101562 13.828125 15.035156 13.863281 L 15.34375 14.226562 L 14.984375 14.265625 L 14.734375 13.949219 L 14.597656 13.964844 L 14.628906 14.300781 Z M 14.574219 13.722656 L 14.769531 13.703125 C 14.824219 13.699219 14.863281 13.683594 14.890625 13.65625 C 14.917969 13.628906 14.929688 13.597656 14.925781 13.558594 L 14.925781 13.554688 C 14.921875 13.507812 14.902344 13.476562 14.871094 13.453125 C 14.839844 13.433594 14.796875 13.425781 14.746094 13.433594 L 14.546875 13.453125 Z M 14.574219 13.722656 " fill-opacity="1" fill-rule="nonzero"/><path fill="#ffffff" d="M 15.589844 14.238281 L 15.582031 13.121094 L 15.890625 13.121094 L 15.894531 14.238281 Z M 15.589844 14.238281 " fill-opacity="1" fill-rule="nonzero"/><path fill="#ffffff" d="M 16.492188 14.257812 L 16.566406 13.417969 L 16.226562 13.394531 L 16.25 13.125 L 17.226562 13.203125 L 17.207031 13.472656 L 16.875 13.445312 L 16.800781 14.285156 Z M 16.492188 14.257812 " fill-opacity="1" fill-rule="nonzero"/><path fill="#ffffff" d="M 17.371094 14.351562 L 17.589844 13.257812 L 18.472656 13.433594 L 18.421875 13.6875 L 17.835938 13.566406 L 17.804688 13.738281 L 18.335938 13.84375 L 18.289062 14.082031 L 17.757812 13.976562 L 17.722656 14.148438 L 18.3125 14.269531 L 18.257812 14.527344 Z M 17.371094 14.351562 " fill-opacity="1" fill-rule="nonzero"/><path fill="#ffffff" d="M 19.066406 14.761719 L 19.472656 13.722656 L 19.96875 13.914062 C 20.042969 13.941406 20.105469 13.976562 20.15625 14.019531 C 20.203125 14.058594 20.238281 14.105469 20.261719 14.152344 C 20.28125 14.195312 20.292969 14.238281 20.292969 14.289062 C 20.292969 14.335938 20.28125 14.386719 20.261719 14.433594 L 20.261719 14.4375 C 20.230469 14.519531 20.183594 14.578125 20.121094 14.613281 C 20.058594 14.648438 19.992188 14.667969 19.917969 14.671875 L 20.027344 15.128906 L 19.691406 15 L 19.605469 14.605469 L 19.480469 14.558594 L 19.359375 14.875 Z M 19.566406 14.335938 L 19.753906 14.40625 C 19.804688 14.425781 19.84375 14.429688 19.878906 14.417969 C 19.917969 14.40625 19.945312 14.378906 19.957031 14.339844 L 19.964844 14.335938 C 19.980469 14.292969 19.980469 14.257812 19.957031 14.226562 C 19.9375 14.195312 19.902344 14.171875 19.855469 14.152344 L 19.667969 14.082031 Z M 19.566406 14.335938 " fill-opacity="1" fill-rule="nonzero"/><path fill="#ffffff" d="M 20.226562 15.226562 L 20.746094 14.242188 L 21.546875 14.664062 L 21.425781 14.890625 L 20.898438 14.609375 L 20.820312 14.761719 L 21.292969 15.015625 L 21.179688 15.234375 L 20.707031 14.980469 L 20.621094 15.132812 L 21.152344 15.414062 L 21.027344 15.648438 Z M 20.226562 15.226562 " fill-opacity="1" fill-rule="nonzero"/><path fill="#ffffff" d="M 21.605469 16.050781 C 21.523438 15.996094 21.453125 15.929688 21.394531 15.851562 C 21.339844 15.777344 21.300781 15.695312 21.277344 15.609375 L 21.542969 15.53125 C 21.558594 15.597656 21.585938 15.660156 21.625 15.714844 C 21.664062 15.765625 21.710938 15.808594 21.765625 15.847656 C 21.796875 15.867188 21.824219 15.878906 21.847656 15.878906 C 21.871094 15.878906 21.890625 15.871094 21.90625 15.851562 C 21.917969 15.832031 21.921875 15.808594 21.910156 15.78125 C 21.902344 15.75 21.871094 15.710938 21.816406 15.65625 C 21.777344 15.613281 21.738281 15.566406 21.703125 15.527344 C 21.671875 15.484375 21.648438 15.441406 21.628906 15.394531 C 21.617188 15.351562 21.609375 15.308594 21.613281 15.265625 C 21.617188 15.222656 21.636719 15.175781 21.667969 15.132812 L 21.667969 15.125 C 21.699219 15.085938 21.734375 15.050781 21.777344 15.027344 C 21.816406 15.003906 21.859375 14.992188 21.90625 14.988281 C 21.953125 14.980469 22.007812 14.984375 22.0625 14.996094 C 22.117188 15.011719 22.171875 15.039062 22.222656 15.074219 C 22.304688 15.125 22.367188 15.1875 22.417969 15.25 C 22.464844 15.3125 22.503906 15.382812 22.527344 15.457031 L 22.273438 15.550781 C 22.25 15.492188 22.222656 15.441406 22.1875 15.394531 C 22.152344 15.347656 22.113281 15.3125 22.074219 15.289062 C 22.042969 15.265625 22.011719 15.253906 21.988281 15.257812 C 21.96875 15.257812 21.949219 15.265625 21.9375 15.28125 C 21.921875 15.308594 21.921875 15.332031 21.9375 15.359375 C 21.949219 15.382812 21.984375 15.425781 22.042969 15.484375 C 22.128906 15.578125 22.1875 15.667969 22.222656 15.75 C 22.257812 15.832031 22.246094 15.917969 22.1875 16.003906 L 22.183594 16.003906 C 22.152344 16.050781 22.113281 16.085938 22.074219 16.113281 C 22.03125 16.136719 21.984375 16.148438 21.933594 16.152344 C 21.878906 16.15625 21.824219 16.148438 21.769531 16.132812 C 21.71875 16.113281 21.664062 16.085938 21.605469 16.050781 Z M 21.605469 16.050781 " fill-opacity="1" fill-rule="nonzero"/><path fill="#ffffff" d="M 22.402344 16.625 L 22.957031 15.984375 L 22.695312 15.765625 L 22.871094 15.5625 L 23.625 16.199219 L 23.445312 16.402344 L 23.183594 16.179688 L 22.632812 16.824219 Z M 22.402344 16.625 " fill-opacity="1" fill-rule="nonzero"/><path fill="#ffffff" d="M 23 17.136719 L 24.15625 16.738281 L 24.359375 16.960938 L 23.84375 18.058594 L 23.621094 17.816406 L 23.71875 17.617188 L 23.425781 17.300781 L 23.21875 17.375 Z M 23.660156 17.207031 L 23.832031 17.394531 L 23.984375 17.089844 Z M 23.660156 17.207031 " fill-opacity="1" fill-rule="nonzero"/><path fill="#ffffff" d="M 24.238281 18.644531 C 24.148438 18.511719 24.109375 18.386719 24.125 18.265625 C 24.140625 18.144531 24.21875 18.035156 24.363281 17.933594 L 24.878906 17.578125 L 25.054688 17.832031 L 24.546875 18.1875 C 24.480469 18.234375 24.441406 18.28125 24.429688 18.335938 C 24.421875 18.386719 24.4375 18.4375 24.46875 18.484375 C 24.503906 18.535156 24.550781 18.566406 24.601562 18.578125 C 24.65625 18.589844 24.710938 18.570312 24.773438 18.527344 L 25.289062 18.167969 L 25.472656 18.421875 L 24.96875 18.777344 C 24.890625 18.828125 24.816406 18.859375 24.75 18.878906 C 24.683594 18.898438 24.621094 18.902344 24.5625 18.882812 C 24.5 18.871094 24.445312 18.84375 24.390625 18.800781 C 24.332031 18.761719 24.28125 18.707031 24.238281 18.644531 Z M 24.238281 18.644531 " fill-opacity="1" fill-rule="nonzero"/><path fill="#ffffff" d="M 24.699219 19.304688 L 25.691406 18.785156 L 25.941406 19.253906 C 25.980469 19.328125 26 19.394531 26.007812 19.457031 C 26.019531 19.519531 26.015625 19.574219 26.003906 19.628906 C 25.984375 19.671875 25.960938 19.710938 25.929688 19.746094 C 25.902344 19.785156 25.867188 19.816406 25.820312 19.839844 L 25.816406 19.839844 C 25.738281 19.882812 25.664062 19.894531 25.59375 19.882812 C 25.523438 19.871094 25.457031 19.839844 25.398438 19.792969 L 25.179688 20.214844 L 25.011719 19.898438 L 25.207031 19.542969 L 25.144531 19.425781 L 24.847656 19.582031 Z M 25.363281 19.3125 L 25.457031 19.488281 C 25.480469 19.535156 25.511719 19.566406 25.546875 19.582031 C 25.578125 19.59375 25.613281 19.59375 25.648438 19.574219 L 25.65625 19.574219 C 25.695312 19.550781 25.71875 19.519531 25.722656 19.480469 C 25.730469 19.445312 25.71875 19.40625 25.695312 19.359375 L 25.601562 19.179688 Z M 25.363281 19.3125 " fill-opacity="1" fill-rule="nonzero"/><path fill="#ffffff" d="M 25.238281 20.328125 L 26.460938 20.375 L 26.5625 20.65625 L 25.679688 21.496094 L 25.5625 21.183594 L 25.726562 21.039062 L 25.574219 20.632812 L 25.355469 20.628906 Z M 25.828125 20.632812 L 25.917969 20.871094 L 26.171875 20.644531 Z M 25.828125 20.632812 " fill-opacity="1" fill-rule="nonzero"/><path fill="#ffffff" d="M 25.730469 21.691406 L 26.820312 21.4375 L 26.886719 21.71875 L 26.414062 22.300781 L 26.992188 22.164062 L 27.058594 22.460938 L 25.96875 22.714844 L 25.914062 22.457031 L 26.402344 21.847656 L 25.804688 21.988281 Z M 25.730469 21.691406 " fill-opacity="1" fill-rule="nonzero"/><path fill="#ffffff" d="M 26.046875 23.285156 L 26.890625 23.195312 L 26.855469 22.859375 L 27.125 22.828125 L 27.230469 23.804688 L 26.957031 23.835938 L 26.921875 23.496094 L 26.078125 23.585938 Z M 26.046875 23.285156 " fill-opacity="1" fill-rule="nonzero"/></svg>